<svg width="128" height="128" viewBox="0 0 128 128" fill="none" xmlns="http://www.w3.org/2000/svg">
<path d="M92.5634 31.36C93.6025 32.0147 94.426 32.9606 94.9314 34.08C95.6094 35.6678 96.0866 37.334 96.3522 39.04C95.96 39.0503 95.5698 39.0996 95.1874 39.1872C95.1426 39.1872 94.8866 39.3216 94.8418 39.4624C94.6367 40.1719 94.4806 40.8947 94.3746 41.6256L81.5746 41.7024C81.4274 41.7024 81.4466 41.8752 81.5746 41.8816C81.5746 41.8816 93.261 42.0608 94.3746 42.0672C94.093 44.3968 94.3298 46.9568 95.981 48.608C97.5362 50.144 102.823 50.3616 104.787 48.896C106.419 47.6736 106.823 44.1408 106.707 42.0672C107.091 42.0672 115.744 41.9136 116.602 41.8816C116.626 41.8816 116.648 41.8721 116.665 41.8553C116.682 41.8385 116.691 41.8157 116.691 41.792C116.691 41.7682 116.682 41.7454 116.665 41.7286C116.648 41.7118 116.626 41.7024 116.602 41.7024C115.143 41.7024 106.688 41.6384 106.688 41.6384C106.515 39.7184 106.048 39.5264 106.048 39.4368C106.043 39.3775 106.019 39.3215 105.98 39.2766C105.941 39.2318 105.889 39.2005 105.831 39.1872C105.274 39.0784 104.708 39.0205 104.141 39.0144C105.037 37.5744 105.805 33.6576 107.213 31.0336C109.299 27.1232 117.152 30.848 117.024 27.392C116.871 23.552 112.608 21.3952 108.032 23.4304C103.687 25.3504 102.554 34.3104 102.477 38.9888C101.165 38.9888 101.799 39.0272 99.917 38.9888C101.562 36.8 103.655 29.504 103.29 24.4032C102.872 21.0181 101.447 17.8364 99.2002 15.2704C97.229 13.0624 94.9186 12.128 93.1778 13.9008C90.6178 16.4608 92.973 19.3216 95.1618 22.2208C97.5682 25.4208 98.4706 27.0144 98.797 31.5712C98.9498 34.0435 98.9028 36.5241 98.6562 38.9888H97.9458C98.4962 37.1904 97.7858 33.2288 97.2674 31.3664C96.525 28.736 95.2578 26.0864 93.2482 24.2624C90.8741 22.2125 87.9869 20.8475 84.8962 20.3136C83.0082 19.9936 81.3954 20.1152 80.5186 20.64C80.1961 20.8077 79.9471 21.0887 79.8195 21.429C79.6919 21.7693 79.6947 22.1448 79.8274 22.4832C80.8898 25.9584 88.4034 28.8 92.5634 31.36ZM108.16 23.84C112.442 21.92 116.384 23.936 116.519 27.4176C116.621 30.0864 108.922 26.7776 106.823 30.8672C105.363 33.696 104.717 37.6512 103.834 39.0208H103.379C104.019 36.1984 105.587 29.92 107.431 27.6992C109.786 24.8256 113.888 26.5024 114.067 26.4576C114.138 26.4576 114.208 26.3424 113.997 26.2656C111.437 25.3376 108.832 25.3568 107.091 27.4176C104.999 29.888 103.68 35.84 103.13 39.04H102.579C102.752 34.56 104.007 25.664 108.16 23.84ZM99.1234 31.5648C98.8674 27.0464 98.0354 25.3888 95.5074 21.9648C93.4338 19.1808 91.213 16.5248 93.5042 14.2016C95.0658 12.6144 97.101 13.5616 98.8673 15.5584C101.03 18.0622 102.394 21.156 102.784 24.4416C103.2 29.6256 101.088 37.0688 99.5842 38.9952H99.245C99.9295 36.0647 100.373 33.0829 100.57 30.08C100.717 27.52 100.672 25.7408 99.9298 23.5136C99.3198 21.8178 98.4731 20.2169 97.4146 18.7584C96.9094 18.039 96.3533 17.3567 95.7506 16.7168C95.7353 16.6981 95.7132 16.6863 95.6892 16.6839C95.6652 16.6815 95.6412 16.6887 95.6226 16.704C95.6039 16.7193 95.592 16.7413 95.5897 16.7653C95.5872 16.7893 95.5945 16.8133 95.6098 16.832C95.7701 16.9995 95.9197 17.1769 96.0578 17.3632C98.0546 19.9232 100.026 23.6608 100.179 26.9632C100.333 30.2656 99.6738 35.776 99.0658 39.04H98.8866C99.1692 36.5589 99.2484 34.0588 99.1234 31.5648ZM105.645 39.7312C106.701 40.6976 106.368 47.1168 104.455 48.5504C102.541 49.984 97.5554 49.6448 96.1986 48.3328C94.061 46.2784 94.2786 42.432 95.0082 39.5776C95.0536 39.6374 95.1161 39.682 95.1874 39.7056C95.6793 39.8191 96.1806 39.8877 96.685 39.9104C96.0584 42.233 96.168 44.6927 96.9986 46.9504C97.0291 47.0149 97.084 47.0646 97.1513 47.0886C97.2185 47.1126 97.2925 47.1089 97.357 47.0784C97.4215 47.0478 97.4712 46.9929 97.4952 46.9257C97.5192 46.8585 97.5155 46.7845 97.485 46.72C96.6786 45.1072 96.461 41.5232 96.9282 39.9552C98.925 40.0448 104.269 40.0832 105.645 39.7312ZM92.973 24.5888C97.3122 28.4288 98.4258 36.9344 97.7538 39.008H97.357C97.2661 37.2296 96.9566 35.4691 96.4354 33.7664C95.053 29.2864 92.7362 26.5344 89.1842 24.4608C87.3287 23.3994 85.3429 22.5841 83.277 22.0352C83.2532 22.0292 83.2281 22.033 83.207 22.0456C83.186 22.0582 83.1709 22.0786 83.165 22.1024C83.159 22.1261 83.1628 22.1513 83.1754 22.1723C83.188 22.1933 83.2084 22.2084 83.2322 22.2144C85.6439 22.9791 87.933 24.087 90.029 25.504C92.3531 27.0512 94.1679 29.2512 95.245 31.8272C96.267 34.1042 96.9153 36.531 97.165 39.0144H96.5634C96.3266 37.2578 95.8708 35.5377 95.2066 33.8944C94.6875 32.7127 93.8358 31.7075 92.7554 31.0016C88.525 28.3968 81.2354 25.5424 80.2626 22.3424C79.3602 19.4048 88.0578 20.1856 92.973 24.5888ZM37.6322 57.5424C29.1074 54.5792 21.4658 53.2544 16.7106 52.0576C16.6517 52.041 16.59 52.0365 16.5294 52.0444C16.4687 52.0522 16.4103 52.0722 16.3575 52.1032C16.3048 52.1342 16.2588 52.1755 16.2224 52.2247C16.186 52.2739 16.1599 52.3299 16.1457 52.3894C16.1315 52.4489 16.1294 52.5106 16.1396 52.5709C16.1498 52.6312 16.1721 52.6889 16.2051 52.7404C16.2382 52.7919 16.2813 52.8361 16.3318 52.8706C16.3824 52.905 16.4394 52.9289 16.4994 52.9408C19.5586 53.6768 24.1794 54.5216 29.1778 55.68C37.4338 57.6 37.613 58.1696 37.7474 57.7728C37.7617 57.7269 37.7577 57.6773 37.7362 57.6343C37.7148 57.5914 37.6775 57.5584 37.6322 57.5424ZM105.184 62.72C105.184 62.7049 105.181 62.6899 105.175 62.6759C105.17 62.6619 105.161 62.6492 105.15 62.6385C105.14 62.6278 105.127 62.6193 105.113 62.6136C105.099 62.6078 105.084 62.6048 105.069 62.6048C99.4562 62.6048 93.997 63.8848 90.9058 64.1728C90.8681 64.176 90.8315 64.1867 90.7981 64.2043C90.7647 64.2219 90.7352 64.2461 90.7113 64.2753C90.6874 64.3046 90.6696 64.3383 90.6591 64.3746C90.6485 64.4109 90.6453 64.4489 90.6498 64.4864C90.653 64.5243 90.6637 64.5611 90.6812 64.5949C90.6987 64.6286 90.7228 64.6585 90.7519 64.6829C90.7811 64.7073 90.8148 64.7257 90.8511 64.737C90.8873 64.7483 90.9255 64.7523 90.9634 64.7488C93.229 64.5248 97.1522 63.6672 100.826 63.1936C104.903 62.72 105.191 63.008 105.184 62.72ZM85.8498 76.0384C85.8553 76.0279 85.8587 76.0164 85.8598 76.0046C85.8608 75.9928 85.8595 75.9809 85.856 75.9696C85.8524 75.9582 85.8466 75.9478 85.839 75.9387C85.8313 75.9296 85.8219 75.9222 85.8114 75.9168L85.6514 75.8336L85.613 76.0256C85.7218 76.0768 85.805 76.16 85.8498 76.0384Z" fill="black"/>
<path d="M124.723 77.6383C123.079 77.2991 119.015 77.4335 117.338 77.5807C118.72 72.8575 120.147 66.7007 120.723 63.3087C120.932 62.3701 121.022 61.409 120.992 60.4479C120.971 60.3616 120.932 60.2806 120.878 60.2101C120.824 60.1396 120.756 60.0811 120.679 60.0383C118.119 58.4319 91.2962 61.9583 89.4274 62.8863C88.8706 63.1615 88.3714 64.5503 88.1474 65.1775C86.4898 62.4511 86.6626 61.8047 84.813 57.4975C83.6604 54.692 82.1986 52.0238 80.4546 49.5423C80.4994 49.2031 82.2722 35.9615 80.3714 32.4223C79.0914 30.0543 72.1602 29.2223 69.4914 28.9983C69.4914 28.8575 69.1586 26.4383 69.0178 25.3439C71.2706 23.4623 72.2178 19.9999 69.773 19.4175C68.0386 19.0079 61.1906 17.7023 56.0898 19.0207C52.8898 19.8527 50.3298 21.7215 50.1122 25.4207C50.0262 26.8254 50.1122 28.2353 50.3682 29.6191C47.0594 29.9839 41.3634 30.5279 38.4578 31.6223C34.7202 33.0303 36.2946 49.3823 36.6914 50.7071C36.4738 51.2447 36.269 51.7887 36.0834 52.2943C26.7714 49.9199 5.92659 45.4911 4.99859 45.5743C4.75687 45.5714 4.51818 45.6283 4.30379 45.7399C4.08939 45.8516 3.90594 46.0146 3.76979 46.2143C3.52019 46.2719 3.43059 46.6239 3.38579 46.8543C2.74579 50.2591 3.90419 70.5919 4.10899 74.0415C4.44819 75.2831 14.3106 77.9775 15.5906 78.3295C15.6546 80.0127 15.9938 88.3711 16.0642 90.0863C15.5074 89.9849 14.9562 89.8546 14.413 89.6959C13.2738 89.2287 8.90899 93.4783 9.29299 93.1263C7.62259 94.6111 25.7986 99.4943 27.2514 99.0847C28.7042 98.6751 31.5778 95.9295 31.0914 94.3999C30.9569 94.1278 30.7301 93.9123 30.4514 93.7919C29.0754 93.0687 25.4338 92.1791 23.917 91.8143C24.0642 88.7167 24.0642 83.6351 24.0578 80.5503C25.8562 80.9983 36.0642 83.4687 37.9074 83.4367C38.0395 83.4386 38.1698 83.4055 38.285 83.3407C38.8738 83.2575 39.565 83.1103 39.6226 82.5087C39.6226 82.3295 39.7698 80.7679 39.9554 78.4511C44.4674 80.1727 49.9394 80.0447 50.9122 79.6479C51.1744 79.5214 51.3961 79.3241 51.5522 79.0783C51.597 79.1359 51.6162 79.1231 51.9554 79.1743C53.2354 79.3791 55.2834 79.5711 56.4354 78.9695C58.0674 79.2319 62.797 79.6095 63.149 78.0287C63.1938 77.8175 63.2578 77.3887 63.3218 76.8703C68.0578 77.1263 84.877 77.0111 84.941 77.0111L84.5506 78.7711C84.5407 78.7566 84.5273 78.7449 84.5116 78.737C84.4959 78.7292 84.4785 78.7255 84.461 78.7263C84.461 78.6751 84.461 78.6879 84.461 78.7263C81.8403 78.5198 79.2105 78.4514 76.5826 78.5215C75.6482 78.5663 73.1842 78.6815 73.1394 79.5903C72.8121 80.3627 72.7646 81.2251 73.005 82.0287C73.1458 82.5343 74.3362 83.3535 74.7778 83.6543C72.2754 83.4047 70.8162 83.5007 70.061 83.7695C69.8814 83.8008 69.7139 83.8814 69.5774 84.0021C69.4408 84.1229 69.3404 84.2792 69.2873 84.4537C69.2342 84.6281 69.2306 84.8138 69.2768 84.9902C69.323 85.1666 69.4172 85.3267 69.549 85.4527C70.4066 86.6303 72.1922 87.0271 72.3842 88.5695C72.749 91.4943 65.3122 94.8031 62.5986 95.9615C63.9618 94.1695 67.6162 88.5311 65.8434 87.1679C63.8722 85.6511 46.9698 84.9855 45.4146 85.3823C44.3202 85.6639 36.2754 91.6095 36.4226 93.7023C36.525 95.0655 44.4418 96.4031 45.9138 96.6591C47.5714 96.9407 59.3986 98.7839 60.813 97.8815C61.1129 97.7605 61.3854 97.5802 61.6142 97.3515C61.8429 97.1228 62.0232 96.8503 62.1442 96.5503C64.5949 95.7079 66.9537 94.6186 69.1842 93.2991C72.7042 91.1167 74.6754 88.4159 71.1938 86.1439C70.7778 85.8751 69.6386 85.0559 69.805 84.5951C70.1634 83.5775 75.1106 83.9551 75.181 83.9551C77.4786 85.4527 81.8754 87.7631 84.4674 88.4351C87.2066 89.1583 100.007 87.7567 103.098 87.3663C103.45 88.6463 103.789 89.8367 104.013 90.5663C103.533 90.6047 102.163 90.7263 101.779 91.0271C101.568 91.1935 101.575 91.4751 101.914 91.6671C101.914 93.8111 101.651 100.224 102.291 103.117C102.535 104.198 102.816 104.646 103.936 105.037C106.055 105.722 110.125 105.478 112.256 104.909C113.581 104.55 113.754 104.269 113.965 103.565C114.695 101.171 114.656 94.1055 114.605 91.5967C114.646 91.5671 114.679 91.5281 114.702 91.483C114.725 91.438 114.737 91.3881 114.737 91.3375C114.737 91.2869 114.725 91.2371 114.702 91.192C114.679 91.1469 114.646 91.108 114.605 91.0783C114.132 90.8588 113.622 90.7286 113.101 90.6943C113.191 89.9775 113.671 85.9711 113.741 85.2671C114.075 85.0664 114.374 84.8112 114.624 84.5119C115.015 84.0364 115.27 83.4634 115.36 82.8543C116 82.0159 116.922 78.8863 117.223 77.8623C120.077 77.9839 124.263 77.8175 124.653 77.8623C124.683 77.8717 124.715 77.8688 124.742 77.8544C124.77 77.84 124.791 77.8152 124.8 77.7855C124.81 77.7558 124.807 77.7236 124.792 77.696C124.778 77.6684 124.753 77.6477 124.723 77.6383ZM38.2146 91.4495C38.6434 90.9759 39.149 90.4831 39.6866 89.9839C41.9714 87.8719 44.877 85.7471 45.5106 85.5871C47.0466 85.1903 63.917 86.2271 65.6322 87.5071C65.9202 87.7247 65.9778 88.1471 65.9202 88.6527C65.6898 90.6623 63.5906 93.9775 62.3682 95.5967C60.9858 94.4063 40.045 91.6991 38.2146 91.4495ZM69.5746 29.4591C72.0194 29.6895 78.8738 30.4767 80.0514 32.6143C81.7154 35.6223 80.6914 45.8815 80.2818 49.2543C79.9234 48.7743 79.5522 48.3199 79.1746 47.9039C77.005 45.5231 73.2802 44.3263 70.125 43.7183C68.0982 43.3654 66.0535 43.1239 64.0002 42.9951C63.9362 42.9951 64.0386 43.0911 63.533 42.0543C62.7778 40.4991 62.733 40.5247 62.8098 40.4799C63.6489 40.4352 64.4801 40.2935 65.2866 40.0575C67.4498 39.4175 68.7362 38.1375 69.3442 35.0271C69.6743 33.1836 69.7432 31.3027 69.549 29.4399L69.5746 29.4591ZM64.0642 43.1935C64.4674 43.2511 64.5762 43.2447 64.6082 43.2639C64.6082 43.4239 66.0098 50.9439 61.2098 51.2895C57.2418 51.6159 54.6306 46.0479 53.2226 42.3295C53.7346 42.2463 54.1442 42.1887 54.4194 42.1503C54.5538 45.0687 58.7522 50.3615 61.0818 49.9903C63.6994 49.5615 64.9858 45.5807 64.0642 43.1935ZM54.509 31.4175C54.5663 31.132 54.6942 30.8653 54.8808 30.6418C55.0675 30.4182 55.3071 30.2449 55.5778 30.1375C56.8578 29.8239 56.8578 31.4175 57.8754 31.3279C59.1554 31.2447 57.7282 28.2751 58.829 26.4639C60.0258 24.4671 64.877 28.5055 68.8002 25.5103C69.2738 28.8831 69.7922 31.5071 69.069 34.9503C68.429 37.9711 67.2386 39.0847 65.1842 39.6863C64.34 39.8806 63.4852 40.026 62.6242 40.1215C62.5555 40.1603 62.4978 40.2159 62.4564 40.283C62.415 40.3502 62.3912 40.4267 62.3874 40.5055C62.3874 40.7295 63.0274 41.8751 63.6226 43.2127C64.5122 45.3119 63.3538 49.1263 61.0114 49.4911C59.3474 49.7535 56.0898 46.0223 55.1618 43.3855C54.7522 42.2207 54.8738 42.1759 55.597 37.6255C56.6146 37.6959 56.8258 35.7055 56.877 34.6751C56.8875 34.4567 56.8117 34.2428 56.6658 34.0799C56.205 33.5743 55.8274 34.1631 54.9314 33.0431C54.7359 32.8258 54.5955 32.5647 54.5219 32.2818C54.4484 31.9989 54.444 31.7025 54.509 31.4175ZM50.4578 30.0799C51.3154 33.9967 53.5682 36.7167 55.117 37.4719C54.8354 39.2703 54.5154 41.2735 54.4322 41.8815C50.7393 42.0668 47.0972 42.8224 43.6354 44.1215C42.0981 44.7102 40.6654 45.5421 39.3922 46.5855C38.6882 42.9375 40.4994 35.8079 40.2754 33.7855C40.173 32.9279 39.9298 32.0191 39.0914 31.8335C41.9586 30.9311 47.2706 30.4191 50.4578 30.0799ZM38.7074 31.9999C38.8603 32.0051 39.0106 32.0413 39.1492 32.1062C39.2878 32.1711 39.4118 32.2634 39.5138 32.3775C39.8023 32.8129 39.9477 33.3275 39.9298 33.8495C40.0706 35.7695 38.0802 42.8479 39.2002 46.7711C38.1214 47.7827 37.3044 49.0412 36.8194 50.4383C36.3074 47.3215 35.4562 33.1327 38.7074 31.9999ZM15.7122 61.1583C15.7634 60.8575 16.3138 60.7231 16.6146 60.6719C18.8354 60.3071 23.4498 61.5743 23.3474 63.1167C23.1938 65.4015 23.8978 93.0879 23.2962 94.1055C22.5794 95.3279 18.6626 94.6495 17.101 93.5615C16.3906 93.0687 16.4034 92.6463 16.4226 92.7295C15.8786 70.9375 15.6226 61.6575 15.7122 61.1583ZM30.5474 94.6111C30.8738 95.6991 28.3074 98.2015 27.117 98.5343C25.9266 98.8671 8.37779 94.3231 9.52339 93.2863C8.99219 93.7663 12.3778 90.6495 13.869 90.1503C13.9879 90.0911 14.1237 90.0752 14.253 90.1055C14.4258 90.1823 15.1042 90.3551 16.0834 90.5855C16.141 91.9359 16.1794 92.7359 16.1794 92.7359C16.557 94.6175 22.5794 96.0383 23.629 94.3039C23.7897 93.6893 23.8756 93.0575 23.885 92.4223C24.8642 92.6655 29.8882 93.8879 30.5474 94.6111ZM37.9074 82.8927C36.2242 82.9567 25.7474 80.4991 24.0578 80.1023C24.0258 72.6015 23.8722 64.1919 23.949 63.1551C24.1026 60.7999 18.1122 59.5199 16.0002 60.2111C15.7909 60.2571 15.5986 60.3604 15.4448 60.5097C15.291 60.6589 15.1819 60.8481 15.1298 61.0559C14.989 61.9071 15.5394 77.0559 15.5714 77.9647C14.5282 77.6831 4.75539 75.0783 4.35219 74.0351C4.24339 71.6799 3.20019 48.9087 3.94259 46.7519C7.42419 47.6223 37.1586 53.6191 39.2514 55.0719C39.7762 56.5119 38.5794 80.8575 37.9074 82.8927ZM39.4114 82.5151C39.4114 82.9439 38.8418 83.0911 38.4194 83.1551C39.1106 81.4975 40.4866 56.2751 39.7826 54.7903C39.0786 53.3055 6.96979 47.0655 3.96819 46.2271C4.10168 46.0827 4.2642 45.9681 4.44509 45.8909C4.62598 45.8137 4.82114 45.7756 5.01779 45.7791C5.90739 45.7151 38.7394 53.0495 40.6466 54.0991C40.9666 55.0207 40.6466 61.4399 40.6018 62.4959C40.4866 65.0431 39.437 82.1695 39.4114 82.5151ZM56.6914 78.1823C55.9426 79.1807 53.2866 79.0591 52.0386 78.9439H51.7314C52.3008 77.7992 52.6235 76.5477 52.6786 75.2703C53.3186 75.0911 55.661 74.5471 56.0194 75.1231C56.1282 75.2895 55.7826 75.4879 55.6034 75.5839C55.1302 75.8035 54.6344 75.9709 54.125 76.0831C54.0494 76.0975 53.9827 76.1414 53.9395 76.205C53.8963 76.2686 53.8802 76.3468 53.8946 76.4223C53.909 76.4979 53.9529 76.5646 54.0165 76.6078C54.0801 76.651 54.1582 76.6671 54.2338 76.6527C54.8738 76.5631 56.621 76.3199 57.2418 76.5311C56.986 76.8861 56.6188 77.1452 56.1986 77.2671C55.6002 77.2631 55.0026 77.3123 54.413 77.4143C54.328 77.4304 54.2519 77.4771 54.1993 77.5457C54.1466 77.6142 54.1209 77.6997 54.1273 77.786C54.1336 77.8722 54.1714 77.9531 54.2336 78.0132C54.2957 78.0733 54.3778 78.1085 54.4642 78.1119C55.1143 78.1309 55.763 78.0422 56.3842 77.8495C56.5461 77.8562 56.7049 77.8954 56.8514 77.9647C56.8104 78.0508 56.7488 78.1256 56.6722 78.1823H56.6914ZM62.7458 77.9583C62.7187 78.058 62.6679 78.1497 62.5977 78.2255C62.5274 78.3013 62.4399 78.3589 62.3426 78.3935C61.1586 79.0335 58.1698 78.9183 56.8386 78.7839C57.3314 78.4063 57.6194 77.7919 57.1202 77.4527C58.1058 76.8127 58.0034 76.1279 57.357 75.9295C56.9384 75.8281 56.5057 75.7978 56.077 75.8399C56.4802 75.5391 56.6274 75.1999 56.3842 74.8351C56.0322 74.3359 55.1042 74.3999 54.5282 74.4959C54.2541 71.9621 54.1131 69.4157 54.1058 66.8671C55.8146 68.1087 61.4786 68.1471 63.4562 66.9695C63.5522 69.1199 62.9058 77.0239 62.7202 77.9583H62.7458ZM57.2546 76.5055C57.2546 76.5055 57.2354 76.5183 57.2354 76.5055H57.2546ZM70.989 76.6463C72.173 73.1839 72.3394 65.8495 72.269 62.1823C73.261 63.7759 78.669 71.4175 78.7074 71.4815C78.8388 71.6825 78.9934 71.8673 79.1682 72.0319C80.4578 73.2104 81.9053 74.2034 83.469 74.9823C85.1394 75.8655 85.2738 75.8207 85.261 75.8911L85.037 76.8511C84.9282 76.8447 71.9682 76.6463 70.9698 76.6463H70.989ZM73.7474 79.5199C75.1234 78.5599 84.4802 78.9951 84.5826 78.9311V79.0015C83.6866 83.2895 83.341 84.8383 83.2322 85.4015C83.2898 85.1519 83.6418 83.4815 84.045 81.6319C84.3266 80.2751 84.685 78.6623 85.0498 76.9535C85.2162 76.1727 85.325 75.6735 85.3314 75.6351C83.5778 74.7071 80.9026 73.1071 79.501 71.6927C79.149 71.3343 72.3458 61.9071 72.2818 61.7983C72.2178 61.6895 72.2178 58.8799 72.1474 58.7519C72.134 58.7374 72.1164 58.7274 72.0971 58.7232C72.0778 58.719 72.0576 58.7209 72.0394 58.7286C72.0212 58.7363 72.0058 58.7495 71.9954 58.7662C71.9849 58.783 71.9799 58.8026 71.981 58.8223C71.917 58.8223 71.981 72.5055 70.797 76.6271L63.4242 76.6975C63.469 76.3391 63.5138 75.9231 63.565 75.4751C66.5346 75.8527 67.885 72.5951 67.0978 69.9391C66.6306 68.4799 65.4274 68.2559 64.0514 68.9599C64.1154 68.1078 64.1154 67.2521 64.0514 66.3999C64.1107 66.2528 64.121 66.0905 64.0806 65.9371C64.0403 65.7838 63.9515 65.6475 63.8274 65.5487C62.8738 64.6527 60.205 64.5567 58.9058 64.5567C57.6066 64.5567 54.9314 64.6591 53.9842 65.5487C53.9012 65.6128 53.8353 65.6964 53.7922 65.7919C53.3058 66.6687 54.2402 74.3551 54.3554 74.5215C53.798 74.6325 53.2486 74.78 52.7106 74.9631V73.9391C52.6722 71.7055 45.5298 70.4639 45.2866 69.1903C45.2034 68.7551 45.069 67.7823 44.9154 66.6303C44.0514 60.3071 44.1794 60.5503 44.0386 60.5503C44.0148 60.5503 43.992 60.5598 43.9752 60.5766C43.9584 60.5934 43.949 60.6162 43.949 60.6399C43.949 60.8127 44.6402 67.7759 44.8898 69.2543C45.1394 70.7327 52.2306 72.1663 52.2626 73.9391C52.2626 75.3215 51.9554 78.7519 50.7586 79.2447C50.0354 79.5519 44.4418 79.8335 39.981 78.2655C40.077 77.0239 41.8562 54.7967 40.9986 53.8111C40.6722 53.4335 36.8386 52.4735 36.3522 52.3519C38.2722 47.9999 39.693 44.4159 53.0434 42.3231C53.4142 43.5658 53.8675 44.7824 54.4002 45.9647C55.757 48.8639 58.0546 51.9935 61.2354 51.7247C64.8898 51.4111 65.4786 47.4495 64.8962 43.8335C64.8578 43.5775 64.8194 43.4111 64.7874 43.2639C66.5434 43.4396 68.2888 43.7088 70.0162 44.0703C73.0306 44.7103 76.7362 45.9263 78.8034 48.2175C81.037 50.6751 82.989 54.4703 84.3586 57.5039C86.3298 61.8687 86.317 62.9951 88.013 65.5103C86.8203 69.2734 85.8206 73.0949 85.0178 76.9599C84.7618 78.1567 84.3778 79.9807 84.013 81.6383C83.4818 84.1983 83.1618 85.8175 83.1938 85.4783C83.1362 85.8239 83.1938 85.8111 83.1938 85.8943C81.1073 84.9637 79.0941 83.8769 77.1714 82.6431C76.4994 82.1951 73.069 79.9999 73.7474 79.5071V79.5199ZM64.0002 70.2655C64.0002 69.9327 64.0386 69.6255 64.0514 69.3055C65.2098 68.8383 66.2402 68.9087 66.5538 70.1183C67.1938 72.3135 66.1826 75.2383 63.6034 75.2383C63.6034 74.9311 63.7122 74.0543 63.725 73.9583C66.669 74.3551 66.6498 68.9663 64.0002 70.2655ZM63.7506 73.6831C63.8402 72.6719 63.917 71.6031 63.981 70.5983C64.2874 70.5036 64.6153 70.5036 64.9218 70.5983C65.6834 70.8735 65.5618 73.5167 63.7186 73.6831H63.7506ZM84.685 87.8847C82.2223 87.0791 79.8398 86.0464 77.5682 84.7999C76.9282 84.4607 73.613 82.6559 73.389 81.9583C73.1954 81.3355 73.1755 80.6716 73.3314 80.0383C74.189 81.7087 79.629 84.5183 81.3762 85.3439C82.1761 85.7214 83.0016 86.0422 83.8466 86.3039C86.8034 87.3599 99.4882 85.6639 102.605 85.2799C102.643 85.4143 102.912 86.4447 103.015 86.8159C100.301 87.1295 87.2322 88.5567 84.653 87.8847H84.685ZM113.28 103.981C112.346 104.774 106.739 105.44 104.096 104.621C103.136 104.32 102.944 104.013 102.714 103.04C102.504 101.984 102.371 100.915 102.317 99.8399C103.629 100.646 106.035 100.851 107.578 100.896C109.901 100.947 112.186 100.896 114.055 99.8399C114.016 100.518 113.799 103.539 113.28 103.981ZM114.074 99.5903C112.811 100.13 111.453 100.411 110.08 100.416C108.25 100.506 103.962 100.493 102.304 99.6095C102.234 98.4063 102.189 97.1199 102.17 95.9231C102.81 96.6911 106.221 97.0367 107.584 97.0815C110.016 97.1327 112.275 97.0815 114.221 95.9295C114.221 95.8655 114.202 97.3823 114.08 99.5903H114.074ZM114.221 95.7055C111.021 97.3183 103.079 96.5887 102.163 95.7055V91.7695C104.199 92.4927 112.243 92.4415 114.259 91.7695C114.247 92.5055 114.253 94.0031 114.227 95.7055H114.221ZM112.941 91.3983C112.964 91.4047 112.988 91.4024 113.01 91.3917C113.031 91.3811 113.048 91.3629 113.056 91.3407C113.056 91.3407 113.056 91.2255 113.095 91.0207C113.507 91.0774 113.914 91.1695 114.311 91.2959C112.909 91.9359 104.474 91.9935 102.368 91.3727C102.354 91.3683 102.341 91.3593 102.332 91.3472C102.324 91.3351 102.319 91.3205 102.319 91.3055C102.319 91.2905 102.324 91.2759 102.332 91.2638C102.341 91.2517 102.354 91.2428 102.368 91.2383C102.955 91.0789 103.555 90.9718 104.16 90.9183C104.203 91.0963 104.267 91.2684 104.352 91.4303C104.403 91.4815 104.487 91.4879 104.48 91.3599C104.474 91.2319 102.375 82.9439 102.055 81.1199C102.382 81.2291 102.731 81.2564 103.071 81.1995C103.411 81.1426 103.733 81.0032 104.007 80.7935C104.711 82.7647 106.957 91.6351 107.091 91.6351C107.116 91.6335 107.139 91.6227 107.155 91.6048C107.172 91.587 107.181 91.5635 107.181 91.5391L106.995 90.6751H107.879C107.879 90.7967 107.949 91.4175 107.955 91.4623C107.962 91.5071 108.147 91.6159 108.135 91.3791C108.135 90.8031 107.597 81.2607 107.584 81.0879C107.676 81.0435 107.773 81.0092 107.872 80.9855C107.943 81.3311 110.195 90.4575 110.368 91.1679C110.368 91.2319 110.368 91.3407 110.49 91.3151C110.611 91.2895 110.56 91.1743 110.49 90.7583L111.469 90.8287V90.9375C111.469 91.0399 111.629 91.0143 111.648 90.9375C111.648 91.0079 112.839 78.7263 112.928 77.7471C113.097 77.875 113.291 77.9656 113.497 78.013C113.703 78.0605 113.917 78.0636 114.125 78.0223C114.112 78.1183 112.8 91.3535 112.935 91.3983H112.941ZM107.181 78.6751C107.105 78.0595 106.836 77.4838 106.413 77.0303C107.29 77.2927 107.475 77.4847 107.693 78.0863C107.866 78.5656 107.912 79.0815 107.827 79.5839C107.741 79.9002 107.741 80.234 107.827 80.5503C107.723 80.5744 107.62 80.6065 107.52 80.6463C107.123 79.5135 106.24 79.5263 106.24 78.3871C106.239 77.9753 106.179 77.5658 106.061 77.1711C106.371 77.7328 106.711 78.2776 107.079 78.8031C107.143 78.8863 107.264 78.7647 107.187 78.6751H107.181ZM107.501 86.7519C107.533 87.0655 107.783 89.7855 107.847 90.4767H106.931C106.739 89.6127 106.451 88.3327 106.125 86.9631L107.501 86.7519ZM107.463 86.2591L106.003 86.4511C105.875 85.9199 105.741 85.3823 105.607 84.8511C106.195 84.7679 106.771 84.6783 107.328 84.5887C107.354 84.8639 107.443 85.9775 107.469 86.2591H107.463ZM109.453 85.9647C109.351 85.4783 109.101 84.3775 109.082 84.3135C109.639 84.2175 111.533 83.8911 111.923 83.8143C111.923 84.0895 111.815 85.2543 111.789 85.5487C111.168 85.6831 110.375 85.8239 109.44 85.9647H109.453ZM111.763 85.9647C111.648 87.6223 111.469 90.3935 111.463 90.5471C111.13 90.5471 110.778 90.5343 110.407 90.5087C110.253 89.7343 109.594 86.6303 109.549 86.4191C110.413 86.2463 111.155 86.0927 111.77 85.9455L111.763 85.9647ZM112.986 77.2159C113.064 76.4049 113.19 75.5992 113.363 74.8031C113.534 74.7519 113.714 74.7397 113.89 74.7674C114.067 74.795 114.234 74.8619 114.381 74.9631C114.343 75.7674 114.257 76.5688 114.125 77.3631C114.067 77.5871 114.055 77.6447 113.907 77.6639C113.619 77.6831 113.037 77.4399 112.992 77.1967L112.986 77.2159ZM113.824 84.8447C113.882 84.3711 113.939 83.8911 113.991 83.4111C114.37 83.3316 114.742 83.2225 115.104 83.0847C114.902 83.7991 114.45 84.417 113.831 84.8255L113.824 84.8447ZM114.893 82.5535C114.623 82.661 114.345 82.7466 114.061 82.8095C114.176 81.7343 114.855 75.4751 114.855 75.0335C114.855 74.3935 113.715 74.1567 113.127 74.3935C112.928 74.4831 112.871 74.8607 112.813 75.1935C112.493 76.9791 112.115 81.4335 111.968 83.2447L108.967 83.7951C108.218 80.5311 108.282 80.7103 108.199 80.6271C108.141 80.5727 108.066 80.5408 107.987 80.5375C107.928 80.2526 107.944 79.9572 108.032 79.6799C108.165 79.1264 108.147 78.5476 107.981 78.0031C107.896 77.6072 107.668 77.2565 107.341 77.0175C106.82 76.7415 106.258 76.5513 105.677 76.4543C105.646 76.4461 105.614 76.4453 105.584 76.4519C105.553 76.4586 105.524 76.4725 105.499 76.4925C105.475 76.5125 105.456 76.5381 105.443 76.5671C105.431 76.5961 105.425 76.6276 105.427 76.6591C105.441 76.7135 105.458 76.7669 105.479 76.8191C105.978 78.0095 105.632 78.5535 105.978 79.2639C106.323 79.9743 106.906 80.0831 107.117 80.9023C107.117 80.9663 107.296 83.9231 107.303 84.1023L105.491 84.3903C105.363 83.9039 104.487 80.4415 104.141 80.1023C103.501 79.4623 101.671 80.1791 101.581 80.7423C101.523 81.0623 102.4 84.4927 102.483 84.8191C99.1874 85.2991 95.693 85.7343 92.6018 86.0223C91.2514 86.1439 83.0018 86.8991 83.4626 85.5487C84.1026 82.5919 85.3826 77.1647 85.6386 76.0255V75.9359C85.6386 75.8399 85.6834 75.7439 85.6386 76.0255C85.6386 75.9295 85.677 75.8719 85.6898 75.8399L87.2898 69.6511C87.501 68.8895 88.9538 63.7119 89.6898 63.3471C91.3218 62.5407 118.144 59.0719 120.41 60.5887C120.794 62.2335 116.077 81.7727 114.899 82.5599L114.893 82.5535Z" fill="black"/>
<path d="M63.0467 31.0783V30.5855C63.0467 30.5057 63.015 30.4292 62.9585 30.3728C62.9021 30.3164 62.8256 30.2847 62.7459 30.2847C62.6655 30.2847 62.5883 30.3162 62.5309 30.3724C62.4734 30.4286 62.4403 30.5051 62.4387 30.5855V31.1615C62.4528 31.2376 62.4958 31.3053 62.5586 31.3506C62.6215 31.3958 62.6993 31.4151 62.776 31.4043C62.8527 31.3936 62.9223 31.3538 62.9703 31.293C63.0183 31.2323 63.0411 31.1554 63.0339 31.0783H63.0467ZM103.949 70.4639C103.763 70.2847 103.501 70.0735 103.258 70.1503C102.855 70.2783 102.451 71.3023 102.279 71.7247C101.793 72.9852 101.408 74.282 101.127 75.6031C101.389 76.2815 105.818 75.3919 106.419 75.0975C106.611 75.0079 106.586 74.7775 106.522 74.5727C105.889 73.0748 105.02 71.6878 103.949 70.4639ZM101.299 75.5199C101.415 74.9887 102.874 70.9183 103.373 70.5471C104.147 70.9887 105.703 73.7023 106.119 74.7263C105.543 74.9567 101.632 75.9487 101.299 75.5199ZM49.1907 89.0943C49.1267 89.1391 47.7315 90.0223 47.6675 90.0863C47.6523 90.0926 47.6393 90.1033 47.6302 90.117C47.6211 90.1306 47.6163 90.1467 47.6163 90.1631C47.6163 90.1795 47.6211 90.1956 47.6302 90.2093C47.6393 90.2229 47.6523 90.2336 47.6675 90.2399C48.0259 90.3423 49.2227 90.4767 49.5875 90.5151C58.3427 88.3199 58.4003 88.3199 58.2915 88.3199C58.3503 88.3119 58.4038 88.2815 58.4408 88.235C58.4778 88.1884 58.4953 88.1295 58.4899 88.0703C58.4899 87.9615 58.3171 87.2063 58.2659 86.9759L49.1907 89.0943ZM66.1507 28.4031C66.3299 28.4031 66.6819 28.4863 66.7523 28.4927C67.1407 28.533 67.5257 28.6014 67.9043 28.6975L68.4803 28.7999C68.5022 28.8053 68.5253 28.8029 68.5456 28.793C68.5659 28.7831 68.582 28.7664 68.5912 28.7457C68.6004 28.7251 68.602 28.7019 68.5957 28.6802C68.5895 28.6585 68.5758 28.6397 68.5571 28.6271C68.2231 28.3442 67.8181 28.1582 67.3859 28.0895C66.9579 27.9977 66.5122 28.0356 66.1059 28.1983C66.0924 28.2012 66.0797 28.2068 66.0684 28.2147C66.0571 28.2225 66.0474 28.2325 66.04 28.2441C66.0326 28.2557 66.0275 28.2686 66.0251 28.2822C66.0226 28.2957 66.0229 28.3096 66.0259 28.3231C66.0288 28.3365 66.0344 28.3493 66.0422 28.3606C66.0501 28.3719 66.0601 28.3815 66.0717 28.3889C66.0833 28.3964 66.0962 28.4014 66.1098 28.4039C66.1233 28.4063 66.1372 28.406 66.1507 28.4031ZM61.0819 28.9663C61.2547 28.9279 61.6259 28.8703 61.7219 28.8575C62.1097 28.7728 62.5033 28.7172 62.8995 28.6911L63.5395 28.6207C63.5649 28.6207 63.5893 28.6106 63.6073 28.5926C63.6253 28.5746 63.6355 28.5501 63.6355 28.5247C63.6355 28.4992 63.6253 28.4748 63.6073 28.4568C63.5893 28.4388 63.5649 28.4287 63.5395 28.4287C63.1269 28.2538 62.6743 28.1953 62.2309 28.2596C61.7874 28.324 61.3701 28.5086 61.0243 28.7935C61.009 28.7935 60.994 28.7971 60.9805 28.804C60.967 28.811 60.9553 28.821 60.9464 28.8334C60.9375 28.8457 60.9316 28.86 60.9293 28.875C60.9271 28.89 60.9284 28.9054 60.9332 28.9198C60.938 28.9343 60.9462 28.9474 60.957 28.958C60.9679 28.9687 60.9811 28.9766 60.9956 28.9811C61.0101 28.9857 61.0255 28.9867 61.0405 28.9841C61.0555 28.9815 61.0697 28.9754 61.0819 28.9663ZM67.4819 30.0799C67.4021 30.0799 67.3256 30.1116 67.2692 30.168C67.2127 30.2244 67.1811 30.3009 67.1811 30.3807V30.9567C67.1921 31.0365 67.2344 31.1086 67.2986 31.1572C67.3628 31.2058 67.4437 31.2269 67.5234 31.2159C67.6032 31.2049 67.6754 31.1626 67.724 31.0984C67.7726 31.0342 67.7937 30.9533 67.7827 30.8735V30.3807C67.7835 30.3409 67.7763 30.3014 67.7615 30.2646C67.7467 30.2277 67.7246 30.1942 67.6965 30.166C67.6684 30.1379 67.6349 30.1158 67.598 30.101C67.5611 30.0862 67.5216 30.079 67.4819 30.0799ZM17.8114 85.6447C18.701 85.9327 20.7746 86.7071 21.7283 86.5919C21.8435 86.5919 21.9714 86.4767 22.0546 86.2719C22.6946 84.8319 22.2339 77.5103 22.0034 76.0959C21.8435 75.0783 18.1634 73.8175 17.2738 74.5407C16.6978 75.0079 16.9858 80.4287 17.0498 81.1839C17.2162 83.0079 17.0434 85.3951 17.8114 85.6447ZM17.5618 74.8799C18.253 74.3807 21.4594 75.5647 21.5618 76.1599C21.7218 77.1647 22.317 85.6127 21.677 86.2719C20.8514 86.3935 18.6626 85.7215 17.837 85.4655C17.2546 85.2735 17.453 82.7263 17.357 81.1519C17.3122 80.0895 17.2418 75.8719 17.5618 74.8799ZM63.0403 34.9119C63.0243 34.904 63.0068 34.8999 62.9891 34.8999C62.9713 34.8999 62.9538 34.904 62.9379 34.9119C62.7779 34.9695 62.6819 35.1487 62.6563 35.4111C62.6356 36.0891 62.8631 36.7514 63.2963 37.2735C63.3978 37.4121 63.5261 37.5288 63.6737 37.6167C63.8213 37.7047 63.9851 37.762 64.1553 37.7853C64.3255 37.8085 64.4987 37.7973 64.6644 37.7523C64.8302 37.7073 64.9852 37.6293 65.1203 37.5231C65.506 37.2056 65.8091 36.7993 66.0035 36.3391C66.021 36.3032 66.0301 36.2638 66.0301 36.2239C66.0301 36.184 66.021 36.1446 66.0035 36.1087C65.805 35.8015 65.3315 36.2367 63.0403 34.9119ZM62.9827 35.1295C63.6779 35.7216 64.4919 36.158 65.3699 36.4095C64.0003 38.7391 62.6243 35.5967 62.9827 35.1295ZM64.5507 33.6255C64.9603 33.7023 66.0931 33.5615 66.3363 33.1455C66.4579 32.9471 66.3363 32.8831 66.0675 32.0639C65.8252 31.3522 65.541 30.6555 65.2163 29.9775C65.1011 29.7983 64.9539 29.9775 65.0371 30.0863C65.2149 31.0675 65.4981 32.0267 65.8819 32.9471C65.4187 33.1638 64.9444 33.3561 64.4611 33.5231C64.4602 33.5357 64.4618 33.5484 64.4659 33.5603C64.4699 33.5723 64.4763 33.5834 64.4846 33.5929C64.4929 33.6024 64.503 33.6102 64.5144 33.6158C64.5257 33.6214 64.538 33.6247 64.5507 33.6255ZM88.1539 100.179C90.5539 98.6559 88.6851 97.2543 87.0979 97.9199C86.7075 97.2095 86.6179 97.1519 85.8178 97.1903C81.6643 97.4015 62.9059 101.741 62.7267 101.811C61.7795 102.201 64.1859 107.853 65.1395 108.595C65.3571 108.761 65.2867 108.794 67.6355 108.333C67.7891 109.728 68.397 112.173 69.8179 112.25C70.48 112.128 71.1248 111.926 71.7379 111.648C72.9247 112.829 74.1883 113.93 75.5203 114.944C76.9923 115.93 86.4003 104.941 87.8083 103.661C88.2114 103.526 88.5699 103.437 88.5251 102.438C89.7411 102.214 90.6818 101.465 90.0354 100.39C89.6003 99.7375 88.8451 99.8399 88.1539 100.179ZM88.3779 98.4383C88.6403 98.5343 88.7747 98.6367 88.6915 98.8991C88.5191 99.3002 88.2664 99.6617 87.9491 99.9615C87.7793 99.441 87.5806 98.9303 87.3539 98.4319C87.6852 98.3125 88.0481 98.3148 88.3779 98.4383ZM81.5683 98.2271C81.8051 99.3471 81.965 99.9551 82.2658 100.985L77.8307 101.824C77.5755 100.898 77.2787 99.9839 76.9411 99.0847C77.7795 98.9247 80.8835 98.3423 81.5683 98.2271ZM75.0083 106.771C75.243 107.575 75.5899 108.342 76.0387 109.049C74.8099 109.645 73.6515 110.189 72.6659 110.637C72.3122 109.563 71.8149 108.543 71.1875 107.603L75.0083 106.771ZM73.1971 106.771C72.9807 105.659 72.7073 104.559 72.3778 103.475L77.4979 102.368C77.7771 103.452 78.1146 104.52 78.5091 105.568C76.7491 105.939 74.9123 106.355 73.1971 106.745V106.771ZM75.3283 106.803C75.2579 106.701 74.8227 106.854 79.5331 105.773C79.6163 106.248 79.7924 106.703 80.0515 107.11L76.3011 108.947C76.0784 108.182 75.751 107.452 75.3283 106.777V106.803ZM79.8083 105.702C82.2402 105.139 84.4738 104.602 86.0163 104.192L80.3651 106.95C80.2604 106.496 80.0739 106.064 79.8147 105.677L79.8083 105.702ZM78.7267 105.504C78.5213 104.412 78.2607 103.331 77.9459 102.265L82.317 101.19C82.317 101.222 82.6115 102.208 82.7458 102.63C82.8099 102.822 83.3539 104.371 83.3858 104.397C82.0611 104.691 78.8291 105.453 78.7203 105.478L78.7267 105.504ZM76.7491 99.1487C76.9603 100.313 77.1587 101.069 77.3891 101.939L72.2691 103.065C71.9683 102.048 71.7635 101.382 71.3219 100.23C72.3203 99.9999 75.9811 99.2703 76.7555 99.1231L76.7491 99.1487ZM71.1107 100.269C71.3603 101.549 71.5459 102.221 71.8147 103.168C71.3859 103.264 67.8851 104.141 67.8851 104.141C67.7571 104.141 67.8083 104.339 67.9363 104.314C67.9363 104.314 71.7315 103.61 71.9235 103.565C71.9235 103.565 72.1987 104.666 72.9859 106.822L68.8578 107.744C68.2674 105.511 67.5254 103.322 66.6371 101.19L71.1107 100.269ZM65.3186 108.378C64.3459 107.648 62.1187 102.272 62.7907 101.978C62.7907 101.978 64.2562 101.657 66.4579 101.197C67.0066 103.44 67.7386 105.634 68.6467 107.757C65.2803 108.512 65.4275 108.435 65.3251 108.352L65.3186 108.378ZM69.7987 111.782C68.7171 111.782 68.0707 109.446 67.8787 108.384C67.8787 108.262 67.5395 108.384 70.8867 107.686C71.0531 107.654 70.7907 107.61 71.5907 109.274C71.8201 109.796 72.1032 110.294 72.4355 110.758C71.5936 111.161 70.7203 111.495 69.8243 111.757L69.7987 111.782ZM75.7635 114.522C74.4623 113.61 73.2124 112.627 72.0195 111.577C73.1203 111.123 74.3683 110.541 75.4435 110.029C76.2852 111.007 77.239 111.884 78.2851 112.64C77.8499 113.011 76.3715 114.381 75.7891 114.496L75.7635 114.522ZM78.4707 112.448C77.6254 111.504 76.6789 110.657 75.6483 109.92L79.6675 107.942C80.2275 108.517 80.8756 108.999 81.5875 109.369C80.5809 110.411 79.5503 111.429 78.4963 112.422L78.4707 112.448ZM81.8051 109.165C81.2713 108.62 80.6638 108.152 80.0003 107.776C82.7523 106.387 84.3331 105.542 86.8995 104.122C85.7603 105.126 82.8675 108.083 81.8307 109.139L81.8051 109.165ZM87.9107 103.149C87.6355 103.347 83.8659 104.269 83.5395 104.345C83.1319 102.252 82.5342 100.199 81.7539 98.2143C82.9955 98.0031 85.453 97.5743 86.3683 97.6767C86.492 97.8223 86.5993 97.9811 86.6883 98.1503C86.2515 98.4471 85.89 98.8415 85.6323 99.3023C85.5683 99.4623 85.7346 99.5455 85.8178 99.4687C86.1381 99.13 86.5122 98.8467 86.9251 98.6303C87.2154 99.2303 87.4677 99.8481 87.6803 100.48C87.1116 100.869 86.5991 101.334 86.1571 101.862C86.0739 101.965 86.0994 102.042 86.1571 102.074C86.3107 102.163 86.3235 101.933 87.8339 101.037C87.9865 101.555 88.0725 102.09 88.0899 102.63C88.0579 102.745 88.0387 103.04 87.9362 103.123L87.9107 103.149ZM89.5043 101.434C89.2184 101.761 88.8586 102.015 88.4547 102.176C88.3957 101.72 88.3037 101.268 88.1795 100.825C88.5955 100.614 89.2419 100.345 89.4594 100.736C89.5414 100.826 89.5924 100.939 89.6051 101.06C89.6177 101.181 89.5914 101.303 89.5299 101.408L89.5043 101.434Z" fill="black"/>
</svg>
