<svg width="128" height="128" viewBox="0 0 128 128" fill="none" xmlns="http://www.w3.org/2000/svg">
<path d="M124.742 74.7968C122.214 75.3088 117.299 75.0464 115.84 74.8544C115.795 74.3424 115.872 69.4336 115.808 68.3264C115.808 68.2688 115.712 68.2368 115.712 68.2368C112.091 67.9821 108.46 67.9095 104.832 68.0192C104.832 63.7184 104.832 59.3664 104.736 55.0208C104.736 55.0049 104.733 54.9891 104.726 54.9746C104.72 54.9602 104.71 54.9475 104.697 54.9375C104.685 54.9276 104.67 54.9207 104.655 54.9174C104.639 54.914 104.623 54.9144 104.608 54.9184C97.9454 54.688 93.0878 54.784 93.0494 54.8544C92.979 55.3152 92.8638 59.6288 92.9022 60.6144C90.9469 58.4647 88.5845 56.7245 85.9518 55.4944C85.3276 55.2937 84.7461 54.979 84.2366 54.5664C84.0915 54.4367 83.9815 54.2725 83.9166 54.0891C83.8518 53.9056 83.8341 53.7088 83.8654 53.5168C84.4222 51.392 87.7438 50.3168 88.7166 49.5808C89.3168 49.18 89.8317 48.6642 90.2315 48.0634C90.6314 47.4625 90.9083 46.7884 91.0462 46.08C91.0842 45.3962 90.8903 44.7197 90.4958 44.16C90.0798 43.52 90.739 43.3984 91.1934 43.0016C90.7727 43.0082 90.3582 43.1042 89.9774 43.2832C90.1235 43.0513 90.2068 42.7854 90.2191 42.5117C90.2315 42.2379 90.1724 41.9656 90.0478 41.7216C90.0798 41.9264 90.0615 42.1359 89.9947 42.3321C89.9278 42.5283 89.8142 42.7053 89.6638 42.848C89.699 42.328 89.5418 41.8132 89.2222 41.4016C87.5774 39.2576 84.1022 38.7968 81.587 38.656C81.651 33.536 81.587 20.1856 81.587 18.7008C87.347 18.9568 93.107 19.2384 98.9182 19.4688C98.5086 28.4864 98.4062 37.5616 98.6686 46.624C98.6694 46.6395 98.6739 46.6546 98.6818 46.668C98.6897 46.6814 98.7007 46.6927 98.7139 46.7009C98.7272 46.709 98.7422 46.7139 98.7577 46.715C98.7732 46.7161 98.7887 46.7134 98.803 46.7072C101.709 46.816 108.921 47.0656 109.625 47.0848C109.92 51.0592 110.003 55.104 109.945 59.1424C109.947 59.1718 109.96 59.1995 109.981 59.2197C110.003 59.24 110.031 59.2512 110.061 59.2512C112.956 59.4369 115.861 59.4497 118.758 59.2896C118.854 59.2896 118.861 59.1296 118.758 59.1296C117.293 59.1296 111.571 59.1296 110.176 59.0336C110.281 55.0092 110.17 50.982 109.843 46.9696C107.213 46.5472 99.6734 46.5536 98.8606 46.5344C98.6814 37.504 98.7262 28.4224 99.1422 19.36C99.1422 19.3305 99.131 19.3021 99.1107 19.2807C99.0905 19.2593 99.0628 19.2464 99.0334 19.2448C98.9694 19.2448 81.5038 18.5152 81.4398 18.5472C81.4166 18.5518 81.396 18.5648 81.3818 18.5837C81.3677 18.6026 81.361 18.626 81.363 18.6496V38.6624C80.019 38.8288 80.531 40.0128 80.1918 40.672C80.0446 40.9472 79.923 40.832 79.6862 40.992C79.0462 41.408 79.1038 44.192 79.1294 44.928C78.4894 46.5856 77.9902 48.9792 79.1934 50.2976C79.4046 50.528 79.7758 50.72 79.891 51.0208C79.9123 51.1228 79.9114 51.2282 79.8882 51.3299C79.865 51.4315 79.8201 51.5269 79.7566 51.6096C79.5122 52.0619 79.1374 52.4302 78.6808 52.6665C78.2242 52.9028 77.707 52.9961 77.1966 52.9344C73.1774 52.6144 71.4942 53.2352 70.6174 53.4848C67.9823 54.6794 65.4987 56.1833 63.219 57.9648C63.1118 58.0885 63.0403 58.239 63.0122 58.4002C62.984 58.5614 63.0002 58.7272 63.059 58.88C62.419 59.1424 61.779 59.52 61.1774 59.8208C60.7998 58.6048 59.0846 52.736 58.9886 52.48C59.377 52.2371 59.707 51.9115 59.955 51.5264C60.595 51.5264 60.7358 51.5648 60.7806 51.4688C61.2734 50.3744 61.5934 49.2032 62.1246 48.1216C62.7134 48.1216 68.7614 47.8144 71.187 47.6032C71.187 47.6032 74.6046 48.2432 74.7774 48.3008C74.7677 48.4345 74.7885 48.5686 74.8384 48.693C74.8882 48.8175 74.9657 48.9289 75.065 49.019C75.1643 49.109 75.2828 49.1753 75.4115 49.2127C75.5401 49.2502 75.6757 49.2579 75.8078 49.2352C76.5246 49.152 76.947 48.5056 77.235 47.9168C77.5839 47.2485 77.7703 46.5074 77.779 45.7536C77.779 44.2816 76.9982 43.7824 76.3966 43.8336C76.2386 43.8265 76.0828 43.8733 75.9549 43.9663C75.827 44.0593 75.7345 44.1931 75.6926 44.3456C75.2574 44.2688 72.5374 43.744 72.4926 43.7056C70.9822 42.1184 67.0654 38.6752 67.0654 38.6624C66.963 35.0336 67.0974 25.3376 67.1358 24.2304C67.1342 24.2003 67.1216 24.1719 67.1003 24.1506C67.079 24.1293 67.0506 24.1167 67.0206 24.1152C59.667 24.256 57.8558 23.8784 57.8622 24.2112C57.9454 26.0608 57.9326 31.616 57.9006 31.5968C53.1582 28.4544 45.5678 21.2736 45.6958 21.3568C45.619 21.1072 45.2542 20.1088 45.1454 19.8592C45.1454 19.8208 41.5422 18.72 40.7806 18.5792C40.4322 18.575 40.0893 18.6657 39.7886 18.8416C38.837 19.4835 38.0268 20.3133 37.4078 21.28C31.7374 28.8832 29.6062 37.632 30.7838 45.44C30.9061 46.537 31.1729 47.6129 31.5774 48.64C31.7391 48.9654 31.9795 49.2453 32.2768 49.4543C32.574 49.6633 32.9188 49.7948 33.2798 49.8368C33.9198 49.9776 37.0238 50.3168 37.7598 50.1376C38.2015 49.8747 38.6287 49.5885 39.0398 49.28C40.9598 49.3184 46.3038 49.0368 47.0718 48.9984C46.8862 52.5824 46.9118 61.76 46.9502 62.752C43.9358 62.688 36.2686 62.688 35.4302 62.6624C35.4302 60.9344 35.571 59.0464 35.4942 57.2928C35.3918 57.1328 35.1998 57.1264 35.0334 57.1136C33.5934 57.0304 27.5198 56.8384 26.1438 56.96C25.8686 56.96 26.2014 56.8768 26.1438 64.3328H15.5518C15.5212 64.3328 15.4919 64.3449 15.4703 64.3665C15.4487 64.3881 15.4366 64.4174 15.4366 64.448C15.4366 69.2672 15.347 74.1312 15.4366 78.9888H6.22059C6.19852 78.9888 6.17736 78.9975 6.16176 79.0131C6.14616 79.0287 6.13739 79.0499 6.13739 79.072C6.13739 79.094 6.14616 79.1152 6.16176 79.1308C6.17736 79.1464 6.19852 79.1552 6.22059 79.1552C12.467 79.232 18.7454 79.296 25.0174 79.2704C25.139 79.2704 25.1774 79.712 25.1454 71.1616C28.9854 71.1616 32.8254 71.2576 36.7102 71.1616C36.7102 74.0416 36.627 76.9216 36.6654 79.8016C35.5314 79.2723 34.2427 79.1766 33.043 79.5328C30.2526 80.2688 30.7966 82.3616 30.7198 82.6752C30.579 83.1104 30.1694 82.9952 29.7022 83.1168C29.171 83.2623 28.6885 83.5474 28.3047 83.9424C27.9209 84.3374 27.6499 84.828 27.5198 85.3632C26.2398 85.3056 25.4334 85.3632 24.8126 86.4704C24.4727 86.0831 24.0498 85.7777 23.5752 85.577C23.1007 85.3763 22.587 85.2855 22.0724 85.3113C21.5578 85.3372 21.0558 85.4791 20.6038 85.7263C20.1518 85.9736 19.7615 86.3198 19.4622 86.7392C18.3358 86.368 17.3374 87.3792 16.851 88.3968C16.0318 90.144 17.395 91.1104 17.491 91.3664L13.907 91.3216C13.8174 91.3216 13.8174 91.456 13.907 91.4624C15.1294 91.4624 26.6558 91.904 54.227 91.5072C51.1806 98.176 50.7838 109.427 50.6046 116.723C50.9628 116.881 51.3331 117.009 51.7118 117.107C51.7118 117.6 51.7502 118.112 51.7502 118.758C51.1806 119.085 49.395 120.147 49.299 120.269C49.203 120.39 49.1262 120.845 49.4142 120.909C50.8126 120.946 52.212 120.908 53.6062 120.794C53.5235 119.619 53.6758 118.44 54.0542 117.325C54.8496 117.338 55.645 117.297 56.435 117.203C60.499 108.115 61.043 103.443 62.4318 100.32C63.8078 99.2896 67.2062 95.6352 68.7998 94.176C69.0487 91.756 69.083 89.3188 68.9022 86.8928C68.9022 86.784 69.0366 86.688 69.139 86.8928C69.3438 87.3216 69.5806 88.8768 69.3566 93.088C69.267 94.8288 68.659 98.3488 70.1758 103.014C71.5291 106.679 73.6426 110.016 76.3774 112.806L81.6702 118.144C82.0281 118.079 82.3809 117.989 82.7262 117.875C82.7582 117.914 83.731 119.155 83.7822 119.155C83.7754 119.512 83.6646 119.859 83.4633 120.153C83.2621 120.448 82.9792 120.677 82.6494 120.813C82.4574 120.89 82.5534 121.453 82.7006 121.453C83.3827 121.491 84.0665 121.491 84.7486 121.453C85.2856 120.846 85.7816 120.205 86.2334 119.533C86.2334 119.43 84.9534 117.747 84.723 116.87C84.9775 116.698 85.2192 116.508 85.4462 116.301C83.0771 110.852 80.9879 105.285 79.187 99.6224C80.3582 97.5808 82.451 93.6256 82.7454 91.4112C96.7486 92.0512 108.595 92.864 122.259 91.4944C122.361 91.4944 122.361 91.328 122.259 91.3344L120.64 91.4752C120.273 90.495 119.694 89.6078 118.945 88.8766C118.196 88.1454 117.296 87.5883 116.307 87.2448C114.726 86.7264 114.438 87.328 113.965 86.6816C113.347 85.7361 112.434 85.0213 111.368 84.6486C110.302 84.2759 109.142 84.2661 108.07 84.6208C108.301 82.1056 106.489 79.7504 103.667 80.0704C103.979 79.0806 103.934 78.0127 103.54 77.0526C103.146 76.0925 102.428 75.3011 101.51 74.816C101.744 74.076 101.771 73.2864 101.59 72.532C101.408 71.7776 101.024 71.087 100.48 70.5344C100.19 70.1495 99.7897 69.8619 99.3324 69.7099C98.8752 69.5578 98.3825 69.5485 97.9198 69.6832C97.2547 68.4705 96.4374 67.3478 95.4878 66.3424C95.6993 66.0687 95.8938 65.7823 96.0702 65.4848C95.2786 63.7552 94.2536 62.1423 93.0238 60.6912C93.0238 60.6912 93.2158 55.392 93.2286 54.9312C96.1726 54.8672 103.705 55.104 104.525 55.0912C104.525 58.4704 104.557 67.1488 104.589 68.1088C104.59 68.1285 104.596 68.1477 104.606 68.1645C104.617 68.1814 104.631 68.1955 104.648 68.2056C104.665 68.2157 104.684 68.2215 104.704 68.2224C104.724 68.2234 104.743 68.2195 104.761 68.2112C110.073 68.0448 114.406 68.3648 115.609 68.384C115.609 69.4976 115.411 74.4832 115.609 74.9696C115.609 75.0272 117.913 75.5008 122.515 75.2704C123.014 75.2192 125.171 75.1616 124.742 74.7968ZM53.4462 118.701C52.9406 118.643 52.4309 118.63 51.923 118.662C51.923 118.598 51.8654 117.382 51.8462 117.139C52.5057 117.24 53.1701 117.306 53.8366 117.338C53.7598 117.542 53.459 118.675 53.4462 118.701ZM84.5374 117.011L85.2222 118.291C85.0174 118.406 84.3518 118.835 83.9422 119.078C83.9422 119.014 82.9246 117.798 82.899 117.798C83.462 117.573 84.0094 117.31 84.5374 117.011ZM77.3374 53.2672C77.5526 53.2609 77.7668 53.2352 77.9774 53.1904C78.343 53.163 78.6986 53.0574 79.0199 52.8808C79.3412 52.7041 79.6208 52.4605 79.8398 52.1664C81.363 49.9712 78.2078 51.1424 78.9118 46.9696C79.2639 45.2679 79.8977 43.6369 80.787 42.144C81.2806 42.773 81.8984 43.2937 82.602 43.6736C83.3056 44.0535 84.0799 44.2844 84.8766 44.352C85.4014 44.352 84.9214 45.5808 85.139 46.6368C85.299 47.3856 86.1246 46.8352 86.6046 47.2768C86.7521 47.4193 86.8558 47.601 86.9034 47.8005C86.951 48 86.9406 48.209 86.8733 48.4028C86.806 48.5966 86.6847 48.767 86.5237 48.8941C86.3627 49.0212 86.1687 49.0996 85.9646 49.12C85.6356 49.8894 85.3534 50.678 85.1198 51.4816C84.3362 52.0139 83.7918 52.8316 83.603 53.76C83.6551 54.0639 83.7778 54.3513 83.9612 54.5992C84.1446 54.8471 84.3836 55.0484 84.659 55.1872C83.7329 56.2005 82.471 56.844 81.107 56.9984C80.3648 57.1258 79.602 57.0506 78.899 56.7808C77.5806 56.1984 77.1006 54.6752 77.3374 53.2672ZM58.7134 52.4352C58.7646 52.7616 60.5886 58.7968 60.9726 60.064C61.2478 60.288 62.4574 59.2896 63.1038 59.104C63.4254 61.5848 64.4515 63.9214 66.0606 65.8368C62.8606 68.4864 60.5246 68.8256 60.1342 68.8384C59.7476 68.8558 59.3624 68.7806 59.0106 68.6192C58.6589 68.4578 58.3507 68.2148 58.1118 67.9104C57.1687 66.7703 56.5851 65.3759 56.435 63.904C55.859 60.2368 56.0382 56.3968 56.0958 52.6528C56.1866 52.6858 56.2853 52.6907 56.379 52.6667C56.4726 52.6427 56.5568 52.591 56.6206 52.5184C56.9534 53.0816 57.3758 52.9792 57.6062 52.6016C58.0926 53.3056 58.771 52.2944 58.931 51.4816C58.931 51.4816 59.4686 51.5264 59.731 51.5328C59.4814 52.0256 58.6942 52.3136 58.7134 52.4352ZM56.8958 50.4064C56.8958 50.3168 57.0878 50.208 57.1646 50.2016C57.2444 50.2041 57.3206 50.2352 57.3793 50.2893C57.4381 50.3433 57.4754 50.4167 57.4846 50.496C57.4846 50.5984 57.6382 50.6496 57.683 50.5536C57.7193 50.4828 57.7718 50.4215 57.8362 50.3748C57.9006 50.3281 57.9751 50.2973 58.0537 50.2848C58.1323 50.2723 58.2127 50.2786 58.2884 50.303C58.3641 50.3275 58.433 50.3695 58.4894 50.4256C59.2382 51.0656 58.2398 52.8896 57.8494 52.5952C57.7726 52.5376 57.6446 52.4992 57.6958 52.0512C57.6958 51.9424 57.5294 51.9616 57.491 52.0512C57.491 52.5568 57.2926 52.6912 57.139 52.6912C56.9854 52.6912 56.883 52.5568 56.8126 52.4544C56.7746 52.2966 56.7746 52.1321 56.8126 51.9744C56.8126 51.8464 56.6334 51.7888 56.6078 51.9232C56.5758 52.0863 56.5197 52.2437 56.4414 52.3904C56.4177 52.4199 56.3865 52.4426 56.3511 52.4559C56.3157 52.4693 56.2773 52.4729 56.24 52.4664C56.2028 52.4598 56.1679 52.4434 56.1391 52.4188C56.1104 52.3941 56.0888 52.3622 56.0766 52.3264C55.9436 51.7077 55.9656 51.0657 56.1406 50.4576C56.1615 50.3921 56.2011 50.3342 56.2546 50.2909C56.308 50.2477 56.373 50.2211 56.4414 50.2144C56.5374 50.2144 56.6718 50.3744 56.6718 50.3936C56.691 50.56 56.9022 50.56 56.8958 50.4064ZM60.5758 51.2704C60.115 51.2704 59.5582 51.2704 58.9566 51.3152C59.091 50.144 58.0798 49.8112 57.6254 50.2656C57.5848 50.1892 57.5255 50.1243 57.4531 50.077C57.3806 50.0297 57.2973 50.0015 57.2111 49.9952C57.1248 49.9888 57.0383 50.0043 56.9596 50.0404C56.881 50.0765 56.8128 50.132 56.7614 50.2016C56.7227 50.1559 56.6754 50.1185 56.622 50.0915C56.5687 50.0645 56.5105 50.0484 56.4508 50.0442C56.3912 50.0401 56.3313 50.0479 56.2747 50.0672C56.2182 50.0865 56.166 50.117 56.1214 50.1568C55.8718 50.3616 55.8526 50.7968 55.8142 51.2064H53.7022C53.5742 50.8352 52.8958 49.1392 52.7742 48.7104L61.8238 48.1536C61.6382 48.64 60.8382 50.7392 60.5758 51.2704ZM77.4398 46.6496C77.203 47.552 76.723 49.0496 75.5198 49.0112C75.3707 48.9839 75.2361 48.9046 75.14 48.7874C75.0439 48.6702 74.9925 48.5227 74.995 48.3712C75.1116 48.389 75.2303 48.389 75.347 48.3712C75.8655 47.9916 76.2626 47.4695 76.4898 46.8685C76.717 46.2674 76.7647 45.6132 76.627 44.9856C76.627 44.864 76.5054 44.48 76.4222 44.4672L75.7822 44.3648C76.5054 43.4496 77.9582 44.3968 77.4398 46.6496ZM58.0862 24.32C58.1566 24.32 64.019 24.3968 66.9118 24.384C66.707 29.0688 66.6622 33.8176 66.8606 38.5472C64.051 36.2176 61.0302 33.9712 58.067 31.7376C58.0734 31.68 58.1374 25.6 58.0862 24.32ZM32.2302 49.0752C31.5902 48.4032 31.411 47.392 31.2446 46.5152C29.8814 39.4752 31.379 32.064 34.8542 25.824C35.4046 24.8256 37.9518 20.5696 39.8718 19.104C40.6526 18.5024 41.6446 19.2896 42.0862 20.1088C42.8542 21.536 42.9694 27.8336 42.8286 29.888C41.6885 29.4643 40.4448 29.4062 39.2702 29.7216C33.2478 31.4496 33.7598 40.64 40.5502 40.6784C40.0894 41.9584 38.1694 46.6368 34.7902 49.1456C34.4261 49.4431 33.9671 49.5997 33.4971 49.5868C33.0271 49.5739 32.5774 49.3923 32.2302 49.0752ZM37.619 49.984C37.4974 49.9456 34.9438 49.8752 33.971 49.7792C34.8492 49.4711 35.6307 48.9368 36.2366 48.2304C40.243 44.3136 42.0542 37.9072 42.8222 32.3648C43.3259 28.5806 43.2547 24.742 42.611 20.9792C42.471 20.2384 42.1198 19.5538 41.5998 19.008C42.0542 19.1552 44.851 20.0192 45.011 20.032C47.027 25.1968 47.1614 31.0656 45.9198 36.4928C45.6638 37.5104 45.331 38.5216 45.0046 39.52C43.6414 43.8976 41.555 47.6224 37.619 49.984ZM39.2254 49.1328C46.7134 43.2576 48.1854 29.1136 45.811 21.6704C53.7982 30.0288 64.371 35.5968 72.3198 43.9104C72.371 43.9616 75.7118 44.5888 76.3838 44.6976C76.5571 45.3235 76.5427 45.9865 76.3425 46.6043C76.1422 47.2221 75.7649 47.7675 75.2574 48.1728C74.9758 48.0576 71.2382 47.392 71.187 47.3856C69.075 47.4048 40.1918 49.0816 39.2254 49.1328ZM25.011 70.9248C24.9922 70.9248 24.9737 70.9296 24.9574 70.9389C24.941 70.9481 24.9274 70.9615 24.9177 70.9776C24.908 70.9937 24.9027 71.012 24.9022 71.0308C24.9018 71.0496 24.9061 71.0682 24.915 71.0848C24.915 73.6768 24.8254 76.4032 24.915 79.0592C22.5598 79.0016 16.3326 78.9824 15.6798 78.9824C15.7566 75.2768 15.6798 65.5936 15.6798 64.5504H26.259C26.2774 64.5509 26.2957 64.5468 26.3122 64.5383C26.3286 64.5298 26.3425 64.5173 26.3528 64.502C26.363 64.4866 26.3692 64.4689 26.3707 64.4505C26.3722 64.4321 26.369 64.4136 26.3614 64.3968C26.4318 62.0608 26.3614 59.5968 26.3102 57.184C28.6334 57.0944 34.4638 57.3952 35.059 57.4336C35.5006 57.4336 35.2318 57.1072 35.2446 62.8416C35.2446 62.8928 35.3534 62.9568 35.379 62.9568C39.219 63.2256 43.1294 62.9568 47.0398 63.0016C47.4814 63.1488 46.995 61.8304 47.2574 49.0304L52.5822 48.7296C52.7358 49.152 53.4206 50.9056 53.5358 51.392C53.5446 51.4198 53.5614 51.4444 53.5842 51.4626C53.607 51.4809 53.6347 51.4919 53.6638 51.4944H55.859C55.7989 51.8745 55.8593 52.2639 56.0318 52.608C55.4366 61.8048 56.211 64.128 56.275 64.3584C55.5933 64.1405 54.8598 64.1474 54.1823 64.3778C53.5048 64.6082 52.9193 65.0501 52.5118 65.6384C52.071 65.3163 51.5445 65.1324 50.9991 65.1097C50.4536 65.0871 49.9137 65.2268 49.4477 65.5112C48.9817 65.7956 48.6106 66.2119 48.3813 66.7073C48.1521 67.2028 48.075 67.7551 48.1598 68.2944C48.1598 68.5696 47.9038 68.6272 47.667 68.64C45.0046 68.5248 43.315 70.56 43.6734 72.5568C43.279 72.8627 43.0032 73.2962 42.8935 73.7832C42.7837 74.2701 42.8467 74.78 43.0718 75.2256C42.1822 75.6096 41.1518 76.224 41.1518 77.312C41.1185 77.6263 41.2077 77.9414 41.4008 78.1918C41.5939 78.4421 41.8761 78.6083 42.1886 78.656C42.4894 78.6944 42.8286 78.656 43.0846 78.8672C43.2042 79.1118 43.3927 79.316 43.627 79.4548C43.8613 79.5935 44.131 79.6607 44.403 79.648C44.4149 79.849 44.3833 80.0503 44.3104 80.238C44.2375 80.4258 44.125 80.5956 43.9806 80.736C43.9806 80.736 43.2958 80.576 42.995 80.4608C42.7061 80.3528 42.3879 80.3528 42.099 80.4608C41.7612 80.5918 41.3913 80.6153 41.0397 80.5283C40.688 80.4412 40.3718 80.2478 40.1342 79.9744C39.7566 79.3344 39.0782 78.2528 38.2142 78.9504C38.1103 79.0413 38.0292 79.1553 37.9774 79.2832C37.9774 80.4416 37.3054 80.0768 36.979 79.9232C37.0622 76.9664 37.043 74.016 37.0494 71.0592C36.9598 70.8864 37.5422 70.8992 25.011 70.9248ZM54.3998 91.1936C53.4846 91.1936 29.0366 91.4816 17.7086 91.3664C17.5038 90.7264 16.5822 90.1568 16.9278 88.9024C17.2734 87.648 18.3422 86.5408 19.5262 86.9824C19.5527 86.9915 19.5815 86.9907 19.6074 86.9801C19.6334 86.9695 19.6545 86.9498 19.667 86.9248C19.9425 86.5415 20.2994 86.2238 20.712 85.9947C21.1247 85.7655 21.583 85.6305 22.054 85.5993C22.525 85.5681 22.9971 85.6415 23.4364 85.8142C23.8757 85.987 24.2714 86.2547 24.595 86.5984C24.7294 86.7136 24.7742 86.8864 24.9534 86.6496C25.3822 85.6192 26.5982 85.472 27.6606 85.5808C27.6866 85.5793 27.7116 85.57 27.7322 85.554C27.7528 85.538 27.768 85.5161 27.7758 85.4912C27.8981 84.8319 28.2636 84.2426 28.7998 83.84C29.3631 83.4863 30.0004 83.2673 30.6622 83.2C30.7594 83.1035 30.8348 82.9873 30.8833 82.8592C30.9319 82.7312 30.9525 82.5942 30.9438 82.4576C30.9209 81.9021 31.0842 81.3549 31.4077 80.9027C31.7311 80.4506 32.1963 80.1193 32.7294 79.9616C35.155 79.2064 37.2094 80.4416 37.5358 80.3904C37.8622 80.3392 37.9966 80.0768 38.0286 79.7504C38.0286 79.5584 37.9966 79.0528 38.6686 78.9824C39.3406 78.912 39.5518 79.7568 39.8526 80.1472C40.0813 80.4221 40.3822 80.6276 40.7214 80.7407C41.0606 80.8538 41.4247 80.8699 41.7726 80.7872C42.2142 80.7168 42.355 80.5568 42.835 80.7424C43.1864 80.8535 43.5492 80.9244 43.9166 80.9536C44.1286 80.7859 44.294 80.5666 44.3971 80.3167C44.5002 80.0669 44.5374 79.7948 44.5054 79.5264C44.5049 79.5118 44.5012 79.4976 44.4944 79.4847C44.4877 79.4718 44.4781 79.4606 44.4664 79.452C44.4547 79.4434 44.4411 79.4375 44.4268 79.4349C44.4125 79.4322 44.3978 79.4329 44.3838 79.4368C44.2159 79.4715 44.0418 79.4627 43.8783 79.4112C43.7147 79.3596 43.5671 79.2671 43.4494 79.1424C43.251 78.9248 43.1678 78.6496 42.8606 78.5472C42.5534 78.4448 42.2206 78.5088 41.9454 78.4192C41.7712 78.3279 41.6205 78.1979 41.5047 78.039C41.389 77.8801 41.3114 77.6966 41.2779 77.5029C41.2445 77.3092 41.2562 77.1104 41.312 76.9219C41.3678 76.7334 41.4663 76.5603 41.5998 76.416C42.0355 75.9198 42.5938 75.5469 43.219 75.3344C43.2408 75.3222 43.2569 75.302 43.2641 75.2781C43.2713 75.2543 43.2689 75.2285 43.2574 75.2064C43.0069 74.7907 42.923 74.2956 43.0228 73.8206C43.1225 73.3457 43.3984 72.9261 43.795 72.6464C43.8122 72.6361 43.8258 72.6207 43.8338 72.6024C43.8419 72.584 43.8439 72.5636 43.8398 72.544C43.4302 70.6624 45.1198 68.9216 47.0398 68.8192C47.9358 68.8704 48.5182 68.736 48.3198 67.7184C48.351 67.283 48.4872 66.8618 48.7168 66.4906C48.9464 66.1194 49.2626 65.8094 49.6382 65.5872C50.5598 65.0048 51.7246 65.3824 52.595 65.8048C52.9864 65.221 53.5571 64.7803 54.221 64.5494C54.8848 64.3185 55.6058 64.3099 56.275 64.5248C56.3134 64.5248 56.9982 68.5952 59.6798 69.0624C60.0382 69.1264 62.0798 69.1712 65.9454 66.3232C65.5934 67.424 63.987 73.3056 63.699 74.9952C63.6222 75.4752 64.0126 75.7184 64.339 75.936C62.7518 78.3872 57.0622 85.4912 54.3998 91.1936ZM100.806 71.2896C101.151 71.8126 101.37 72.4079 101.448 73.0293C101.526 73.6508 101.459 74.2818 101.254 74.8736C101.245 74.9009 101.245 74.9308 101.256 74.9578C101.266 74.9848 101.286 75.0071 101.312 75.0208C104.55 76.7616 103.411 80.1408 103.411 80.1408C102.902 80.2629 102.429 80.5018 102.029 80.8384C101.965 80.9024 102.029 80.9984 102.131 80.9408C102.586 80.5854 103.123 80.3519 103.693 80.2623C104.263 80.1727 104.847 80.23 105.389 80.4288C106.235 80.7714 106.94 81.3923 107.387 82.1893C107.834 82.9862 107.996 83.9115 107.846 84.8128C111.84 83.84 113.606 86.5344 113.741 86.7328C114.15 87.3216 114.297 87.2448 115.021 87.2704C117.414 87.3792 119.501 89.3504 120.493 91.5072C107.987 92.448 95.411 91.6992 82.8798 91.1488C83.877 87.7323 84.4151 84.1984 84.4798 80.64C84.7223 80.5983 84.9617 80.5406 85.1966 80.4672C85.3615 80.166 85.4822 79.8427 85.555 79.5072C86.195 76.224 87.2446 72.8832 87.475 69.4592C88.3005 70.2195 89.1986 70.8969 90.1566 71.4816C90.2334 71.52 90.4766 71.3216 90.5534 71.2704C91.2256 71.6729 91.8673 72.1242 92.4734 72.6208C93.587 73.7856 93.1134 74.9696 93.4078 79.4176C93.6958 84.1536 94.1246 85.2992 93.9902 85.6832C93.7918 86.1888 91.9038 86.5728 93.4078 86.9632C93.5806 86.9632 94.1246 86.8096 94.0478 87.1616C93.8494 87.488 93.4078 88.1216 94.1246 88.288C94.2288 88.2992 94.3335 88.2719 94.419 88.2112C94.4281 88.3189 94.4759 88.4197 94.5535 88.495C94.6312 88.5703 94.7334 88.615 94.8414 88.6208C94.9582 88.6257 95.0736 88.5938 95.1713 88.5294C95.2689 88.4651 95.3438 88.3717 95.3854 88.2624C95.4093 88.3284 95.4504 88.3869 95.5044 88.4319C95.5584 88.4769 95.6233 88.5067 95.6926 88.5184C96.4158 88.4672 96.3774 87.4496 96.563 86.8288C96.7358 85.6256 96.7678 84.2688 97.4398 83.0784C99.1102 78.5984 100.224 74.1184 98.0798 69.9328C98.6147 69.8445 99.1638 69.9283 99.6481 70.1721C100.132 70.416 100.527 70.8072 100.774 71.2896H100.806ZM96.8574 83.7504C96.5246 84.48 96.2174 87.3984 96.1406 87.5904C96.0638 87.7824 95.955 88.4928 95.5774 88.1408C95.5262 88.0287 95.5084 87.9043 95.5262 87.7824C95.5262 87.6608 95.3598 87.6672 95.3406 87.7824C95.3406 88.0128 95.2062 88.3392 94.9246 88.3648C94.451 88.3648 94.6366 87.7696 94.6238 87.7248C94.6182 87.7027 94.6053 87.6832 94.5874 87.6693C94.5694 87.6553 94.5473 87.6478 94.5246 87.6478C94.5019 87.6478 94.4798 87.6553 94.4618 87.6693C94.4438 87.6832 94.431 87.7027 94.4254 87.7248C94.4254 87.7696 94.3806 88.2112 94.035 88.0192C93.8878 87.9296 93.907 87.7824 93.9774 87.6544C94.0478 87.5264 94.2398 87.3408 94.2718 87.136C94.2834 87.0494 94.2666 86.9614 94.2239 86.8853C94.1812 86.8091 94.1149 86.7488 94.035 86.7136C93.8238 86.6703 93.6061 86.6703 93.395 86.7136C93.299 86.7136 93.107 86.7136 93.075 86.5856C93.043 86.4576 93.4014 86.3936 93.4974 86.3616C94.5982 85.9712 94.2014 85.0816 94.0542 83.8848C93.7534 81.4848 93.6318 79.0016 93.5358 76.512V74.336C93.4014 72.6144 92.3134 71.9104 90.803 71.136C90.803 71.136 93.9518 68.864 95.443 66.5216C98.8542 70.6496 100.659 74.528 96.8254 83.7504H96.8574ZM93.3886 61.5104C94.3673 62.719 95.2087 64.0327 95.8974 65.4272C94.899 67.3472 91.923 69.9968 90.259 71.1872C89.555 70.8288 87.411 69.6192 85.5294 66.1952C85.491 66.1248 85.3822 66.1952 85.4206 66.2592C85.9635 67.3045 86.6066 68.2947 87.3406 69.216C87.1166 72.1728 86.2142 75.1552 85.6318 78.1184C85.4996 78.8326 85.3157 79.5364 85.0814 80.224C83.1614 80.6912 69.587 78.8864 64.3518 75.5712C64.0126 75.3664 63.9358 75.2704 64.0126 74.848C64.6526 71.392 66.7518 63.6608 69.1326 58.9312C69.171 58.848 69.0494 58.7776 69.011 58.8608C67.9176 61.0311 66.9808 63.2768 66.2078 65.5808C64.979 63.9104 63.5646 61.3248 63.3726 58.656C63.283 58.2336 63.6606 58.016 63.9486 57.8304C64.2366 57.6448 70.131 52.8128 75.5518 53.1328C75.9934 53.1328 77.1262 53.248 77.2606 53.248C77.0995 53.8824 77.1276 54.5501 77.3414 55.1688C77.5552 55.7874 77.9453 56.33 78.4638 56.7296C79.859 57.6896 82.9438 57.4784 84.8638 55.2576C88.143 56.652 91.0512 58.7932 93.3566 61.5104H93.3886Z" fill="black"/>
<path d="M80.9724 47.8719C80.9869 47.8685 81.0002 47.8612 81.0109 47.8508C81.0217 47.8404 81.0294 47.8273 81.0333 47.8129C81.0372 47.7985 81.0372 47.7833 81.0333 47.7689C81.0293 47.7546 81.0215 47.7415 81.0108 47.7311C80.8892 47.6223 80.582 47.6287 80.582 47.4047C81.0179 46.8327 81.4881 46.2877 81.99 45.7727C82.0476 45.7087 81.958 45.6063 81.894 45.6703C80.5372 47.0335 80.2684 47.2319 80.4092 47.5903C80.4637 47.6886 80.5467 47.7681 80.6472 47.8184C80.7477 47.8687 80.8611 47.8873 80.9724 47.8719ZM80.6012 45.5295C80.7342 45.3814 80.8582 45.2254 80.9724 45.0623C81.0364 44.9727 80.8828 44.8575 80.806 44.9727C80.6898 45.1257 80.587 45.2885 80.4988 45.4591C80.5003 45.4708 80.5042 45.482 80.5103 45.492C80.5164 45.502 80.5246 45.5107 80.5342 45.5173C80.5439 45.524 80.5549 45.5285 80.5664 45.5306C80.5779 45.5327 80.5898 45.5323 80.6012 45.5295ZM83.0524 46.8671C83.142 46.8671 83.8524 46.3743 83.6924 46.2271C83.672 46.2068 83.6444 46.1954 83.6156 46.1954C83.5868 46.1954 83.5592 46.2068 83.5388 46.2271C83.4492 46.3807 82.9756 46.6431 82.982 46.8671C82.9927 46.8733 83.0048 46.8766 83.0172 46.8766C83.0296 46.8766 83.0417 46.8733 83.0524 46.8671ZM81.958 49.9647C82.2012 50.1439 82.6428 49.8623 82.8476 49.5167C82.9636 49.2893 83.0579 49.0515 83.1292 48.8063C83.1328 48.7956 83.1343 48.7843 83.1334 48.773C83.1325 48.7618 83.1293 48.7508 83.124 48.7408C83.1187 48.7308 83.1115 48.722 83.1027 48.7149C83.0939 48.7078 83.0837 48.7025 83.0729 48.6995C83.062 48.6964 83.0506 48.6956 83.0394 48.6971C83.0282 48.6986 83.0174 48.7024 83.0077 48.7082C82.998 48.714 82.9896 48.7217 82.9829 48.7309C82.9763 48.7401 82.9717 48.7505 82.9692 48.7615C82.8932 48.9307 82.7726 49.0759 82.6204 49.1819C82.4683 49.2878 82.2902 49.3505 82.1052 49.3631C81.7596 49.4719 81.7212 49.8047 81.958 49.9647ZM50.3612 29.1647C50.3476 29.1563 50.3312 29.1535 50.3156 29.1571C50.3 29.1607 50.2865 29.1704 50.278 29.1839C50.2695 29.1975 50.2668 29.2139 50.2704 29.2295C50.274 29.2451 50.2836 29.2587 50.2972 29.2671C53.958 31.9935 54.7772 32.3583 56.902 34.1119C56.9724 34.1695 57.0748 34.0735 57.0044 34.0031C54.9069 32.2357 52.687 30.6188 50.3612 29.1647ZM61.9004 37.8175C61.99 37.8559 62.086 37.7535 62.0092 37.6767C61.9324 37.5999 60.0892 36.3583 59.7052 36.1023C59.6156 36.0383 59.5324 36.1791 59.622 36.2431C59.9932 36.5119 61.6892 37.7215 61.9004 37.8175ZM22.3164 15.9103L21.0364 16.2495C23.1036 19.2319 26.6748 22.1247 29.2476 25.1007C29.6892 25.1839 25.5996 18.4063 24.0188 15.1807L25.0876 15.1103C25.1145 15.1107 25.1408 15.1031 25.1633 15.0883C25.1858 15.0736 25.2033 15.0525 25.2136 15.0277C25.224 15.0029 25.2266 14.9755 25.2213 14.9492C25.2159 14.9229 25.2028 14.8987 25.1836 14.8799C22.8338 11.7748 20.1006 8.97924 17.0492 6.55995C16.9724 6.39995 16.7356 6.55995 16.8124 6.69435C18.3932 9.90075 20.7484 12.7999 22.3164 15.9103ZM24.8316 14.8543L23.8076 14.9119C23.7829 14.912 23.7587 14.9186 23.7373 14.9309C23.716 14.9433 23.6982 14.9611 23.6859 14.9825C23.6736 15.0039 23.6671 15.0281 23.6671 15.0528C23.6672 15.0775 23.6737 15.1018 23.686 15.1231C24.966 17.7855 28.3068 23.5967 28.518 23.9359C26.6812 22.0159 22.0476 16.9919 21.478 16.4031L22.534 16.1279C22.5535 16.1218 22.5715 16.1115 22.5867 16.0977C22.6018 16.0839 22.6138 16.067 22.6217 16.0481C22.6296 16.0292 22.6333 16.0088 22.6325 15.9883C22.6318 15.9678 22.6265 15.9478 22.6172 15.9295C21.3372 13.3695 17.542 7.51995 17.2604 6.96955C20.2556 9.10075 24.3196 14.2271 24.8316 14.8543ZM23.4428 32.2751C23.474 32.2813 23.5063 32.2776 23.5354 32.2646C23.5644 32.2516 23.5886 32.2299 23.6048 32.2025C23.6209 32.1751 23.6282 32.1433 23.6255 32.1117C23.6229 32.08 23.6105 32.0499 23.59 32.0255C22.7298 30.9041 21.7273 29.8993 20.6076 29.0367C22.694 28.7295 24.8188 28.7423 26.9052 28.3967C27.046 28.3967 27.0204 28.1727 26.9052 28.1343L13.9324 23.9231C13.901 23.9096 13.8655 23.909 13.8337 23.9216C13.8019 23.9342 13.7764 23.9589 13.7628 23.9903C13.7492 24.0217 13.7487 24.0573 13.7613 24.0891C13.7739 24.1209 13.7986 24.1464 13.83 24.1599C15.0864 24.9226 16.2087 25.8869 17.1516 27.0143C12.6844 26.5919 3.45561 26.2399 3.37881 26.2399C3.19961 26.1759 3.12281 26.4575 3.30201 26.5215C8.39641 28.3775 21.9772 31.8911 23.4428 32.2751ZM3.98681 26.4383C8.46681 26.5791 12.486 27.0399 17.4268 27.2831C17.5484 27.2831 17.574 27.1487 17.51 27.0719C16.719 26.0748 15.7877 25.1974 14.7452 24.4671L26.2652 28.2111C24.2428 28.4863 22.1884 28.4799 20.1724 28.8127C20.0444 28.8127 20.038 29.0175 20.134 29.0751C21.2458 29.8462 22.2267 30.7904 23.0396 31.8719C16.6972 30.2079 10.2396 28.6719 3.98681 26.4383ZM26.3868 40.0895C23.718 41.4143 16.6972 44.4031 15.91 44.7039C15.8781 44.7139 15.8508 44.7348 15.8329 44.763C15.8151 44.7912 15.8078 44.8248 15.8124 44.8578C15.817 44.8909 15.8332 44.9213 15.8581 44.9435C15.883 44.9657 15.915 44.9783 15.9484 44.9791H19.046C16.2684 47.5391 14.2908 49.4591 11.0076 51.3791C10.918 51.4303 11.27 51.6031 11.366 51.5583C16.0586 49.2927 20.5993 46.7252 24.9596 43.8719C25.1644 43.3279 23.0396 43.7439 22.6684 43.6287L26.5084 40.3071C26.6748 40.1983 26.5148 40.0255 26.3868 40.0895ZM22.2332 43.6671C22.214 43.6859 22.2009 43.7101 22.1955 43.7364C22.1902 43.7627 22.1929 43.7901 22.2032 43.8148C22.2135 43.8397 22.2311 43.8608 22.2535 43.8755C22.276 43.8903 22.3023 43.8979 22.3292 43.8975H24.4604C20.5916 46.4132 16.5735 48.6915 12.4284 50.7199C14.9969 49.0883 17.3604 47.1545 19.4684 44.9599C19.4852 44.9413 19.4965 44.9183 19.5009 44.8936C19.5053 44.8688 19.5027 44.8434 19.4934 44.82C19.484 44.7967 19.4684 44.7765 19.4481 44.7616C19.4279 44.7467 19.4039 44.7379 19.3788 44.7359H16.6652C19.2252 43.7311 25.1132 41.0431 25.5612 40.8255L22.2332 43.6671Z" fill="black"/>
</svg>
