<svg width="128" height="128" viewBox="0 0 128 128" fill="none" xmlns="http://www.w3.org/2000/svg">
<path fill-rule="evenodd" clip-rule="evenodd" d="M55.8972 54.6945C55.8076 54.8673 55.5452 56.6145 56.5756 56.6145C56.7556 56.6149 56.9298 56.5504 57.0661 56.4328C57.2024 56.3153 57.2919 56.1526 57.318 55.9745C57.5356 54.0161 56.2556 54.0225 55.8972 54.6945ZM65.1772 54.6689C65.2348 55.3473 65.3116 55.9489 65.99 55.9489C66.17 55.9493 66.3442 55.8848 66.4805 55.7672C66.6168 55.6497 66.7063 55.487 66.7324 55.3089C66.7462 54.8971 66.701 54.4855 66.598 54.0865C66.2268 53.4017 65.0812 53.5681 65.1772 54.6689ZM60.6972 60.8513C60.8956 60.8513 62.6172 60.7681 63.0204 60.4545C63.142 60.3649 63.1292 60.1921 63.1292 60.0321C63.0908 58.2167 62.9154 56.4067 62.6044 54.6177C62.6044 54.5217 62.5212 54.5025 62.47 54.5153C62.4188 54.5281 62.3932 54.6177 62.3996 54.7713C62.3996 55.2961 62.3548 55.4753 62.5404 58.4129C62.662 60.3329 62.6108 59.7953 62.6492 60.1153C62.049 60.3352 61.4328 60.5085 60.806 60.6337C60.39 60.7233 60.6844 60.8513 60.6972 60.8513ZM62.7196 65.2801C62.2448 65.5347 61.7212 65.6852 61.1836 65.7217C61.1565 65.7217 61.1304 65.7325 61.1112 65.7517C61.092 65.7709 61.0812 65.7969 61.0812 65.8241C61.0812 65.8513 61.092 65.8773 61.1112 65.8965C61.1304 65.9157 61.1565 65.9265 61.1836 65.9265C61.4843 66.0346 61.8055 66.0736 62.1233 66.0404C62.4411 66.0072 62.7474 65.9027 63.0192 65.7348C63.2911 65.5669 63.5216 65.3398 63.6935 65.0705C63.8655 64.8012 63.9745 64.4966 64.0124 64.1793C64.0158 64.1663 64.0165 64.1527 64.0147 64.1394C64.0128 64.1261 64.0083 64.1132 64.0015 64.1017C63.9946 64.0901 63.9856 64.0799 63.9748 64.0718C63.9641 64.0638 63.9518 64.0579 63.9388 64.0545C63.9258 64.0511 63.9122 64.0504 63.8989 64.0522C63.8856 64.0541 63.8728 64.0586 63.8612 64.0654C63.8496 64.0723 63.8395 64.0813 63.8314 64.0921C63.8233 64.1028 63.8174 64.1151 63.814 64.1281C63.5549 64.6002 63.1778 64.9971 62.7196 65.2801ZM34.0348 15.9233C35.6796 21.4209 41.4972 21.1521 42.1756 21.5617C42.1756 21.6257 43.5068 26.7521 44.0444 27.4561C44.3452 27.8465 45.0684 27.6929 45.5484 27.6033C46.6748 27.3793 47.9804 27.3089 48.934 26.5473C49.1772 26.3489 49.0364 25.5425 48.9724 25.2673C48.7687 24.1165 48.4865 22.9811 48.1276 21.8689C47.9865 21.5334 47.8668 21.1892 47.7692 20.8385C48.2109 20.4473 48.6912 20.102 49.2028 19.8081C50.0473 19.2328 50.7984 18.5313 51.43 17.7281C52.6521 15.9379 53.2045 13.7744 52.9903 11.6174C52.7761 9.46047 51.809 7.44787 50.2588 5.9329C45.5164 1.2801 36.9404 2.7969 34.1564 8.6657C33.2028 10.7009 33.3884 13.7857 34.0348 15.9233ZM48.6396 26.2401C47.7884 26.9249 46.534 27.0145 45.4396 27.2385C45.1452 27.3025 44.4476 27.4753 44.262 27.2385C43.8999 26.7158 43.6394 26.1296 43.494 25.5105C45.1518 25.2769 46.7733 24.8339 48.3196 24.1921C48.5288 24.8548 48.6367 25.5452 48.6396 26.2401ZM48.2492 23.9297C46.6139 24.2345 45.0079 24.6799 43.4492 25.2609C43.2839 24.5181 43.0701 23.7869 42.8092 23.0721C44.4627 22.8989 46.0844 22.4983 47.6284 21.8817C47.8866 22.5582 48.1004 23.2509 48.2684 23.9553L48.2492 23.9297ZM34.5596 8.8641C37.2412 3.3217 45.4396 1.9201 49.9196 6.3041C51.3757 7.73231 52.2866 9.62469 52.4947 11.6537C52.7027 13.6826 52.1948 15.7205 51.0588 17.4145C49.9516 18.9761 47.7116 20.0513 47.366 20.6145C47.2444 20.8129 47.4684 21.3185 47.6092 21.6769C46.8796 21.8177 46.0796 21.9905 45.3628 22.1505C45.1708 21.2737 44.2748 17.7345 43.942 16.9025C43.814 16.5697 43.6988 16.5953 43.3596 16.6913C41.4908 16.6913 39.4364 16.2177 38.7772 14.4577C38.6976 14.2514 38.6418 14.0367 38.6108 13.8177C38.5212 12.8961 39.2508 11.8209 40.0572 11.8977C39.942 12.6017 40.0572 13.9457 40.6588 14.3489C41.2604 14.7521 41.9388 14.1121 41.9388 13.5361C41.9047 13.1207 41.7697 12.72 41.5455 12.3687C41.3213 12.0173 41.0147 11.726 40.6524 11.5201C40.753 11.2916 40.9021 11.0878 41.0894 10.9226C41.2766 10.7575 41.4975 10.6351 41.7368 10.5639C41.9761 10.4926 42.228 10.4743 42.475 10.5101C42.7221 10.5459 42.9584 10.635 43.1676 10.7713C42.662 11.7569 43.1676 14.0161 44.0636 13.4849C44.9596 12.9537 44.6652 11.6481 44.1084 10.9249C43.8396 10.5729 43.782 10.6689 43.9164 10.5665C44.9596 9.8049 46.1436 10.6881 46.6428 11.8465C47.3596 13.4401 45.8236 15.4049 44.8508 16.0001C44.8271 16.0145 44.81 16.0378 44.8034 16.0648C44.7968 16.0918 44.8012 16.1203 44.8156 16.1441C44.83 16.1679 44.8533 16.1849 44.8803 16.1915C44.9073 16.1981 44.9359 16.1937 44.9596 16.1793C46.15 15.4817 47.654 13.4273 46.9692 11.6993C46.2844 9.9713 44.5628 9.3057 43.4748 10.3361C43.2009 10.1481 42.8882 10.024 42.5599 9.97292C42.2317 9.92181 41.8961 9.94502 41.578 10.0408C41.2598 10.1366 40.9673 10.3026 40.7218 10.5265C40.4763 10.7504 40.2842 11.0265 40.1596 11.3345C38.9692 11.1809 37.9644 12.5697 38.0988 13.8305C38.1711 14.3878 38.3818 14.918 38.7115 15.373C39.0413 15.828 39.4797 16.1932 39.9868 16.4353C40.5884 16.7233 42.726 17.2481 43.5708 17.0049C43.8652 17.6449 44.934 21.4017 45.126 22.1889C42.2844 22.8289 42.8604 23.1297 42.7196 22.7137C42.5532 22.1953 42.4508 21.4337 42.31 21.3825C38.7772 20.5825 35.59 19.9937 34.3996 15.8017C33.8172 13.7729 33.6636 10.7649 34.5596 8.8641ZM40.4988 12.0257C40.7413 12.1978 40.944 12.42 41.0931 12.6773C41.2422 12.9346 41.3341 13.2209 41.3628 13.5169C41.3628 13.6897 40.9724 14.1569 40.7228 13.6449C40.5317 13.1279 40.4638 12.5735 40.5244 12.0257H40.4988ZM43.5196 11.0465C44.0316 11.5457 44.3516 12.7105 43.7948 13.0497C43.6018 12.7577 43.4769 12.4261 43.4292 12.0794C43.3816 11.7327 43.4125 11.3797 43.5196 11.0465ZM24.3196 35.4753C26.9244 34.6625 30.0796 35.3665 31.2956 38.2465C33.4012 43.1233 27.8332 45.6065 27.8908 45.8625C28.0188 46.5025 28.2492 47.6225 28.3452 48.2689C28.3529 48.3232 28.3818 48.3723 28.4256 48.4053C28.4694 48.4383 28.5245 48.4525 28.5788 48.4449C28.6331 48.4373 28.6822 48.4084 28.7152 48.3646C28.7482 48.3207 28.7625 48.2656 28.7548 48.2113C28.678 47.5713 28.5948 46.6497 28.5052 45.9841C29.4101 45.6211 30.2474 45.1083 30.982 44.4673C35.5004 39.1361 30.4572 32.4097 24.0124 34.5153C22.9919 34.8129 22.0893 35.4207 21.4299 36.2544C20.7705 37.0882 20.3869 38.1065 20.3324 39.1681C20.1276 41.6897 22.1372 43.8657 25.382 43.5841C25.4309 43.5755 25.4752 43.5499 25.5072 43.5119C25.5391 43.4738 25.5566 43.4258 25.5566 43.3761C25.5566 43.3264 25.5391 43.2784 25.5072 43.2403C25.4752 43.2023 25.4309 43.1767 25.382 43.1681C22.502 43.3153 20.9596 41.2481 21.2348 39.2641C21.2986 38.3925 21.6287 37.5616 22.1805 36.8838C22.7323 36.2061 23.479 35.7144 24.3196 35.4753ZM72.1212 18.7777C72.1755 18.7921 72.2334 18.7844 72.282 18.7562C72.3306 18.728 72.366 18.6816 72.3804 18.6273C72.3949 18.573 72.3871 18.5152 72.3589 18.4665C72.3307 18.4179 72.2843 18.3825 72.23 18.3681C69.4588 17.5873 68.6588 15.1361 69.5548 13.3377C69.9038 12.5345 70.4913 11.858 71.2378 11.4001C71.9842 10.9422 72.8535 10.7249 73.7276 10.7777C78.5404 10.8993 80.6524 15.3281 78.8476 18.4897C77.6508 20.6529 76.0508 21.2353 74.0028 21.5041C73.9381 21.5132 73.8782 21.5431 73.832 21.5893C73.7858 21.6355 73.7559 21.6954 73.7468 21.7601C73.6764 22.3489 73.5228 23.5073 73.4076 24.1793C73.3966 24.2328 73.4072 24.2884 73.4373 24.334C73.4673 24.3796 73.5142 24.4115 73.5676 24.4225C73.6211 24.4335 73.6768 24.4229 73.7224 24.3929C73.768 24.3629 73.7998 24.316 73.8108 24.2625C73.958 23.5713 74.1564 22.7585 74.2908 22.0737C75.2631 22.0214 76.2195 21.805 77.1196 21.4337C79.2892 20.1537 80.6076 18.1313 80.4348 15.5713C80.0316 9.5617 71.2636 7.4113 68.742 13.0113C67.7628 15.2897 68.9532 18.0609 72.1212 18.7777ZM107.68 48.8065C107.606 47.6202 107.183 46.4822 106.464 45.5361C105.771 44.7573 104.927 44.1284 103.983 43.6881C103.038 43.2479 102.014 43.0055 100.972 42.9761C99.9122 42.927 98.863 43.2085 97.9698 43.7818C97.0766 44.3551 96.3837 45.1918 95.9868 46.1761C94.982 48.4993 96.1916 51.2065 99.3468 51.9745C99.3749 51.9872 99.4055 51.9935 99.4363 51.9931C99.4672 51.9927 99.4975 51.9855 99.5253 51.9721C99.5531 51.9587 99.5776 51.9394 99.5971 51.9155C99.6166 51.8917 99.6306 51.8638 99.6382 51.8339C99.6458 51.804 99.6468 51.7728 99.641 51.7425C99.6353 51.7122 99.623 51.6836 99.6049 51.6585C99.5869 51.6335 99.5637 51.6127 99.5368 51.5977C99.5098 51.5826 99.48 51.5736 99.4492 51.5713C96.6972 50.7393 95.878 48.3713 96.7804 46.5409C97.1294 45.7377 97.7169 45.0612 98.4634 44.6033C99.2098 44.1454 100.079 43.9281 100.953 43.9809C101.841 44.0056 102.714 44.21 103.52 44.5818C104.327 44.9536 105.049 45.4851 105.644 46.1441C106.244 46.9265 106.6 47.868 106.668 48.8513C107.123 54.4961 101.043 54.5153 100.985 54.9633C100.908 55.6033 100.768 56.7297 100.646 57.3825C100.635 57.436 100.646 57.4916 100.676 57.5372C100.706 57.5828 100.753 57.6147 100.806 57.6257C100.859 57.6367 100.915 57.6261 100.961 57.5961C101.006 57.5661 101.038 57.5192 101.049 57.4657C101.203 56.7809 101.395 55.9617 101.529 55.2769C102.503 55.2222 103.461 55.0059 104.364 54.6369C106.502 53.3825 107.852 51.3921 107.68 48.8065ZM31.1932 53.1201C31.4684 51.9809 30.6428 50.7841 29.8236 50.8801C29.2923 50.8226 28.7573 50.8077 28.2236 50.8353C26.8348 51.1681 26.182 52.9857 27.4876 53.8753C28.9852 54.8737 30.9244 54.1825 31.1932 53.1201ZM30.2012 52.9921C29.9739 53.1817 29.6955 53.2998 29.4012 53.3313C27.6604 53.5745 27.2892 52.0513 28.4604 51.5521L29.8364 51.2961C30.4316 51.3473 30.566 52.6209 30.2012 52.9601V52.9921ZM72.8764 26.6241C71.3852 26.0801 69.7724 27.7633 70.8284 29.1841C71.8844 30.6049 73.9772 30.6049 74.5788 29.6577C75.1804 28.7105 74.8156 27.2769 74.0092 27.0977C73.9388 27.0657 73.382 26.8097 72.8764 26.6241ZM73.6828 29.1841C73.3965 29.2815 73.0899 29.3033 72.7927 29.2472C72.4956 29.1911 72.2179 29.0591 71.9868 28.8641C71.7977 28.7283 71.6423 28.551 71.5324 28.3457C71.3468 27.8273 72.0124 27.2961 72.4988 27.2641L73.8812 27.4625C74.4188 27.7505 74.15 29.0049 73.6828 29.2033V29.1841ZM101.228 60.3393C101.1 60.2817 100.441 60.0065 100.102 59.8785C98.6044 59.3345 96.998 61.0177 98.054 62.4385C99.11 63.8593 101.196 63.8593 101.804 62.9121C102.412 61.9649 102.041 60.5185 101.228 60.3393ZM100.902 62.4577C100.616 62.5545 100.309 62.5759 100.012 62.5199C99.715 62.4638 99.4374 62.3322 99.206 62.1377C99.0185 61.9975 98.8635 61.8185 98.7516 61.6129C98.5724 61.1009 99.2316 60.5697 99.718 60.5377L101.1 60.7361C101.638 61.0049 101.369 62.2529 100.902 62.4577Z" fill="black"/>
<path fill-rule="evenodd" clip-rule="evenodd" d="M95.9995 95.6417C94.7195 89.3441 89.7403 79.6417 83.7627 77.1649L82.5594 74.6497C82.5509 74.6315 82.5384 74.6153 82.523 74.6023C82.5076 74.5892 82.4896 74.5797 82.4702 74.5742C82.4508 74.5687 82.4304 74.5675 82.4105 74.5706C82.3905 74.5737 82.3715 74.581 82.3546 74.5921L81.0746 75.4177C80.6681 72.7012 79.4268 70.1783 77.5226 68.1985C78.8538 66.1441 80.985 65.5169 83.1866 65.4209C85.0106 65.3441 86.3547 65.2353 87.4107 63.6737C89.5035 60.5889 89.0107 57.5809 86.5531 54.7137C82.8091 50.3489 81.337 51.6545 79.513 49.2417C76.0442 44.7105 75.257 38.0097 70.1498 34.5217C63.6218 30.0993 60.1018 33.6641 58.7322 34.7649C56.729 33.5489 52.2618 33.9713 50.3418 35.6161C48.7098 37.0113 46.5466 38.8161 45.7082 40.8321C43.9226 45.0881 44.1146 50.1249 41.5034 53.9841C40.8634 54.9441 39.769 55.5905 38.9946 56.4993C37.9317 57.8321 37.0275 59.284 36.3002 60.8257C35.353 62.6177 34.6298 64.6081 35.4938 66.4641C36.6522 68.9473 39.2442 71.3153 42.009 71.1361C43.609 71.0273 45.7274 70.0673 47.2314 70.7009C48.1274 71.0721 48.473 71.9361 49.1514 72.6593C50.6874 74.3681 54.2714 74.8865 56.2554 73.7025C54.073 76.4801 50.745 76.3841 44.9402 79.5841C36.0314 84.4865 32.7802 90.0545 31.8266 95.7569C31.4619 97.5311 31.1927 99.3235 31.0202 101.127C30.4698 110.426 33.2922 122.215 42.4442 124.167C44.953 124.704 47.8266 125.05 50.3098 124.429C55.0138 123.258 60.6266 120.09 64.7482 117.517C66.6682 116.32 73.7722 111.527 77.0746 110.899C77.2734 112.607 77.704 114.28 78.3546 115.872C80.9978 121.306 85.2282 124.519 91.1546 123.123C94.9946 122.221 96.0891 118.131 96.1915 114.215C98.1179 110.08 96.5882 98.6497 95.9995 95.6417ZM73.8554 65.6769C74.9946 65.8881 75.7754 66.9569 76.6203 67.8273C78.8539 70.0609 80.3899 72.4545 80.8507 75.5073C79.001 76.6849 77.7978 77.4273 77.7722 77.4657C77.7466 77.5041 76.857 75.2385 76.3195 74.9633C75.5152 74.564 74.7856 74.0293 74.1626 73.3825C73.6826 72.8513 73.0938 71.9169 73.1707 71.2129C73.5108 71.032 73.8821 70.9169 74.265 70.8737V70.4769C72.2874 70.5345 71.609 72.3393 71.4298 72.7425C71.3018 73.0305 71.1226 73.3185 70.713 73.2737C70.3034 73.2289 70.1562 72.7553 70.3098 72.3329C70.4634 71.9105 70.8346 70.0545 73.4522 69.6513C73.485 69.6467 73.5166 69.6357 73.5451 69.6189C73.5736 69.6021 73.5985 69.5798 73.6184 69.5533C73.6383 69.5269 73.6528 69.4968 73.6611 69.4647C73.6694 69.4327 73.6713 69.3993 73.6667 69.3665C73.662 69.3338 73.651 69.3022 73.6342 69.2737C73.6174 69.2452 73.5951 69.2203 73.5687 69.2004C73.5422 69.1804 73.5121 69.1659 73.48 69.1577C73.448 69.1494 73.4146 69.1475 73.3819 69.1521C72.834 69.2218 72.303 69.3887 71.8138 69.6449C71.3741 69.8596 70.9838 70.1634 70.6676 70.5368C70.3514 70.9103 70.1163 71.3454 69.977 71.8145C69.6698 72.6913 68.5946 72.3009 68.8506 71.5457C69.1082 70.8111 69.4915 70.1268 69.9834 69.5233C70.5297 69.0026 71.1858 68.6111 71.9034 68.3777C72.4666 68.1473 72.9466 68.2561 73.0746 68.0705C73.2026 67.8849 72.9018 67.2641 72.7482 67.0785C71.9226 66.0929 69.5482 66.9441 68.6394 65.8433C68.057 65.1201 69.2794 65.0945 69.7722 65.0305C71.1546 64.8769 72.4666 65.4145 73.8554 65.6769ZM76.2043 81.5361C74.3747 82.1324 72.5084 82.6092 70.617 82.9633C71.257 79.3217 71.6922 76.1985 71.6282 75.0657C73.1194 75.3537 74.8282 75.5585 76.697 75.8657C77.2026 76.7041 77.4778 77.4081 77.5994 77.6065L76.3578 78.3937C76.2938 78.4769 76.3066 78.1313 76.2043 81.5361ZM69.2538 100.026C69.5373 101.255 69.7382 102.501 69.8554 103.757C67.2314 103.591 65.2282 103.623 64.2426 103.584C64.281 101.786 64.3002 101.229 64.3322 100.851C65.9474 100.442 67.5935 100.166 69.2538 100.026ZM59.1866 84.2625C62.8174 84.2884 66.4432 83.9928 70.0218 83.3793C68.8826 89.5233 67.1482 96.9089 66.329 98.3873C64.4474 93.2545 64.6395 93.2353 59.1866 84.2625ZM66.8666 98.3041C67.9035 95.9809 69.4778 89.0497 70.5274 83.2769C72.4378 82.9189 74.3216 82.4314 76.1659 81.8177C75.9674 88.7297 75.9099 97.3569 76.3259 104.288C75.1099 104.179 73.3434 104.026 71.6282 103.891C71.5194 102.855 71.0906 99.2449 70.7258 98.2977C70.6298 98.0417 70.5146 97.9393 70.0858 97.9265C69.0156 97.9734 67.9502 98.0996 66.8986 98.3041H66.8666ZM69.1514 73.8881C68.5033 73.5092 67.9855 72.9423 67.6666 72.2625C67.9629 72.3875 68.272 72.4798 68.5882 72.5377C68.7082 72.6728 68.863 72.7723 69.0357 72.8253C69.2084 72.8784 69.3923 72.883 69.5674 72.8385C69.8554 72.7489 69.6698 72.7105 69.8234 73.1137C69.8824 73.2762 69.9818 73.4209 70.1122 73.5343C70.2426 73.6477 70.3997 73.726 70.5688 73.7619C70.7378 73.7977 70.9132 73.7899 71.0784 73.7392C71.2436 73.6886 71.3932 73.5966 71.513 73.4721C71.7626 73.2481 71.7818 72.9793 72.0826 72.4033C72.377 72.3457 72.6651 72.2689 72.9467 72.1857C73.7083 74.1825 76.0955 75.1489 76.2619 75.2961C73.4523 74.8801 70.9626 74.6177 69.1834 73.8881H69.1514ZM56.8826 73.1201C58.4186 71.3409 58.105 70.0673 56.5242 68.8065C53.3242 66.2977 53.721 66.9697 52.377 64.1665C50.7962 59.6161 52.1594 52.4481 53.3306 47.7825C53.6506 46.5025 55.833 45.1329 57.4202 45.3377C59.6218 45.6193 58.7002 46.7777 60.5818 47.4369C60.9085 47.5324 61.2464 47.5841 61.5866 47.5905C61.6068 47.5968 61.628 47.5991 61.6491 47.5972C61.6701 47.5953 61.6906 47.5893 61.7093 47.5795C61.728 47.5697 61.7446 47.5563 61.7582 47.5401C61.7717 47.5238 61.7819 47.5051 61.7882 47.4849C61.7945 47.4648 61.7968 47.4436 61.7949 47.4225C61.793 47.4015 61.787 47.381 61.7772 47.3623C61.7674 47.3435 61.754 47.3269 61.7378 47.3134C61.7215 47.2999 61.7028 47.2896 61.6826 47.2833C60.6845 46.6846 59.7644 45.9645 58.9434 45.1393C59.3338 43.5457 60.3258 42.6753 62.1882 42.6625C63.4682 42.6625 64.4794 43.6353 65.3882 44.4673C66.489 45.4721 67.673 48.1857 67.5834 49.6769C67.381 51.4049 67.786 53.1494 68.729 54.6113C69.369 55.7249 70.5722 56.6913 71.289 57.6321C71.6858 58.1569 71.4554 60.4993 71.225 61.5297C70.9242 62.4321 70.2842 64.1537 70.137 64.5441C67.4618 64.6401 67.577 66.0737 68.857 66.6881C67.6602 68.1217 64.7354 69.7153 66.8282 71.7249C67.2762 72.6657 67.993 73.9521 68.953 74.3425C69.6343 74.6186 70.339 74.8328 71.0586 74.9825C71.1994 75.9745 70.7386 79.2577 70.0346 83.0785C66.3615 83.6896 62.6411 83.9702 58.9178 83.9169C56.6074 80.1345 54.3098 76.5505 53.7274 75.9745C55.0205 75.3172 56.1192 74.3332 56.9146 73.1201H56.8826ZM52.5178 76.4929C53.7978 76.0129 53.1578 76.0961 53.465 76.3329C53.7722 76.5697 55.8842 79.9169 58.3354 83.8913C55.4298 83.8465 52.1594 83.6289 50.9242 83.4881C51.2954 83.1937 50.3354 78.1377 49.9642 77.4977C50.8922 77.1265 51.7498 76.8001 52.5498 76.4929H52.5178ZM49.4906 77.6961C50.0169 79.5807 50.3746 81.5083 50.5594 83.4561C47.7979 83.0603 45.0889 82.3584 42.4826 81.3633C44.716 79.9348 47.072 78.7075 49.5226 77.6961H49.4906ZM50.073 123.968C47.673 124.57 44.8634 124.218 42.4442 123.699C38.6618 122.887 36.0442 120.359 34.3418 117.12C31.6346 112 30.8282 104.391 31.6538 99.0593C31.8202 97.9905 32.0314 96.9345 32.2106 95.8593C33.2282 89.7601 36.9338 85.1649 42.105 81.6897C47.1802 83.5521 50.5914 84.2049 58.5658 84.2497C64.089 93.2097 64.2106 94.1057 65.7914 98.4897C65.305 98.5793 63.0522 99.0337 62.6682 99.3473C62.5146 99.4689 62.5146 99.7121 62.6682 103.559C56.8442 103.674 51.1482 104.583 45.7914 108.039C45.1514 103.424 45.8874 102.029 47.3786 99.3857C49.721 95.2321 49.2986 94.4641 47.8202 92.1025C47.5765 91.7837 47.4021 91.4175 47.3082 91.0273C47.3082 90.8737 46.6682 90.6625 47.5706 92.2497C48.8506 94.5793 49.1962 95.1297 46.9306 99.1297C45.273 102.061 44.5946 103.565 45.593 108.173C45.145 108.474 44.633 108.813 44.1402 109.21C43.3874 109.74 42.6808 110.333 42.0282 110.983C42.0155 111.007 42.0131 111.036 42.0215 111.062C42.0299 111.089 42.0484 111.111 42.073 111.123C42.0977 111.136 42.1263 111.138 42.1527 111.13C42.1791 111.122 42.2011 111.103 42.2138 111.079C42.4122 110.727 45.721 108.519 46.6106 108.064C51.577 105.562 57.0682 103.399 66.0602 103.994C65.947 107.799 66.3408 111.602 67.2314 115.303C62.6106 118.221 56.0442 122.483 50.105 123.968H50.073ZM67.6282 115.047C66.806 111.437 66.4426 107.739 66.5466 104.039C76.2618 104.679 73.2155 104.474 76.3515 104.679C76.4667 106.547 76.6395 108.576 76.8955 110.439C74.3867 110.906 69.8746 113.658 67.6602 115.047H67.6282ZM90.8858 122.663C85.2346 124 81.2219 120.915 78.6746 115.693C75.8587 109.933 76.3259 84.9153 76.4859 78.5409L82.3354 74.9185C90.233 91.9745 91.1803 93.5873 92.9531 99.2385C95.2443 106.439 98.265 120.96 90.9178 122.663H90.8858ZM96.0443 112.871C95.896 109.444 95.368 106.044 94.4699 102.733C92.4411 94.8417 90.2459 90.8865 84.1723 78.1185L84.3515 78.0225C89.7147 80.8897 94.2587 89.7921 95.4491 95.7377C96.1019 98.8417 97.3498 108.992 96.0762 112.871H96.0443Z" fill="black"/>
</svg>
