<svg width="128" height="128" viewBox="0 0 128 128" fill="none" xmlns="http://www.w3.org/2000/svg">
<path d="M69.9599 41.9628C69.4287 42.2354 70.3042 43.2127 70.5064 42.4524C70.5384 42.2188 70.1986 41.8399 69.9599 41.9628Z" fill="black"/>
<path d="M73.0416 41.1085C73.0736 40.8749 72.7344 40.498 72.4951 40.6196C71.9651 40.896 72.8394 41.8688 73.0416 41.1085Z" fill="black"/>
<path d="M42.6657 80.2674C42.5831 80.2867 42.5115 80.3381 42.4667 80.4103C42.4219 80.4824 42.4077 80.5693 42.427 80.652C42.4464 80.7347 42.4978 80.8063 42.5699 80.851C42.642 80.8958 42.729 80.9101 42.8116 80.8907C47.5825 79.7824 52.5316 79.677 57.3453 80.5813C62.159 81.4855 66.7324 83.3797 70.7758 86.1439C70.8441 86.144 70.9107 86.1222 70.9658 86.0817C71.0208 86.0413 71.0615 85.9842 71.0818 85.919C71.1021 85.8538 71.101 85.7837 71.0787 85.7192C71.0563 85.6546 71.0139 85.5989 70.9576 85.5602C66.8682 82.761 62.2404 80.8447 57.3692 79.9334C52.4981 79.0221 47.4905 79.1358 42.6657 80.2674Z" fill="black"/>
<path d="M72.8875 83.5456C65.5518 78.958 57.3534 75.8745 48.6551 77.1539C48.5734 77.1675 48.5001 77.2123 48.4507 77.2789C48.4013 77.3455 48.3797 77.4286 48.3904 77.5108C48.4011 77.593 48.4433 77.6679 48.5081 77.7196C48.5729 77.7713 48.6552 77.7959 48.7377 77.7881C54.1003 77.085 59.5535 77.7909 64.5604 79.8361C67.3219 81.0601 69.9916 82.4814 72.5489 84.0889C72.6209 84.1338 72.7079 84.1483 72.7906 84.129C72.8733 84.1098 72.945 84.0586 72.9899 83.9865C73.0347 83.9145 73.0492 83.8275 73.03 83.7448C73.0108 83.6621 72.9595 83.5905 72.8875 83.5456Z" fill="black"/>
<path d="M54.3822 74.8204C54.2973 74.8235 54.2171 74.8601 54.1593 74.9223C54.1014 74.9845 54.0706 75.0671 54.0737 75.152C54.0767 75.2368 54.1134 75.317 54.1756 75.3749C54.2377 75.4327 54.3203 75.4635 54.4052 75.4604C61.7841 75.1986 69.0054 77.636 74.7163 82.3161C75.0279 82.5824 75.451 82.0819 75.1227 81.8214C69.2796 77.0629 61.9137 74.5766 54.3822 74.8204Z" fill="black"/>
<path d="M52.6221 72.4904C52.5372 72.4966 52.4583 72.5363 52.4026 72.6007C52.347 72.6651 52.3192 72.7489 52.3254 72.8338C52.3316 72.9187 52.3713 72.9976 52.4357 73.0532C52.5001 73.1089 52.5839 73.1366 52.6688 73.1304C61.5835 72.4703 70.4093 75.2739 77.3088 80.9576C77.6179 81.2245 78.0448 80.724 77.7146 80.4636C70.6835 74.6842 61.6995 71.8296 52.6221 72.4904Z" fill="black"/>
<path d="M55.7333 71.0539C60.0462 70.461 64.4375 70.8562 68.5753 72.2096C72.7131 73.5631 76.4892 75.8393 79.6181 78.8664C79.9061 79.1576 80.3701 78.6936 80.0629 78.4069C76.8599 75.3182 72.999 72.9951 68.7699 71.6119C64.5408 70.2287 60.0534 69.8213 55.6443 70.4203C55.5619 70.4339 55.488 70.4792 55.4386 70.5465C55.3891 70.6138 55.3679 70.6978 55.3795 70.7806C55.3911 70.8633 55.4346 70.9382 55.5007 70.9893C55.5668 71.0403 55.6503 71.0636 55.7333 71.0539Z" fill="black"/>
<path d="M22.9353 72.5217C21.1977 72.9416 21.0652 75.3761 23.0281 75.4017C25.6771 75.4164 25.7353 71.8446 22.9353 72.5217ZM24.2793 74.1819C24.0911 74.4088 23.8433 74.5787 23.5639 74.6726C23.2844 74.7666 22.9843 74.7808 22.6972 74.7137C21.8243 74.3937 22.23 73.3588 23.1312 73.131C23.8313 72.7944 24.7644 73.4766 24.2787 74.1819H24.2793Z" fill="black"/>
<path d="M97.9707 80.7124C97.6136 80.7124 97.451 80.7124 96.5211 86.6081C96.0731 89.4343 95.6545 92.42 95.5809 92.9691C95.62 93.6283 96.9 93.3185 97.3569 93.4171C107.993 93.2865 108.25 81.5041 97.9707 80.7124ZM103.561 90.4001C101.715 92.4404 98.6382 92.9384 96.26 92.7272C96.6363 89.9752 97.7454 82.5256 98.1473 81.3595C103.138 81.6084 107.145 86.4379 103.561 90.4001Z" fill="black"/>
<path d="M124.661 35.4215C123.475 34.5299 122.069 35.2871 121.005 34.3405C120.899 34.2372 120.772 34.1574 120.633 34.1063C120.493 34.0552 120.345 34.0339 120.197 34.0438C120.049 34.0537 119.905 34.0946 119.774 34.1638C119.643 34.233 119.528 34.3289 119.436 34.4455C119.07 34.8969 118.858 35.4535 118.83 36.0339C115.06 39.9181 110.594 42.9191 103.598 44.6131C105.062 43.1119 106.257 41.3711 107.133 39.4663C109.245 34.3149 100.686 30.3783 96.9571 29.4426C96.792 28.7443 97.2976 27.6295 97.503 26.9139C97.7366 25.9712 97.055 25.5059 96.5558 25.7619C95.3264 26.1677 94.7363 27.5232 94.0227 28.457C92.6282 30.313 93.6803 30.873 95.3181 31.7107C95.2693 31.7741 95.2475 31.8542 95.2575 31.9335C95.2674 32.0129 95.3083 32.0851 95.3712 32.1344C96.2173 32.9754 100.363 36.2714 98.7453 37.5258C97.8698 38.2023 95.2464 40.2291 93.7232 41.5251C90.7517 41.3818 89.455 41.3747 87.5357 41.7056C87.5126 41.7098 87.4915 41.7215 87.4758 41.7389C87.4601 41.7564 87.4506 41.7786 87.4489 41.802C87.4473 41.8254 87.4534 41.8487 87.4665 41.8682C87.4795 41.8878 87.4987 41.9024 87.521 41.9098C93.1818 44.64 94.1994 51.9533 92.3696 57.1738C93.6259 57.0867 95.8288 57.2275 96.872 56.7418C100.814 56.3507 106.388 55.2698 109.323 53.6013C112.327 51.9653 114.93 49.683 116.945 46.9189C118.96 44.1547 120.336 40.9778 120.974 37.6173C122.119 37.1905 123.294 36.8483 124.489 36.5933C125.044 36.5063 125.449 35.6999 124.661 35.4215ZM99.473 30.969C102.921 32.3187 108.098 35.6333 106.55 39.2007C105.556 41.3679 104.133 43.3115 102.368 44.9146C101.741 45.0669 100.916 45.2295 100.276 45.3715C102.142 43.5122 103.84 41.4908 105.349 39.3312C105.773 38.7877 106.041 38.1397 106.125 37.456C105.797 35.2192 103.693 34.5811 101.954 33.392C101.055 32.8912 100.189 32.333 99.361 31.721C99.4356 31.4773 99.4734 31.2238 99.473 30.969ZM95.9613 31.3376L94.5872 30.585C94.2403 30.3981 93.8832 30.1031 94.0592 29.6749C94.4722 28.9183 94.9429 28.1947 95.4672 27.5104C95.7737 26.9664 96.2679 26.5525 96.8573 26.3463C96.9034 26.3693 96.9354 26.5536 96.8957 26.7219C96.5744 27.5743 96.3521 28.4608 96.2333 29.3639C96.1959 29.5496 96.2056 29.7417 96.2615 29.9226C96.3174 30.1036 96.4177 30.2677 96.5533 30.4C96.474 30.7731 96.2641 31.1056 95.9613 31.3376ZM96.8189 32.5722C96.5962 32.368 96.385 32.1568 96.1706 31.9731C96.4789 31.7847 96.7363 31.5236 96.9204 31.2126C97.1045 30.9017 97.2096 30.5504 97.2266 30.1895C97.7309 30.3424 98.2621 30.5197 98.7939 30.713C99.0595 31.8906 97.9318 33.1379 96.8189 32.5722ZM92.9603 42.112C93.3085 42.0807 93.7213 42.281 94.0349 42.1031C95.5274 40.8231 98.2448 38.7239 99.1197 38.0474C100.892 36.6215 98.7075 34.5319 97.5504 33.3267C97.8748 33.3132 98.1898 33.2137 98.463 33.0383C98.7363 32.863 98.9581 32.6182 99.1056 32.329C100.853 33.8791 104.951 35.065 105.487 37.4221C105.409 37.9834 105.182 38.5136 104.83 38.9581C103.27 41.1942 101.505 43.2804 99.5587 45.1898C99.2426 44.8058 98.4758 43.8797 98.0643 44.4538C98.0478 44.4925 98.039 44.5341 98.0385 44.5762C98.038 44.6182 98.0459 44.66 98.0616 44.6991C98.0772 44.7381 98.1005 44.7737 98.13 44.8038C98.1594 44.8338 98.1945 44.8578 98.2333 44.8743C98.6199 45.0572 98.9411 45.3543 99.1536 45.7255C99.3693 46.5274 100.765 45.8464 101.338 45.7997C108.101 44.4506 114.196 41.6595 117.827 37.8637C118.246 37.9607 118.626 38.1841 118.915 38.5037C115.273 47.6077 107.662 52.9107 98.0048 53.1155C98.3325 48.9018 97.0064 44.1651 92.9603 42.112ZM116.106 47.04C111.867 53.0426 105.173 55.2263 97.6208 56.016C97.8223 55.2794 97.9354 54.5214 97.9574 53.7581C107.806 53.5712 115.585 48.2234 119.38 39.0304C120.521 40.4717 117.184 45.5143 116.106 47.04ZM120.128 38.544C120.1 38.6579 120.064 38.7699 120.034 38.8832C119.653 38.1911 119.049 37.6485 118.32 37.344C118.618 37.0483 119.031 36.4096 119.46 36.5722C119.65 36.6376 119.822 36.7457 119.964 36.8882C120.106 37.0307 120.213 37.2037 120.278 37.3941C120.342 37.5844 120.362 37.787 120.336 37.9864C120.311 38.1857 120.239 38.3765 120.128 38.544ZM120.828 36.9651C120.537 36.5351 120.137 36.1907 119.668 35.9674C119.23 35.977 119.788 34.9907 119.928 34.8493C120.354 34.1031 121.573 36.1607 123.768 36.1159C122.773 36.3449 121.792 36.6284 120.828 36.9651Z" fill="black"/>
<path d="M71.9414 40.2364C72.2428 40.1525 72.5865 39.9388 72.8585 40.0841C72.9373 40.1155 73.0254 40.1144 73.1035 40.0809C73.1815 40.0474 73.243 39.9843 73.2745 39.9055C73.306 39.8266 73.3048 39.7385 73.2714 39.6605C73.2379 39.5825 73.1748 39.521 73.0959 39.4895C72.717 39.3052 71.4422 39.3941 71.6668 40.0815C71.6953 40.1288 71.7356 40.1679 71.7837 40.1951C71.8318 40.2222 71.8861 40.2364 71.9414 40.2364Z" fill="black"/>
<path d="M69.5968 41.9365C69.6648 41.7002 69.8046 41.4909 69.9968 41.3375C70.0647 41.2866 70.1096 41.2108 70.1216 41.1268C70.1336 41.0427 70.1117 40.9574 70.0608 40.8895C70.0099 40.8216 69.9341 40.7767 69.8501 40.7647C69.7661 40.7527 69.6807 40.7746 69.6128 40.8255C69.3039 41.0676 69.0809 41.4026 68.9767 41.781C68.9602 41.8618 68.9755 41.9457 69.0194 42.0155C69.0633 42.0852 69.1325 42.1353 69.2124 42.1553C69.2923 42.1754 69.3769 42.1638 69.4485 42.1231C69.5201 42.0823 69.5732 42.0155 69.5968 41.9365Z" fill="black"/>
<path d="M72.8155 43.5749C72.5179 43.8642 72.9787 44.325 73.268 44.0274C73.396 43.8994 73.5048 43.7765 73.6148 43.6504C73.4529 43.9314 73.2731 44.3083 73.7544 44.38C74.3828 44.2002 74.3944 43.2645 74.0046 42.8248C73.5092 42.4005 73.1694 43.3311 72.8155 43.5749Z" fill="black"/>
<path d="M71.5217 43.4081C71.8993 43.5861 72.7076 42.9729 72.2462 42.5845C72.0401 42.4225 71.7982 42.6485 71.7054 42.7931C71.5268 42.5928 71.9422 41.2065 71.3476 41.2302C71.2627 41.2302 71.1813 41.2639 71.1213 41.3239C71.0613 41.384 71.0276 41.4654 71.0276 41.5502C71.0692 42.0661 70.8228 43.2462 71.5217 43.4081Z" fill="black"/>
<path d="M111.384 82.0373C109.287 77.7915 104.024 75.2763 97.8588 74.2587C100.414 71.9579 101.432 71.0056 101.495 70.8801C101.756 69.8427 101.576 66.2549 102.083 65.3C102.109 65.2319 102.113 65.1573 102.094 65.087C102.075 65.0166 102.034 64.9541 101.977 64.9083C98.4523 62.5041 94.597 60.6245 90.5321 59.3281C94.1001 53.7038 92.5864 43.6085 85.1912 41.7057C86.5852 39.716 85.1311 36.676 82.6895 36.8763C81.0769 36.9005 79.469 37.0582 77.8825 37.348C78.2863 37.0075 78.0745 36.26 77.7852 35.9861C79.0831 35.2558 77.437 32.9563 76.1852 33.0715C76.2492 32.0859 75.5618 30.2849 74.4066 31.0696C74.0683 30.5713 73.6401 30.1405 73.1439 29.7992C72.4975 29.4152 71.6674 29.3262 71.3103 30.0225C70.7766 29.6803 70.1758 29.4561 69.5484 29.3653C68.7343 29.3537 68.0124 29.8773 68.1109 30.6075C67.2457 30.4155 66.2933 30.507 65.8223 31.3755C65.5951 31.8971 66.1097 32.1934 65.3001 32.155C64.1653 32.2581 63.4441 33.8043 64.5961 34.5301C63.3385 34.8174 62.3561 37.0952 64.0687 37.4542C63.4633 38.2862 63.0485 39.5265 63.7391 40.3643C54.8463 41.8529 47.7583 43.0926 41.0562 44.4187C37.821 45.8766 35.3999 47.7966 32.2991 49.4107C32.2264 49.4485 32.171 49.5126 32.1442 49.59C32.1174 49.6674 32.1213 49.7521 32.1551 49.8267C32.6274 50.8661 41.2508 51.6187 42.9743 51.7614C50.8992 50.6132 58.7565 49.0393 66.5122 47.0465C63.7999 49.2161 59.9247 51.2437 59.5881 55.1137C51.1042 54.1493 43.1906 55.3781 36.4898 59.6481C25.1522 66.3777 13.3993 73.1246 2.89941 81.4568C3.19573 83.4081 3.85941 85.3768 3.95861 87.2123C3.9649 87.2834 3.99475 87.3503 4.04342 87.4024C4.09208 87.4546 4.15677 87.489 4.22722 87.5001C4.29767 87.5113 4.36983 87.4986 4.43225 87.4641C4.49467 87.4296 4.54376 87.3752 4.57173 87.3096C12.1557 85.092 20.7285 85.0357 28.5807 86.7752C34.9698 87.8965 32.8617 90.8961 34.7989 91.3192C34.9148 91.348 37.0729 91.6155 37.1029 91.5803C37.5081 91.5457 37.6905 91.0843 37.6789 90.7675C37.9093 87.8235 39.6463 87.7537 42.4546 87.8875C55.5484 88.7374 60.2626 90.8891 71.117 97.8075C71.1577 97.834 71.2041 97.8506 71.2523 97.8558C71.3006 97.8611 71.3495 97.8549 71.3949 97.8378C71.4403 97.8206 71.4811 97.793 71.5139 97.7572C71.5467 97.7213 71.5705 97.6783 71.5836 97.6315C78.0367 91.8715 87.5292 83.5016 91.7538 79.7115C90.1289 86.3752 88.6441 93.1163 86.9679 101.426C86.9593 101.469 86.9596 101.513 86.9689 101.556C86.9781 101.599 86.9961 101.64 87.0216 101.675C87.0472 101.711 87.0798 101.741 87.1175 101.764C87.1551 101.786 87.197 101.801 87.2405 101.806C93.8895 102.656 102.487 102.865 107.745 98.6338C112.756 94.8706 114.496 87.5061 111.384 82.0373ZM82.7042 37.5163C84.9711 37.4997 85.7391 40.004 84.5071 41.5349C83.6324 41.3291 82.7375 41.2218 81.8389 41.2149C81.9862 40.5652 81.9531 39.8877 81.7433 39.2555C81.5335 38.6233 81.1549 38.0604 80.6485 37.6277C81.3244 37.5637 82.0111 37.5221 82.7042 37.5163ZM80.8668 50.2632C80.6876 49.4453 81.4101 49.323 81.5887 50.1467C81.9289 52.6543 81.653 55.2071 80.7849 57.5841C77.5697 57.1593 74.2994 57.533 71.2629 58.6721C70.2567 58.1164 69.2096 57.638 68.1308 57.2411C69.7596 56.0673 71.8325 54.4193 73.4293 53.3435C75.0714 55.3192 77.3489 56.663 79.8722 57.1451C79.9445 57.1426 80.014 57.1168 80.0703 57.0714C80.1266 57.0261 80.1667 56.9637 80.1845 56.8936C80.9177 54.7651 81.1512 52.4964 80.8668 50.2632ZM77.5957 40.9781C77.8463 40.5295 77.9714 40.0217 77.958 39.5081C77.9446 38.9945 77.7932 38.4939 77.5196 38.059C78.1986 37.9521 78.9455 37.7947 79.6956 37.739C80.3073 38.0663 80.7877 38.5944 81.0558 39.2343C81.3238 39.8743 81.3633 40.587 81.1676 41.2526C80.061 41.3441 77.8805 41.5617 77.1356 41.6366C76.854 41.4325 77.5368 41.2865 77.5957 40.9781ZM69.2482 39.819C70.1935 40.2184 71.0812 39.3825 71.4466 38.507C71.7792 38.6418 72.1474 38.6609 72.4922 38.5612C72.8369 38.4615 73.1381 38.2488 73.3474 37.9573C73.464 38.0614 73.6079 38.1301 73.7623 38.1552C73.9166 38.1802 74.0749 38.1606 74.2185 38.0987C74.4041 38.4085 74.8322 38.9729 75.1612 39.3979C75.1396 39.6596 75.1875 39.9223 75.3 40.1595C75.3729 40.3043 75.4903 40.4218 75.6349 40.4949C75.7795 40.568 75.9438 40.5928 76.1036 40.5656C76.2633 40.5383 76.4101 40.4606 76.5224 40.3437C76.6347 40.2268 76.7065 40.077 76.7273 39.9163C76.7221 39.8299 76.9705 39.8344 77.0537 39.6558C77.1937 39.4776 77.2622 39.2534 77.2457 39.0273C77.3922 39.6405 77.3391 40.7809 76.6025 40.9563C76.3529 40.9704 76.1167 41.2763 76.2652 41.5086C76.8191 42.4499 77.5076 43.3052 78.3087 44.0475C78.5289 45.892 75.6847 48.2561 74.518 45.9905C74.9461 45.6033 75.0997 46.1045 75.437 46.3918C75.629 46.5838 75.9548 46.2638 75.7609 46.068C75.5124 45.8623 75.2944 45.6225 75.1132 45.3557C75.0492 45.2277 74.9212 45.2277 74.7893 45.2917C74.0844 45.8185 73.2022 46.0508 72.3292 45.9393C71.8348 45.8171 71.3704 45.5958 70.9641 45.2888C70.5578 44.9817 70.2181 44.5954 69.9657 44.1531C69.9145 43.844 69.8281 43.3281 69.4127 43.1291C68.9257 42.779 68.7932 41.972 68.5455 41.4184C68.887 40.9391 69.1262 40.3947 69.2482 39.819ZM72.5897 46.4001C71.0268 47.3499 68.6857 45.9771 68.5756 44.2145C68.5859 44.0738 68.6496 43.9424 68.7537 43.8472C68.8579 43.752 68.9945 43.7002 69.1356 43.7025C69.2892 43.8062 69.318 44.2069 69.3596 44.3893C69.469 44.8264 69.9951 45.5246 70.3945 45.3608C70.9728 45.9663 71.7547 46.3365 72.5897 46.4001ZM35.5497 50.2401C34.7107 50.1268 33.881 49.9529 33.0671 49.7198C33.9305 49.4459 34.7893 48.1838 35.6597 48.8526C35.821 49.092 35.4306 49.204 35.4293 49.4254C35.3749 49.7941 35.8421 49.7211 35.9759 49.9579C35.9327 50.0361 35.8715 50.103 35.7974 50.1529C35.7233 50.2029 35.6384 50.2345 35.5497 50.2453V50.2401ZM42.9097 51.108C40.7298 50.9275 38.3701 50.66 36.4674 50.3835C36.5274 50.3013 36.5695 50.2075 36.5909 50.108C36.6124 50.0086 36.6127 49.9057 36.5919 49.8061C36.5711 49.7065 36.5296 49.6124 36.4701 49.5298C36.4106 49.4473 36.3345 49.3781 36.2466 49.3269C36.3011 49.2176 36.3312 49.0977 36.3346 48.9756C36.3381 48.8535 36.3149 48.7321 36.2666 48.6198C36.2184 48.5076 36.1463 48.4073 36.0553 48.3258C35.9643 48.2443 35.8566 48.1836 35.7397 48.148C37.5053 46.9915 39.3438 45.9504 41.2437 45.0312C41.9446 45.0612 42.6178 45.313 43.1663 45.7503C43.7148 46.1877 44.1101 46.788 44.2954 47.4646C44.4807 48.1412 44.4462 48.8591 44.197 49.5149C43.9479 50.1706 43.4968 50.7303 42.909 51.1131L42.9097 51.108ZM44.0617 50.9531C44.4722 50.49 44.768 49.9368 44.9253 49.3383C45.0826 48.7398 45.097 48.1126 44.9672 47.5075C44.8375 46.9024 44.5672 46.3363 44.1784 45.8549C43.7895 45.3734 43.2928 44.9902 42.7285 44.7361C49.3269 43.4721 56.4213 42.219 65.2924 40.7515C65.3148 41.371 65.8345 42.1544 66.5161 41.8209C66.7081 41.6929 66.7119 41.5182 66.8911 41.7934C66.9668 41.8877 67.0615 41.965 67.1691 42.0202C67.2767 42.0755 67.3947 42.1075 67.5154 42.1141C67.6361 42.1207 67.7569 42.1019 67.8699 42.0588C67.9829 42.0156 68.0855 41.9492 68.1711 41.8638C68.3349 42.2963 68.5285 42.7169 68.7503 43.1227C67.7007 43.4638 67.8127 44.747 68.3356 45.5285C68.0884 45.6936 67.856 45.8799 67.6412 46.0853C59.875 48.1319 52.0042 49.7586 44.0629 50.9582L44.0617 50.9531ZM34.7663 90.5179C34.7262 90.5305 34.684 90.5351 34.6422 90.5314C34.6003 90.5277 34.5596 90.5158 34.5223 90.4964C34.485 90.4769 34.452 90.4504 34.425 90.4181C34.398 90.3859 34.3776 90.3487 34.365 90.3086C33.9106 88.8586 33.0159 87.5861 31.8052 86.6678C30.5946 85.7495 29.128 85.2309 27.6092 85.1842C27.5243 85.1842 27.4429 85.1504 27.3829 85.0904C27.3229 85.0304 27.2892 84.949 27.2892 84.8642C27.2892 84.7793 27.3229 84.6979 27.3829 84.6379C27.4429 84.5779 27.5243 84.5442 27.6092 84.5442C29.265 84.588 30.8655 85.1493 32.1861 86.1492C33.5067 87.149 34.481 88.5373 34.9724 90.1192C34.9972 90.1994 34.9895 90.2861 34.951 90.3607C34.9124 90.4353 34.8461 90.4918 34.7663 90.5179ZM34.9372 87.7019C30.5564 80.8539 12.4181 79.8843 4.87637 80.7067C14.4181 73.4248 24.9084 67.2334 35.0639 61.2353C42.2178 56.4001 50.4239 54.6126 59.5791 55.7576C59.7276 57.6597 61.2079 57.8421 62.9429 57.9061C65.5989 57.9061 68.7247 54.9397 69.8901 52.2203C70.7147 50.6609 71.3817 49.0232 71.8812 47.3313C72.2064 47.2858 72.5205 47.181 72.8079 47.0222C71.1708 50.4264 70.5596 54.7157 67.3538 57.0094C67.0581 57.2238 67.309 57.5707 67.5516 57.6981C68.6645 58.1313 69.6156 58.5301 70.5538 59.0056C69.3077 59.54 68.0156 60.5416 66.8041 60.9505C60.0757 56.7765 50.7586 56.8117 42.95 58.1985C35.8121 61.5861 29.7781 66.2549 22.8802 70.0801C18.4879 72.6267 13.9465 75.2597 9.60597 78.1102C9.54733 78.1488 9.50301 78.2057 9.47985 78.2719C9.45668 78.3382 9.45596 78.4103 9.47779 78.477C9.49962 78.5437 9.5428 78.6014 9.60066 78.6412C9.65852 78.681 9.72785 78.7006 9.79797 78.6971C15.9084 78.2925 22.0405 79.0347 27.878 80.8853C30.4546 81.6866 33.613 82.9525 35.1989 85.6488C34.9917 86.312 34.9031 87.0066 34.9372 87.7006V87.7019ZM39.1529 69.2661C32.7964 70.8225 33.7071 68.5832 35.0191 63.4241C38.7471 61.371 41.7173 58.4136 46.3241 58.3041C53.2783 57.7921 60.4956 57.8139 66.2434 61.3653C63.5228 62.9083 60.8034 64.5409 58.109 66.2613C57.6233 66.4718 57.1682 67.0843 56.6492 66.9902C50.7542 67.1424 44.8908 67.9046 39.1529 69.2648V69.2661ZM55.9209 67.6603C53.8799 68.9902 51.7775 70.4289 49.5164 72.043C48.7925 71.9477 47.2802 72.5045 46.8105 71.963C46.1871 71.0824 46.3625 69.6315 46.2799 68.58C49.4745 68.1023 52.6923 67.7948 55.9196 67.659L55.9209 67.6603ZM28.0745 80.276C22.5429 78.5312 16.7504 77.7605 10.9551 77.9982C18.6549 73.0984 26.6229 68.7822 34.2511 63.8997C32.5487 69.6462 33.2911 71.4593 39.3148 69.8856C41.4212 69.4069 43.5356 69.0015 45.6578 68.6696C45.6362 69.4645 45.6812 70.2598 45.7922 71.0472C45.9695 72.6792 47.1029 73.0574 48.5199 72.7541C45.0632 75.2953 41.7645 78.0447 38.6421 80.987C37.3321 82.063 36.2582 83.3977 35.4876 84.9077C33.6943 82.276 30.4245 81.0145 28.0732 80.2747L28.0745 80.276ZM51.284 87.7601C51.2598 87.8414 51.2042 87.9098 51.1295 87.9501C51.0549 87.9904 50.9673 87.9994 50.886 87.9752C50.9666 87.876 35.5093 84.0475 36.8783 90.5352C36.8874 90.5762 36.8883 90.6187 36.8809 90.6601C36.8736 90.7015 36.8582 90.7411 36.8356 90.7765C36.813 90.812 36.7836 90.8426 36.7492 90.8667C36.7147 90.8908 36.6758 90.9079 36.6348 90.9169C36.5937 90.926 36.5513 90.9269 36.5099 90.9196C36.4685 90.9123 36.4289 90.8969 36.3935 90.8742C36.358 90.8516 36.3274 90.8223 36.3033 90.7878C36.2792 90.7533 36.2621 90.7145 36.253 90.6734C35.5804 87.9566 38.237 86.0161 41.6201 86.1217C44.8111 86.1035 47.9898 86.5201 51.0684 87.3601C51.1086 87.3722 51.1461 87.3921 51.1787 87.4187C51.2113 87.4453 51.2383 87.4781 51.2582 87.5151C51.2781 87.5521 51.2905 87.5927 51.2947 87.6345C51.299 87.6764 51.2949 87.7186 51.2828 87.7589L51.284 87.7601ZM60.6882 87.2097C60.6612 87.2902 60.6034 87.3566 60.5274 87.3944C60.4514 87.4323 60.3636 87.4383 60.2831 87.4113C60.2191 87.3889 53.6853 85.2059 48.8783 84.5358C43.7698 83.8242 38.5359 84.9198 36.9628 87.028C36.7279 87.3653 36.1909 86.9749 36.4508 86.644C38.4194 84.0033 44.3657 83.259 48.9679 83.9003C53.8319 84.5787 60.4239 86.7803 60.4879 86.8027C60.568 86.8302 60.634 86.8884 60.6713 86.9644C60.7086 87.0405 60.7142 87.1283 60.6869 87.2085L60.6882 87.2097ZM70.4802 89.0382C68.3629 87.2723 65.9288 85.9256 63.3077 85.0702C58.58 83.3761 53.5885 82.5368 48.5666 82.5915C45.0108 82.7765 37.2969 83.1035 35.5644 87.1528C35.6764 84.8609 37.277 83.0683 39.0786 81.4568C47.5516 73.3352 60.4655 65.0728 70.6025 59.6904C73.0626 58.3784 76.4169 57.8683 80.5647 58.1717C80.3253 58.5243 80.1109 59.6961 79.6917 59.5445C77.4137 59.2381 75.1081 59.1939 72.8201 59.4126C72.778 59.4162 72.7371 59.4281 72.6997 59.4475C72.6622 59.4669 72.629 59.4935 72.6018 59.5258C72.5747 59.5581 72.5541 59.5954 72.5414 59.6356C72.5287 59.6758 72.524 59.7181 72.5276 59.7601C72.5349 59.845 72.5756 59.9235 72.6408 59.9784C72.673 60.0055 72.7103 60.0261 72.7505 60.0388C72.7907 60.0515 72.8331 60.0562 72.8751 60.0526C75.0939 59.8409 77.3296 59.8813 79.5394 60.1729C79.1452 60.8148 78.7014 61.4249 78.2121 61.9976C78.165 61.9356 78.0965 61.8934 78.0201 61.8792C75.6797 61.4867 73.2964 61.4201 70.9378 61.6814C70.8958 61.686 70.8551 61.6988 70.818 61.7191C70.7809 61.7394 70.7482 61.7669 70.7218 61.7998C70.6953 61.8328 70.6756 61.8706 70.6637 61.9112C70.6519 61.9518 70.6481 61.9943 70.6527 62.0363C70.6573 62.0783 70.6701 62.119 70.6904 62.1561C70.7107 62.1932 70.7381 62.2259 70.7711 62.2524C70.804 62.2788 70.8419 62.2986 70.8825 62.3104C70.923 62.3223 70.9655 62.326 71.0076 62.3214C73.2786 62.0703 75.5734 62.1308 77.8281 62.5013C77.3199 63.0318 76.6869 64.0469 75.9721 64.1544C75.7852 64.0533 68.662 62.5192 70.5596 63.9406C72.2019 64.0515 73.832 64.3005 75.4325 64.6849C74.6965 65.3173 73.4972 65.1413 72.7708 65.7313C72.4021 65.8817 72.164 66.3137 72.3689 66.5819C71.6648 66.4693 66.5397 65.4939 66.5071 66.3413C66.5071 66.4261 66.5408 66.5075 66.6008 66.5675C66.6608 66.6275 66.7422 66.6613 66.8271 66.6613C67.6501 66.7528 72.9852 66.6568 71.8709 67.6526C71.5938 68.0475 71.4997 68.9365 72.1372 68.9921C72.2946 68.932 72.1506 69.4254 72.3106 69.5918C68.1031 67.9762 63.5796 67.3531 59.0921 67.771C59.0072 67.779 58.929 67.8204 58.8746 67.886C58.8202 67.9517 58.7942 68.0362 58.8021 68.1211C58.8101 68.206 58.8515 68.2842 58.9171 68.3386C58.9828 68.3929 59.0673 68.419 59.1522 68.411C68.0585 67.4926 76.7234 71.115 82.8847 77.3486C82.9473 77.3488 83.0085 77.3306 83.0608 77.2963C83.1131 77.262 83.1543 77.2132 83.1791 77.1558C83.204 77.0984 83.2115 77.0349 83.2006 76.9733C83.1898 76.9117 83.1612 76.8546 83.1183 76.8091C80.2721 73.7985 76.8146 71.4317 72.9781 69.8677C73.1425 69.7882 73.2794 69.6614 73.3711 69.5035C73.3757 69.6114 73.4115 69.7157 73.474 69.8038C73.5366 69.8919 73.6233 69.96 73.7237 69.9999C73.8241 70.0398 73.9339 70.0498 74.0398 70.0287C74.1458 70.0077 74.2434 69.9564 74.3209 69.8811C74.8323 69.2982 75.4106 68.7775 76.0437 68.3297C79.2782 69.6004 82.1966 71.5613 84.5954 74.0757C84.6239 74.1077 84.6586 74.1337 84.6973 74.1521C84.7361 74.1705 84.7781 74.1809 84.821 74.1827C84.8638 74.1845 84.9066 74.1777 84.9468 74.1626C84.9869 74.1476 85.0237 74.1246 85.0548 74.0951C85.0859 74.0656 85.1107 74.0301 85.1279 73.9908C85.145 73.9514 85.154 73.9091 85.1545 73.8662C85.1549 73.8233 85.1467 73.7808 85.1304 73.7411C85.1141 73.7015 85.0899 73.6655 85.0594 73.6353C82.8045 71.2751 80.1007 69.3892 77.1068 68.0885C78.6526 67.9653 80.1655 67.5756 81.5785 66.9365C84.0571 68.1859 86.342 69.7871 88.3624 71.6904C88.3927 71.7207 88.4287 71.7446 88.4684 71.7607C88.5081 71.7768 88.5506 71.7848 88.5934 71.7842C88.6362 71.7836 88.6785 71.7744 88.7177 71.7572C88.7569 71.7399 88.7922 71.715 88.8216 71.6839C88.851 71.6527 88.8738 71.616 88.8888 71.5759C88.9037 71.5357 88.9104 71.493 88.9086 71.4502C88.9067 71.4075 88.8962 71.3655 88.8779 71.3268C88.8595 71.2881 88.8335 71.2536 88.8015 71.2251C86.8613 69.3993 84.6828 67.8447 82.3253 66.6037C83.3843 66.1177 84.4004 65.5433 85.3628 64.8865C87.7634 66.0645 89.9749 67.5941 91.924 69.4248C92.2197 69.7141 92.6709 69.2392 92.3624 68.9589C90.4509 67.1657 88.2933 65.6546 85.9548 64.4712C86.7176 63.9047 87.4326 63.2765 88.0924 62.5928C90.3193 63.5856 92.4184 64.8431 94.3445 66.3381C94.3782 66.3636 94.4165 66.3822 94.4573 66.3929C94.4981 66.4036 94.5406 66.4062 94.5824 66.4004C94.6242 66.3947 94.6645 66.3808 94.701 66.3595C94.7374 66.3382 94.7693 66.3099 94.7948 66.2763C94.8203 66.2427 94.8389 66.2044 94.8496 66.1636C94.8603 66.1227 94.8629 66.0802 94.8571 66.0384C94.8514 65.9966 94.8375 65.9563 94.8162 65.9199C94.7949 65.8835 94.7666 65.8516 94.733 65.8261C92.8267 64.3479 90.7555 63.0956 88.5609 62.0942C89.1719 61.4115 89.7236 60.678 90.2101 59.9016C94.0612 61.1144 97.7235 62.8606 101.09 65.0894C99.2757 66.0949 91.1701 72.6414 87.9912 74.9589C86.694 75.9099 70.5468 88.9665 70.4802 89.0369V89.0382ZM74.6261 67.4024C74.0175 67.0088 73.0703 68.6273 72.8706 69.0517C73.0511 68.3393 73.4531 67.7026 74.0188 67.2334C74.0807 67.181 74.1206 67.1072 74.1308 67.0267C74.1409 66.9463 74.1204 66.8649 74.0734 66.7988C74.0265 66.7326 73.9564 66.6866 73.877 66.6696C73.7977 66.6527 73.7149 66.6662 73.645 66.7073C73.8196 66.6022 74.0031 66.5126 74.1935 66.4398C74.2579 66.4149 74.3126 66.3698 74.3493 66.3113C74.386 66.2527 74.4027 66.1839 74.397 66.115C74.3913 66.0461 74.3635 65.981 74.3177 65.9292C74.2719 65.8775 74.2106 65.842 74.1429 65.828C75.2706 65.3089 76.1909 66.404 76.3663 67.4005C75.4572 67.8507 74.6597 68.4975 74.0316 69.2942C74.1188 68.7604 74.3335 68.2554 74.6575 67.8222C74.704 67.76 74.7263 67.6829 74.7202 67.6054C74.7141 67.5279 74.68 67.4553 74.6242 67.4011L74.6261 67.4024ZM71.5625 96.8059L71.3321 93.5304C73.1065 91.9292 75.014 90.4818 77.0338 89.204C77.1054 89.1584 77.156 89.0862 77.1745 89.0034C77.1929 88.9205 77.1776 88.8337 77.1321 88.7621C77.0865 88.6904 77.0143 88.6399 76.9314 88.6214C76.8486 88.603 76.7618 88.6183 76.6901 88.6638C74.7818 89.874 72.9714 91.2322 71.2757 92.7259L71.1919 91.5323L86.8418 78.7573C86.8744 78.7307 86.9014 78.6979 86.9213 78.6609C86.9412 78.6238 86.9536 78.5832 86.9578 78.5414C86.9621 78.4996 86.958 78.4573 86.9459 78.417C86.9338 78.3768 86.9139 78.3393 86.8873 78.3067C86.8607 78.2741 86.8279 78.2471 86.7909 78.2272C86.7538 78.2073 86.7132 78.1949 86.6714 78.1907C86.6295 78.1865 86.5873 78.1905 86.547 78.2026C86.5068 78.2147 86.4693 78.2347 86.4367 78.2613L71.1369 90.7521L71.0498 89.5138C79.2757 83.1509 79.6425 81.8888 94.0181 71.1893C95.7109 69.8728 99.4799 66.8021 101.302 65.6853C101.113 66.7748 101.015 67.8781 101.009 68.9838L92.8476 75.6033C92.7963 75.645 92.7592 75.7016 92.7413 75.7652C92.7235 75.8288 92.7257 75.8964 92.7478 75.9586C92.7699 76.0209 92.8107 76.0748 92.8647 76.113C92.9187 76.1511 92.9831 76.1716 93.0492 76.1717C93.2207 76.1717 92.6069 76.6197 100.985 69.8305C100.972 70.1979 100.96 70.4993 100.949 70.5531C100.341 71.3019 77.3058 91.7064 71.5625 96.8046V96.8059ZM110.127 88.9294L112.274 89.0421C112.073 91.745 111.002 94.31 109.221 96.3528C108.751 95.9649 107.493 94.4328 107.024 94.9774C106.979 95.0491 106.964 95.1358 106.982 95.2186C107.001 95.3014 107.051 95.3735 107.123 95.419C107.732 95.8184 108.291 96.2901 108.787 96.8238C107.011 98.6447 104.788 99.9664 102.34 100.656L101.776 98.6248C101.751 98.5452 101.696 98.4784 101.623 98.4384C101.55 98.3985 101.464 98.3887 101.384 98.411C101.304 98.4333 101.235 98.4861 101.193 98.558C101.151 98.63 101.139 98.7155 101.159 98.7963L101.729 100.844C99.318 101.475 96.826 101.741 94.3362 101.632L94.6607 99.4664C94.6693 99.3844 94.6459 99.3023 94.5955 99.2371C94.545 99.1719 94.4714 99.1288 94.3898 99.1165C94.3083 99.1043 94.2253 99.124 94.1579 99.1716C94.0906 99.2191 94.0442 99.2908 94.0284 99.3717L93.6905 101.624C91.6774 101.595 89.6674 101.459 87.6687 101.217C89.3845 92.7265 90.9033 85.8721 92.5833 79.0344C94.4392 77.2187 96.196 75.8056 97.4133 74.6574C97.5733 75.003 98.0962 74.8917 98.406 75.0043C98.3292 75.5029 97.7122 77.3563 98.4239 77.4651C98.5088 77.4651 98.5901 77.4314 98.6502 77.3714C98.7102 77.3114 98.7439 77.23 98.7439 77.1451C98.7487 76.4622 98.8473 75.7832 99.037 75.1272C100.917 75.4912 102.751 76.0622 104.506 76.8296L103.395 78.6625C103.373 78.6985 103.359 78.7384 103.352 78.78C103.346 78.8216 103.348 78.864 103.358 78.9048C103.368 78.9456 103.386 78.9841 103.411 79.0179C103.436 79.0518 103.467 79.0805 103.503 79.1022C103.539 79.124 103.579 79.1385 103.62 79.1448C103.662 79.1512 103.704 79.1493 103.745 79.1392C103.786 79.1292 103.824 79.1112 103.858 79.0863C103.892 79.0614 103.921 79.03 103.943 78.9941L105.089 77.1035C107.51 78.3246 109.29 79.7518 110.521 81.8113L108.899 82.6216C108.861 82.6396 108.826 82.6652 108.797 82.6969C108.768 82.7286 108.746 82.7658 108.732 82.8062C108.717 82.8467 108.712 82.8895 108.714 82.9323C108.717 82.9751 108.728 83.0169 108.747 83.0552C108.767 83.0935 108.793 83.1276 108.826 83.1554C108.858 83.1833 108.896 83.2043 108.937 83.2172C108.978 83.2301 109.021 83.2347 109.064 83.2307C109.106 83.2266 109.148 83.2141 109.185 83.1937L110.837 82.3688C111.834 84.2198 112.335 86.2965 112.294 88.3982L110.161 88.2862C110.076 88.2817 109.992 88.3112 109.929 88.3682C109.866 88.4253 109.827 88.5051 109.823 88.5902C109.818 88.6754 109.848 88.7588 109.905 88.8221C109.962 88.8855 110.042 88.9236 110.127 88.9281V88.9294Z" fill="black"/>
</svg>
