<svg width="128" height="128" viewBox="0 0 128 128" fill="none" xmlns="http://www.w3.org/2000/svg">
<path d="M83.0146 14.4515C82.7074 14.1763 81.7922 14.2339 81.6322 14.6883C81.8478 14.5975 82.0771 14.5434 82.3106 14.5283C82.5433 14.4869 82.7785 14.4612 83.0146 14.4515ZM85.1842 14.7971C85.5427 14.9066 85.885 15.0637 86.2018 15.2643C86.1758 15.1599 86.1267 15.0628 86.058 14.98C85.9894 14.8972 85.903 14.8309 85.8053 14.786C85.7076 14.7412 85.601 14.7189 85.4935 14.7208C85.386 14.7227 85.2803 14.7488 85.1842 14.7971ZM84.4802 16.0707V17.9075C84.5198 18.1646 84.4677 18.4274 84.333 18.6499C84.173 18.8291 83.693 18.9827 83.469 18.8099C83.6598 18.9809 83.9041 19.0804 84.1602 19.0915C85.485 19.1043 84.4226 16.7363 84.4802 16.0707ZM82.2594 15.7699C82.0034 15.7699 81.965 16.5059 82.2274 16.5059C82.4898 16.5059 82.5602 15.7699 82.2594 15.7699ZM85.6002 15.9171C85.3186 15.9171 85.3698 16.6403 85.6002 16.6403C85.8306 16.6403 85.837 15.9171 85.6002 15.9171ZM81.7858 18.6051C81.5746 19.5779 82.7394 20.6275 83.6674 20.1091C83.2402 20.0723 82.8335 19.9099 82.4987 19.6422C82.1638 19.3745 81.9157 19.0136 81.7858 18.6051ZM33.7922 34.5155C33.8222 34.5869 33.8586 34.6554 33.901 34.7203C33.8758 34.6467 33.839 34.5776 33.7922 34.5155ZM60.0002 92.9411C59.4818 92.5507 58.8098 92.7683 58.2274 92.8451C36.5186 95.5459 18.8034 96.3587 17.9074 96.8451C16.7682 97.4467 17.1394 99.4563 18.5474 99.3411C31.5906 98.2595 44.6402 97.2035 57.6514 95.5971C58.3662 95.576 59.0756 95.4663 59.7634 95.2707C59.9848 95.1784 60.1773 95.028 60.3203 94.8354C60.4633 94.6428 60.5516 94.4151 60.5759 94.1764C60.6002 93.9377 60.5595 93.6969 60.4581 93.4795C60.3568 93.262 60.1986 93.076 60.0002 92.9411ZM115.053 105.274C114.675 103.731 113.133 103.994 111.949 104.071L107.706 104.365C106.573 104.448 105.075 104.365 104.698 105.722C104.583 106.138 104.634 106.163 104.864 109.517C104.941 110.599 104.73 112.608 105.645 113.402C106.445 114.099 107.898 113.741 108.845 113.677C115.181 113.229 113.671 113.351 113.907 113.319C114.356 113.278 114.772 113.065 115.067 112.726C115.363 112.386 115.516 111.945 115.495 111.495C115.495 110.464 115.347 109.427 115.277 108.397C115.286 107.352 115.211 106.307 115.053 105.274ZM7.31537 52.0259C14.7195 51.9165 22.1022 51.1994 29.389 49.8819C18.5026 51.0915 14.1122 51.4627 7.31537 52.0259ZM15.0082 45.9075C20.1761 45.7895 25.3249 45.2372 30.4002 44.2563C25.2674 44.7299 20.1218 45.2867 15.0082 45.9075ZM87.853 43.9299C95.3026 43.2899 102.739 42.3683 110.151 41.3699C118.227 40.3011 116.973 40.4291 108.64 41.3123C101.703 42.0611 94.7586 42.8803 87.853 43.9299ZM100.871 37.1843C106.797 36.7299 112.762 35.9939 118.624 34.9891C114.874 35.2707 107.085 36.1219 100.871 37.1843ZM16.3522 17.2803C23.4132 17.0076 30.4478 16.2592 37.4082 15.0403C35.2514 15.2195 16.4162 17.2419 16.3522 17.2803Z" fill="black"/>
<path d="M118.522 84.045C117.786 75.853 117.383 73.0434 115.501 58.1506C115.429 57.0605 115.214 55.9846 114.861 54.9506C114.532 54.0974 113.95 53.3653 113.192 52.8528C112.435 52.3402 111.539 52.0718 110.624 52.0834C109.242 52.0258 92.237 53.325 89.2482 53.5426C88.941 53.4402 88.6786 52.9026 88.461 52.5954C85.901 49.2482 80.2434 45.2482 76.5954 43.6354C77.0434 42.9954 76.909 42.1186 77.0626 41.3762C77.4338 39.6162 79.3154 38.4578 80.8258 35.085C81.7794 32.9602 81.4658 33.2226 81.8882 33.1266C84.8371 33.2837 87.7928 33.2644 90.7394 33.069C102.579 32.0642 111.36 24.9602 113.28 20.0706C113.767 20.1482 114.261 20.1654 114.752 20.1218C115.148 20.0947 115.52 19.9213 115.795 19.6354C116.327 19.0722 116.602 18.0994 115.731 17.7154C116.09 17.645 116.877 17.4786 116.711 16.9346C116.474 16.1858 114.477 16.461 113.671 16.7042C112.391 17.0754 112.256 17.4082 111.885 17.4466C111.514 17.485 112.058 17.3186 110.605 17.5426C108.781 17.8242 106.701 18.0866 104.787 18.4002C96.4162 19.7762 96.0578 21.6002 94.189 21.4786C91.1021 21.1267 87.9859 21.1138 84.8962 21.4402C86.6946 19.4434 86.8738 14.541 86.893 14.477C86.9762 14.1698 86.9698 14.2786 87.3218 14.2466C89.0498 14.0674 90.5986 12.909 90.349 11.213C90.2515 10.5958 89.98 10.0192 89.5662 9.55102C89.1524 9.08282 88.6136 8.74241 88.013 8.5698C89.0882 8.0706 88.6914 6.6498 87.9362 6.0802C87.5975 5.79526 87.1906 5.60302 86.7554 5.52226C86.3202 5.44149 85.8715 5.47496 85.453 5.6194C85.6322 4.9218 85.0242 4.4674 84.4418 4.2818C84.0897 4.16957 83.7175 4.13491 83.3507 4.18021C82.9839 4.22551 82.6313 4.34968 82.317 4.5442C82.765 2.829 78.541 2.573 78.6306 4.7042C76.4098 3.6482 74.861 6.9762 75.373 6.9058C74.4066 7.0274 73.357 8.4354 74.1826 9.2802C73.8633 9.41085 73.5733 9.60377 73.3293 9.8477C73.0854 10.0916 72.8925 10.3817 72.7618 10.701C72.7037 10.8515 72.6771 11.0123 72.6837 11.1734C72.6903 11.3346 72.7299 11.4927 72.8001 11.6379C72.8703 11.7831 72.9696 11.9124 73.0919 12.0176C73.2141 12.1229 73.3566 12.2019 73.5106 12.2498C72.8194 12.685 72.7618 14.0738 73.7218 14.2402C73.5891 14.3598 73.4854 14.508 73.4185 14.6737C73.3516 14.8393 73.3232 15.018 73.3355 15.1962C73.3479 15.3744 73.4006 15.5474 73.4897 15.7023C73.5788 15.8571 73.7019 15.9896 73.8498 16.0898C73.9906 16.1922 74.2978 16.2626 74.285 16.493C74.285 16.5698 74.0098 16.8514 73.9714 16.9538C73.8883 17.1723 73.8883 17.4137 73.9714 17.6322C74.1378 18.0354 74.4386 18.0354 74.7778 18.189C74.861 18.2338 75.213 18.4322 75.2066 18.7522C75.162 19.1581 74.9816 19.537 74.6946 19.8274C74.4514 19.9746 74.4258 19.8274 74.2018 19.693C71.2856 17.6219 68.0014 16.1253 64.525 15.2834C59.1842 13.9292 53.5839 13.9796 48.2682 15.4296C42.9526 16.8797 38.1025 19.68 34.189 23.5586C34.0866 23.661 33.7154 24.1986 33.549 24.1986C33.3663 24.1102 33.1908 24.0075 33.0242 23.8914C32.7717 23.7756 32.501 23.7041 32.2242 23.6802C32.3266 23.4882 32.7682 23.0402 32.6466 22.861C32.6466 22.8226 27.4818 22.9506 27.4626 22.9634C27.1746 23.085 27.1042 23.6418 27.021 23.9298C26.2082 26.8994 26.9698 28.5506 27.021 30.2466C27.0697 31.7867 27.3993 33.305 27.9938 34.7266C28.1346 35.053 28.3714 35.8914 28.7298 36.045C30.5102 36.097 32.2907 35.9424 34.0354 35.5842C34.3106 35.4882 34.285 35.5842 34.2402 35.3602C34.1646 35.1315 34.0545 34.9157 33.9138 34.7202C34.0034 34.957 34.0994 35.309 34.157 35.4178C32.7345 35.6199 31.2994 35.7204 29.8626 35.7186C29.6074 35.7474 29.3498 35.7474 29.0946 35.7186C28.8834 35.7826 28.7618 35.7186 28.7234 35.4946C27.8262 33.744 27.2784 31.8354 27.1106 29.8754C27.5059 31.2712 28.1712 32.5759 29.069 33.7154C29.3506 34.061 29.8754 34.861 30.349 34.9954C30.6384 35.0174 30.9293 34.9848 31.2066 34.8994C33.9906 34.5218 33.7666 34.477 33.837 34.541C34.1186 34.4962 34.4066 34.477 34.6818 34.4194C35.149 34.3106 34.9954 34.221 34.6818 33.8306C33.8174 32.731 33.1029 31.5215 32.557 30.2338C33.101 30.2338 33.7154 29.2226 33.9266 29.0498C34.1378 28.877 34.0802 28.9538 34.4066 29.0818C34.9427 29.2382 35.4996 29.3115 36.0578 29.2994C38.123 29.4169 40.1949 29.3204 42.2402 29.0114C48.6402 28.0898 50.253 25.4338 52.9474 26.7138C51.3858 28.205 49.613 29.997 48.8706 32.077C48.525 33.037 48.8706 33.229 48.8706 33.645C48.8706 33.9138 48.8706 33.8626 48.6018 34.061C37.7602 42.2402 42.7266 51.021 44.3714 57.3314C9.17143 60.2178 13.2866 59.3858 11.6354 60.1794C8.08343 61.8882 9.30583 66.4194 9.56823 69.5234C13.9458 121.811 13.0882 120.922 14.573 123.053C15.853 124.928 18.253 124.915 20.2946 124.704C42.4066 122.458 112.826 118.503 117.056 117.664C119.469 117.197 120.583 115.328 120.679 112.992C120.813 109.651 118.823 87.437 118.522 84.045ZM115.104 19.8402C114.4 19.2706 114.554 18.9762 115.687 19.3474C115.545 19.5652 115.342 19.7366 115.104 19.8402ZM115.84 19.1042C115.729 19.0505 115.614 19.0077 115.495 18.9762C115.587 18.8585 115.665 18.7294 115.725 18.5922C115.759 18.4975 115.767 18.3958 115.749 18.297C115.731 18.1982 115.687 18.1058 115.623 18.029C116.09 18.2658 116.103 18.5218 115.904 18.9762L115.84 19.1042ZM114.483 16.8002C114.823 16.7682 116.179 16.621 116.359 17.0306C116.487 17.325 115.719 17.4146 115.463 17.4786C114.989 17.6066 114.637 17.4018 114.151 17.4786C114.51 17.5241 114.85 17.6706 115.13 17.901C115.584 18.3234 115.616 18.541 114.752 18.4258C114.624 18.4258 114.483 18.6882 114.394 18.7714C114.306 18.8691 114.2 18.9483 114.081 19.0043C113.962 19.0604 113.834 19.0922 113.703 19.0978C113.844 19.1431 113.996 19.151 114.141 19.1208C114.287 19.0905 114.423 19.023 114.535 18.925C114.048 19.2578 114.72 19.725 115.002 19.8658C114.672 19.9851 114.315 20.0116 113.971 19.9426C113.753 19.9377 113.537 19.8966 113.331 19.821C113.267 19.7698 112.749 18.2274 112.019 17.6386C112.774 17.2114 113.6 16.9272 114.458 16.8002H114.483ZM32.9346 24.045C33.0925 24.1399 33.2443 24.2447 33.389 24.3586C33.0899 24.6703 32.8589 25.0408 32.7106 25.4466C32.5762 25.7858 32.6594 25.8114 32.3458 25.8818C32.1282 25.933 31.8594 25.8818 31.6354 25.9394C31.652 25.3869 31.7557 24.8404 31.9426 24.3202C32.2242 23.5778 32.077 23.5458 32.9346 24.045ZM32.781 25.901H32.557C32.6274 25.7858 32.6978 25.677 32.7746 25.5682C32.7623 25.6789 32.7644 25.7908 32.781 25.901ZM32.5506 30.4578C33.0802 31.7853 33.7956 33.0308 34.6754 34.157L31.2642 34.5602C31.0155 34.6252 30.7597 34.6596 30.5026 34.6626C30.1698 34.5986 29.8626 34.1442 29.6258 33.8818C28.56 32.6316 27.7844 31.1607 27.3551 29.5749C26.9257 27.9891 26.8531 26.3278 27.1426 24.7106C27.1938 24.4354 27.2962 23.4306 27.5394 23.2322C27.6162 23.181 27.3474 23.2834 32.4994 23.0018C31.9658 23.7568 31.6432 24.6405 31.565 25.5618C31.565 25.9394 31.5202 25.8626 31.1746 25.9522C30.9859 25.9923 30.806 26.066 30.6434 26.1698C30.2978 26.4322 30.317 26.765 30.7714 26.9122C30.503 26.9493 30.2467 27.0478 30.0226 27.2002C29.9458 27.2642 29.8498 27.4562 29.7666 27.4882C29.6092 27.5047 29.4505 27.5047 29.293 27.4882C29.0091 27.5122 28.7368 27.6122 28.5048 27.7778C28.2728 27.9433 28.0897 28.1683 27.9746 28.429C27.3346 30.1186 30.4962 31.0594 31.277 29.5682C31.3666 29.4018 31.3538 29.1522 31.4754 29.069C31.5689 29.0563 31.6636 29.0563 31.757 29.069C32.333 29.0242 31.9746 29.3122 32.0706 29.709C32.1666 30.1058 32.3458 29.9458 32.5506 30.4578ZM30.1698 28.8514C30.2402 29.1202 31.341 29.3186 31.3858 29.1458C31.0338 30.6882 28.1858 30.2786 28.2626 28.7938C28.301 28.0194 29.0946 27.7058 29.7474 27.5842C29.5362 27.6226 29.8242 28.0514 29.869 28.077C30.1222 28.1764 30.401 28.1899 30.6626 28.1154C30.4258 28.237 30.0802 28.5506 30.1698 28.8514ZM32.0898 29.0882C32.1578 29.0787 32.2267 29.0787 32.2946 29.0882C32.2364 29.1491 32.1907 29.2208 32.1602 29.2994C32.1346 29.2162 32.109 29.1522 32.0898 29.0882ZM33.5618 29.2802C33.2738 29.5618 32.6274 30.349 32.3522 29.7922C32.1218 29.3378 32.5826 29.3506 32.6658 28.9986C32.749 28.6466 32.5762 28.8066 32.3522 28.813L31.5458 28.8514C31.3026 28.8514 30.5154 29.037 30.4898 28.6722C30.4642 28.3074 31.405 28.141 31.6226 28.0322C31.9938 27.853 31.917 27.7186 31.565 27.6802C30.925 27.6162 30.061 28.0578 30.0546 27.6802C30.0482 27.3026 31.0402 27.245 31.2386 27.2066C31.437 27.1682 31.8786 27.1298 31.6098 26.8482C31.4434 26.6754 30.4258 26.925 30.7586 26.4194C30.9122 26.1954 32.5314 25.8562 32.8002 26.061C32.8734 26.3292 32.9227 26.6033 32.9474 26.8802C33.1088 27.601 33.4627 28.2646 33.9714 28.8002C33.8434 28.9794 33.7026 29.133 33.5618 29.2802ZM52.1218 26.1506C50.8709 26.0547 49.6195 26.3308 48.525 26.9442C46.0482 28.1474 40.7234 29.2162 36.365 28.8642C34.7906 28.7298 34.3746 28.6786 33.6578 27.341C33.3501 26.8498 33.186 26.2822 33.1842 25.7026C33.3079 25.1426 33.628 24.6454 34.0866 24.301C44.9666 13.165 62.2466 11.8786 73.6514 19.4946C73.7438 19.5492 73.8315 19.6113 73.9138 19.6802C73.9586 19.9746 74.029 20.429 74.0482 20.6466C74.2146 22.605 75.4498 25.261 77.3058 25.8562C78.4578 26.2338 80.1858 25.4978 79.8658 24.045C79.949 25.709 77.421 26.3938 75.9298 24.4226C74.9234 23.0447 74.2647 21.4441 74.0098 19.757C74.2722 19.9426 74.3554 20.1602 74.6498 19.9874C75.0658 19.7506 75.149 18.8418 75.2578 18.7074C75.4626 18.4514 76.0322 18.9506 76.5378 18.4834C76.6454 18.3624 76.7261 18.22 76.7747 18.0656C76.8232 17.9111 76.8385 17.7482 76.8194 17.5874C76.7729 17.4021 76.7387 17.214 76.717 17.0242C76.717 16.8834 76.8258 16.781 76.845 16.653C76.8962 16.2562 76.621 16.1602 76.3842 15.8786C76.1692 15.6178 76.0356 15.2995 76.0002 14.9634C75.949 14.4962 76.0642 13.6066 76.717 13.6834C77.3698 13.7602 77.357 14.637 77.6898 15.0594C77.7893 15.1636 77.9179 15.2354 78.0589 15.2655C78.1998 15.2955 78.3465 15.2824 78.4799 15.2278C78.6132 15.1732 78.727 15.0797 78.8064 14.9595C78.8858 14.8393 78.9272 14.6979 78.925 14.5538C78.925 13.7282 78.6114 12.8578 78.5602 11.9938C79.9554 12.0962 80.205 11.4818 80.621 11.5778C80.9026 11.6418 80.9026 11.9234 82.0802 12.781C83.4318 13.7076 85.0186 14.2314 86.6562 14.2914C86.5646 15.2628 86.4085 16.2271 86.189 17.1778C85.8882 18.5602 85.4402 20.2114 84.3778 21.2226C83.4754 22.093 82.0354 22.1058 80.8962 21.7602C80.6227 21.6664 80.3555 21.5553 80.0962 21.4274C79.7698 21.2866 79.757 21.2546 79.6354 21.6194C79.4487 22.008 79.3604 22.4366 79.3783 22.8674C79.3961 23.2982 79.5196 23.718 79.7378 24.0898C79.0018 22.7458 80.333 22.0418 81.5106 22.3042C82.0244 22.4788 82.5732 22.5245 83.1089 22.4375C83.6445 22.3505 84.1505 22.1333 84.5826 21.805C85.1414 21.6202 85.729 21.5378 86.317 21.5618C88.2844 21.4307 90.2587 21.4435 92.2242 21.6002C93.4146 21.7154 94.3938 22.0866 95.5458 21.5618C99.6994 19.6418 100.858 19.4306 110.458 17.9202C110.803 17.8626 111.456 17.6194 111.789 17.8178C111.962 17.9138 112.915 19.3666 112.871 19.9106C112.757 20.4158 112.522 20.8858 112.186 21.2802C108.954 26.0162 104.039 28.9602 98.6306 31.0402C93.2226 33.1202 87.3666 33.4146 81.7218 32.9602C82.0671 32.1977 82.3185 31.3961 82.4706 30.573C82.0866 31.9234 80.1154 36.4034 79.1682 37.3442C78.9122 37.6002 79.0402 37.4978 78.6882 37.421C77.4082 37.1202 77.3506 39.1234 75.4306 36.909C73.6258 34.829 72.0386 36.5506 71.0082 35.981C70.285 35.5842 70.2274 34.4386 69.7922 33.7986C69.4885 33.3789 69.0892 33.0375 68.6273 32.8026C68.1655 32.5678 67.6543 32.4463 67.1362 32.4482C66.157 32.3906 64.9538 32.6338 64.2178 31.8082C63.4818 30.9826 63.3218 29.7474 62.4066 29.0114C61.2738 28.0962 60.077 28.8194 59.7954 27.0914C59.7698 27.117 58.4514 26.7394 52.0898 26.1506H52.1218ZM79.6418 22.4194C79.725 22.1634 79.8146 21.9074 79.9042 21.6514C80.9154 22.3234 81.069 21.8242 79.6162 22.4002L79.6418 22.4194ZM49.9202 31.1746C50.9042 29.5609 52.0844 28.0755 53.4338 26.7522C53.5746 26.6434 57.9522 27.0594 57.9842 27.0786C58.1698 27.1682 58.1314 27.2514 58.1762 27.4882C58.244 27.9707 58.4248 28.4303 58.704 28.8296C58.9832 29.2289 59.3528 29.5565 59.7826 29.7858C61.0626 30.4258 61.0626 29.485 62.2018 31.7954C64.0706 35.5138 66.8034 33.1586 68.2242 34.5986C69.325 35.7122 68.9154 38.0802 72.1218 37.6642C72.7618 37.5874 73.4402 37.3506 73.9586 37.7922C74.6754 38.4322 75.1362 40.077 77.4978 39.469C76.3074 41.1714 76.6146 41.5938 76.2178 42.9826C75.6738 45.0114 73.1714 46.765 71.1362 47.4626C69.7707 47.8694 68.3248 47.9266 66.9314 47.629C56.013 45.805 49.4594 34.189 49.2674 33.0242C49.2737 32.3523 49.5034 31.7016 49.9202 31.1746ZM65.677 55.5586C62.3746 55.8466 62.829 55.8978 62.6434 55.6034C62.4578 55.309 62.4386 55.0274 62.061 54.2658C64.301 54.4002 64.6978 55.1106 65.6962 55.5586H65.677ZM9.93943 68.6914C9.72823 65.8434 8.93463 61.773 12.3202 60.5698C13.4402 60.1602 44.2114 57.933 44.2754 57.9394C44.5954 57.9778 44.5378 57.9842 44.6274 58.3874C46.7714 67.885 42.413 77.4466 35.1362 83.7954C35.6354 84.3266 36.1474 84.845 36.6722 85.357L36.205 85.7282C35.565 85.0882 34.925 84.4482 34.285 83.7506C36.8163 81.5921 38.9988 79.0556 40.7554 76.2306C30.7416 77.0839 20.7149 77.8903 10.6754 78.6498L9.93943 68.6914ZM38.9122 87.5074C38.1954 88.7874 41.7026 92.717 39.8594 92.7362C39.117 92.7362 38.2082 91.6034 37.741 91.1298C36.8976 90.2885 36.1128 89.3904 35.3922 88.4418C35.0786 88.0194 34.8418 87.6866 35.1554 87.1938C35.6131 86.6819 36.1165 86.2127 36.6594 85.7922C36.9346 85.5234 36.9346 85.6322 37.2162 85.901C39.4754 88.077 38.829 87.4306 38.9122 87.5074ZM114.394 117.293C82.221 118.919 52.5506 120.909 20.7362 123.949C17.1074 124.295 14.5666 124.032 14.2338 120.384C13.773 115.379 14.0738 118.208 11.7442 91.5266C18.861 90.8226 26.7842 90.0674 33.6194 89.4402C34.1816 89.3116 34.7583 89.2578 35.3346 89.2802C35.6994 89.3634 36.1154 90.0866 36.397 90.3874C37.1373 91.2484 37.97 92.0254 38.8802 92.7042C39.6738 93.2418 40.941 93.389 40.7298 92.0642C40.4802 90.4962 38.6562 88.6402 39.1042 87.7058C41.197 89.6834 41.6194 88.8962 43.9298 87.7058C51.4369 83.8514 57.4008 77.5466 60.8322 69.837C62.6306 65.7282 64.0962 60.7874 62.8802 56.3138C74.349 55.3858 83.277 54.3938 90.253 53.6194L106.893 52.397C112.045 52.6146 114.163 54.1826 115.277 58.2018C116.909 70.4642 116.691 68.6978 116.807 69.997C115.821 69.933 59.0018 74.669 58.9506 74.701C55.2238 80.6576 49.9027 85.451 43.5906 88.5378C54.2146 87.5906 117.715 82.2082 117.779 82.221C118.112 82.3042 117.907 82.0162 118.061 82.4578C118.061 82.5218 119.482 96.4866 120.032 112.154C120.167 116.416 118.234 117.12 114.394 117.293Z" fill="black"/>
</svg>
