<svg width="200" height="200" viewBox="0 0 200 200" fill="none" xmlns="http://www.w3.org/2000/svg">
<path d="M181.549 51.1698C181.439 50.4198 181.359 50.1698 180.419 49.7398C176.489 48.1098 161.769 47.8798 157.519 47.8298C157.534 47.0129 157.345 46.2052 156.969 45.4798C155.379 43.8698 145.209 44.0598 143.049 43.6198C142.849 43.6198 142.869 43.6198 142.819 43.4398C142.309 42.1898 142.179 37.9998 141.349 36.5398C139.799 33.7998 133.919 32.2298 130.289 34.8198C128.417 34.2554 126.415 34.2833 124.559 34.8998C123.559 35.3071 122.659 35.9279 121.923 36.719C121.187 37.5101 120.633 38.4523 120.299 39.4798C119.734 41.3698 119.428 43.3276 119.389 45.2998C117.539 45.9098 107.899 46.6298 106.789 48.0698C106.515 48.49 106.335 48.964 106.259 49.4598C99.4593 49.9698 100.189 50.0598 100.109 49.8198C97.5693 41.9098 88.4193 33.9998 88.4193 33.9998C88.2093 33.8098 87.9993 33.9998 87.5393 34.1998C87.0162 32.7136 86.3462 31.2831 85.5393 29.9298C85.5585 29.5961 85.4454 29.2683 85.2245 29.0175C85.0036 28.7666 84.6927 28.613 84.3593 28.5898C85.2593 27.5198 83.7593 25.8098 81.6993 27.2198C81.3493 26.7098 80.9793 26.2198 80.5993 25.6798C80.8255 25.5354 81.0308 25.3604 81.2093 25.1598C81.4193 24.7798 80.2093 25.1598 87.3993 23.8098C88.7293 23.5398 94.5993 22.3498 95.3993 22.0898C95.4899 22.0788 95.5741 22.0371 95.6378 21.9716C95.7015 21.9061 95.7408 21.8208 95.7493 21.7298C97.1493 20.9598 95.5893 16.7998 94.9893 15.3198C97.4793 12.9098 96.9893 10.3198 94.8793 9.56983C93.9069 9.27218 92.8752 9.22404 91.8793 9.42983C90.9334 7.79593 89.6477 6.38412 88.1093 5.28983C86.9793 4.66983 86.1093 5.04983 85.8493 5.63983C85.5893 6.22983 75.9693 17.6398 75.8493 17.7098C74.0293 18.2298 71.3393 19.3698 70.4493 21.0398C68.3893 24.9498 72.3893 29.7498 76.2893 28.2298L76.9993 27.9998C77.4193 28.6098 77.9393 29.2998 78.3993 29.9098C78.3118 30.0699 78.2382 30.2372 78.1793 30.4098C78.0693 30.7698 77.3393 31.7298 77.8193 32.6898C78.2993 33.6498 81.6193 35.9898 82.6193 36.6198L82.4093 36.7298C82.3398 36.7587 82.2843 36.8135 82.2545 36.8825C82.2246 36.9515 82.2228 37.0294 82.2493 37.0998C82.8293 38.7998 85.9593 46.9398 84.4393 46.6198C82.2193 46.1398 76.7293 43.9898 70.0493 41.8098C66.3793 40.6098 63.9193 39.4498 60.6493 38.6898C60.4093 37.1198 60.1393 36.6198 59.8993 35.3498C60.9787 34.8897 61.8925 34.1119 62.5193 33.1198C62.8793 32.5198 62.4593 32.7598 63.2193 32.9098C63.466 32.9833 63.7315 32.9588 63.9606 32.8415C64.1897 32.7241 64.3647 32.523 64.4493 32.2798C65.3493 32.5898 66.2093 32.0798 66.0093 31.0298C66.6493 31.0298 67.8293 31.0298 68.0093 29.9198C68.2793 28.5798 66.6193 28.1098 66.1993 27.6098C65.4429 26.6701 64.8972 25.5788 64.5993 24.4098C63.5993 21.2098 62.8193 15.8098 61.0593 13.7598C60.5083 13.1505 59.8309 12.6688 59.0744 12.3485C58.3179 12.0283 57.5005 11.8772 56.6795 11.9057C55.8585 11.9343 55.0536 12.1419 54.3212 12.514C53.5888 12.886 52.9465 13.4136 52.4393 14.0598C51.8029 13.6994 51.1331 13.4013 50.4393 13.1698C49.589 13.0311 48.7193 13.0697 47.8847 13.283C47.0501 13.4964 46.2686 13.8801 45.5893 14.4098C42.3093 17.1998 43.9993 21.9998 41.7893 27.1498C41.0993 28.7498 37.6593 32.1998 40.1793 33.5098C40.4393 33.59 40.7163 33.598 40.9806 33.5328C41.2448 33.4676 41.4863 33.3318 41.6793 33.1398C41.7038 33.3984 41.7786 33.6498 41.8993 33.8798C42.1991 34.2388 42.5875 34.5134 43.0259 34.6765C43.4643 34.8396 43.9377 34.8856 44.3993 34.8098C44.6855 34.7152 44.9434 34.5501 45.1493 34.3298C45.2164 34.5375 45.3371 34.7238 45.4993 34.8698C46.3193 35.5198 47.3193 35.4598 48.1793 34.1598C48.313 34.3486 48.4981 34.4952 48.7125 34.582C48.927 34.6689 49.1618 34.6924 49.3893 34.6498V37.9598C48.8393 38.0298 48.2893 38.0998 47.7393 38.1998C47.693 38.1907 47.6455 38.1907 47.5993 38.1998C41.5651 39.0857 35.9097 41.6774 31.2993 45.6698C26.6823 49.5966 22.898 54.4078 20.1693 59.8198C17.7593 65.1198 18.0193 67.0798 18.8493 70.8198C19.3602 72.9707 20.3402 74.982 21.7193 76.7098C23.2393 78.7698 25.5893 81.2498 28.9893 84.9198C29.7993 85.7898 30.8193 86.9198 31.6793 87.7798C31.2193 89.8798 27.9693 102.57 28.1593 105.14C28.1593 105.4 28.3993 105.71 28.9193 105.93C30.6225 106.438 32.383 106.731 34.1593 106.8C33.5693 128.03 35.0793 155.88 36.9493 176.55C36.8729 176.576 36.8042 176.621 36.7493 176.68C36.4291 177.562 36.4291 178.528 36.7493 179.41C36.8793 179.68 37.1293 179.66 37.7493 179.71C37.7493 180.99 37.8593 182.47 37.9393 183.76C37.7151 183.934 37.5135 184.136 37.3393 184.36C37.2693 184.52 37.2593 184.47 37.7093 187.09C37.4004 187.939 37.1629 188.812 36.9993 189.7C36.906 190.363 36.8493 191.031 36.8293 191.7C36.8271 192.059 36.9391 192.409 37.1493 192.7C38.4153 193.689 39.8338 194.466 41.3493 195C43.0416 194.731 44.64 194.043 45.9993 193C46.168 192.849 46.2973 192.658 46.3757 192.446C46.4542 192.233 46.4794 192.004 46.4493 191.78C46.3886 190.143 46.1094 188.522 45.6193 186.96C45.8191 186.104 45.9264 185.229 45.9393 184.35C45.8793 184.16 45.7693 184.07 45.2293 183.72C45.3593 182.48 45.4793 181.08 45.5693 179.85H46.8193C47.6093 179.8 47.3693 178.42 47.4093 177.32C47.4093 176.93 47.0293 176.79 46.6693 176.71L56.1493 115.61C56.8393 119.41 58.4693 128.91 58.4593 132.79C58.4593 133.73 56.0493 164.73 55.4593 172.85C55.3643 172.872 55.2775 172.92 55.2093 172.99C54.8544 173.845 54.7809 174.79 54.9993 175.69C55.1093 175.99 55.3893 175.99 55.8093 176.06C55.6593 177.46 55.5193 178.96 55.4093 180.41C55.0093 180.41 54.8893 180.51 54.7593 180.88C54.3693 182 53.9693 185.97 54.6693 187.07C55.1393 187.8 70.9893 190.83 75.1893 188.98C76.0293 188.6 75.9893 187.74 75.8493 186.83C75.6093 185.19 68.8493 182.94 66.8493 181.96C66.6593 181.86 66.6993 181.89 66.6193 181.74C65.6193 179.92 65.3393 179.15 65.0493 179.01C64.7601 178.926 64.4559 178.909 64.1593 178.96C64.0893 178.27 64.0193 177.6 63.9393 176.84C64.1059 176.869 64.2774 176.844 64.4293 176.77C64.8493 176.47 64.8093 175.21 64.9093 174.37C64.9212 174.256 64.889 174.141 64.8193 174.05C64.2793 173.26 63.8193 176.58 69.2093 157.75C69.0293 159.85 67.5493 176.65 68.0693 177.48C68.2193 177.69 68.5093 177.7 68.8693 177.73C75.4993 178.4 159.709 181.51 166.779 181.59C167.989 181.59 171.779 181.67 172.139 181.43C175.499 179.39 182.999 61.6798 181.549 51.1698ZM106.999 48.2598C107.999 46.9098 118.649 46.3098 119.679 45.7198C119.736 45.6944 119.785 45.6539 119.82 45.6027C119.855 45.5516 119.876 45.4918 119.879 45.4298C119.928 43.4857 120.244 41.5576 120.819 39.6998C121.139 38.7537 121.663 37.8895 122.354 37.1688C123.046 36.4481 123.887 35.8885 124.819 35.5298C127.529 34.5298 132.139 35.4098 133.469 37.8098C134.299 39.2798 134.319 44.3698 135.169 45.0798C136.019 45.7898 147.819 45.5498 149.169 46.9298C149.251 47.0939 149.308 47.2691 149.339 47.4498C149.647 49.6309 149.623 51.8459 149.269 54.0198C146.539 55.1098 113.049 56.6098 107.809 56.0198C107.069 55.9398 107.009 56.0198 106.809 55.2798C106.319 53.7298 106.119 49.4398 106.999 48.2598ZM81.2193 29.8298C81.2893 29.2498 81.0293 29.5198 81.5893 29.6398C81.5098 29.7801 81.4654 29.9375 81.4599 30.0987C81.4544 30.2598 81.488 30.4199 81.5577 30.5653C81.6275 30.7106 81.7313 30.837 81.8604 30.9335C81.9896 31.0301 82.1401 31.094 82.2993 31.1198C82.2051 31.2521 82.148 31.4072 82.1339 31.5689C82.1198 31.7307 82.1493 31.8933 82.2193 32.0398C82.4593 32.5398 82.7993 32.6098 83.3093 32.6698C83.1108 32.8952 82.8315 33.0332 82.5319 33.0538C82.2323 33.0744 81.9367 32.9759 81.7093 32.7798C81.6193 32.6898 81.1793 32.1498 80.5993 31.4298C80.8938 30.9348 81.1034 30.394 81.2193 29.8298ZM84.7893 29.4498C84.8591 29.489 84.9203 29.542 84.969 29.6056C85.0177 29.6692 85.053 29.742 85.0726 29.8197C85.0923 29.8974 85.0959 29.9782 85.0833 30.0573C85.0707 30.1364 85.0421 30.2121 84.9993 30.2798C84.5673 30.2343 84.1307 30.2648 83.7093 30.3698C83.2593 30.4698 82.4693 30.5398 82.2793 30.2398C81.9993 29.7598 84.0493 28.9398 84.7893 29.4498ZM82.6793 27.5198C83.7693 27.0698 84.3893 27.8298 84.1993 28.2398C83.4998 28.6925 82.6824 28.929 81.8493 28.9198C81.8038 28.919 81.7591 28.9088 81.7178 28.8899C81.6765 28.871 81.6395 28.8437 81.6093 28.8098C81.3893 28.5998 81.5393 28.3798 81.7293 28.1798C82.0034 27.9041 82.3252 27.6805 82.6793 27.5198ZM80.9293 24.4498C79.6993 22.6598 76.7093 18.6798 76.2293 17.9098L85.7593 6.90983C86.0993 9.90983 89.3793 15.4098 91.0093 17.9098C91.0628 17.9774 91.1363 18.0264 91.2193 18.0498C92.1277 19.4098 93.2487 20.6152 94.5393 21.6198C93.7593 21.7198 83.7493 23.8898 80.9293 24.4498ZM94.6293 10.2698C94.8819 10.3577 95.1136 10.4968 95.3099 10.6785C95.5061 10.8602 95.6627 11.0805 95.7698 11.3256C95.8768 11.5707 95.9321 11.8353 95.932 12.1028C95.9319 12.3703 95.8765 12.6348 95.7693 12.8798C95.2293 14.3698 93.7693 15.4898 92.4493 16.4298C92.0893 16.6998 91.7393 16.9498 91.4493 17.1398C90.1007 15.2211 88.8782 13.2169 87.7893 11.1398C89.8293 10.5298 92.7693 9.50983 94.6293 10.2698ZM76.0693 27.5498C72.8193 28.8198 69.4693 24.6898 71.0693 21.3598C71.7793 19.8598 74.3593 18.6198 75.9293 18.0598C76.3393 18.8098 79.7993 23.9998 80.3893 24.9298C79.0438 25.9503 77.5961 26.8283 76.0693 27.5498ZM77.5593 27.6598C78.4293 27.1698 79.4593 26.5098 80.2693 25.9398C80.5993 26.4698 80.9393 27.0498 81.2693 27.5798C81.094 27.7156 80.9549 27.8925 80.8642 28.0948C80.7735 28.2971 80.734 28.5186 80.7493 28.7398C80.4761 28.5962 80.1653 28.5403 79.8593 28.5798C79.4554 28.6614 79.0978 28.8939 78.8593 29.2298L77.5593 27.6598ZM80.9993 34.7398C78.8093 32.8298 78.6093 32.9798 78.3993 32.3998C78.1893 31.8198 78.7893 30.9698 78.9193 30.6098C79.1393 29.9698 79.8393 28.9998 80.4193 29.4098C80.8093 29.6798 80.2593 31.2398 80.1193 31.5598C80.0649 31.6441 80.0212 31.7348 79.9893 31.8298C80.3594 32.3471 80.7566 32.8445 81.1793 33.3198C81.4135 33.5259 81.6927 33.6743 81.9946 33.7532C82.2964 33.8321 82.6126 33.8393 82.9177 33.7742C83.2228 33.7091 83.5085 33.5735 83.7519 33.3783C83.9952 33.183 84.1895 32.9336 84.3193 32.6498L84.7993 32.5498C84.8389 32.5404 84.8738 32.517 84.8977 32.484C84.9216 32.4509 84.9328 32.4104 84.9293 32.3698C84.9293 32.1098 84.3493 32.3698 83.5693 32.0898C83.2293 31.9898 83.0093 31.9598 82.9293 31.7498C82.7493 31.3198 84.3293 30.9698 84.8193 30.9798C84.9504 30.9643 85.0833 30.9748 85.2103 31.0108C85.3373 31.0469 85.4559 31.1077 85.5593 31.1898C85.6593 31.2798 87.0893 33.9298 87.2793 34.3698L82.9993 36.3698C82.4293 35.9998 81.6793 35.3598 80.9993 34.7398ZM84.3293 47.0998C84.4303 47.1319 84.5368 47.1434 84.6424 47.1335C84.748 47.1235 84.8505 47.0924 84.9439 47.042C85.0372 46.9917 85.1194 46.923 85.1856 46.8401C85.2518 46.7573 85.3007 46.662 85.3293 46.5598C85.8293 45.0598 83.8793 39.9398 82.9293 37.1298L88.1593 34.6698C89.3693 35.7598 97.1593 42.9098 99.3893 50.0498C100.669 54.0498 100.179 58.0498 95.6293 60.9398C92.1328 63.044 88.0684 64.0085 83.9993 63.6998C79.9259 63.4421 75.9321 62.4529 72.2093 60.7798C72.3593 58.6298 72.3093 53.8398 72.6793 51.2498C72.6827 51.2086 72.671 51.1674 72.6463 51.1342C72.6216 51.101 72.5857 51.0779 72.5451 51.0693C72.5046 51.0607 72.4624 51.0672 72.4263 51.0875C72.3902 51.1079 72.3628 51.1407 72.3493 51.1798C72.062 52.0505 71.8479 52.9436 71.7093 53.8498C71.4397 56.2106 71.4062 58.5924 71.6093 60.9598C71.5293 61.1198 71.4093 60.2798 72.8993 74.4098C72.8993 74.5798 78.4793 98.9598 78.3293 102.25C76.3293 103.33 64.8393 104.53 62.3293 104.58C61.5393 102.65 57.1993 89.5798 56.5193 87.4998C60.5193 67.6698 57.2293 80.7998 63.0193 68.7498C65.0469 64.512 66.8559 60.1729 68.4393 55.7498C68.8232 54.7308 69.1307 53.6846 69.3593 52.6198C69.4393 52.4398 69.5493 52.2498 69.3593 52.0398L66.7993 48.5898C69.5193 41.7198 69.4293 42.0898 69.4193 41.9198C75.8693 44.1298 82.0693 46.5898 84.3293 47.0998ZM72.4493 61.8098C74.6172 62.7293 76.8718 63.4295 79.1793 63.8998C78.3293 69.6698 77.3493 77.4698 76.3193 86.2998C72.9193 70.1398 74.1493 78.7498 72.4493 61.8098ZM41.6593 166.42C41.3593 174.13 41.6593 173.79 41.3293 173.8C41.2859 173.8 41.2441 173.783 41.2125 173.754C41.1808 173.724 41.1618 173.683 41.1593 173.64C40.7693 164.9 41.8193 148.32 43.9093 107.12H44.2893C43.6193 122.57 41.7293 164.53 41.6593 166.42ZM48.3493 49.3198C45.8767 46.5243 43.6012 43.5606 41.5393 40.4498C43.444 39.7341 45.4179 39.218 47.4293 38.9098C48.0893 40.4298 50.0893 46.0198 50.6493 47.5998L48.3693 49.3498L48.3493 49.3198ZM49.5393 38.7498C51.4593 40.7498 55.4593 44.4198 58.2493 44.6798C57.9593 45.1498 56.1293 48.1198 55.7693 48.5498C54.6993 48.1998 50.2593 42.8798 49.4793 41.9598C49.1693 41.1298 48.6493 39.7098 48.3093 38.8998L49.5393 38.7498ZM45.9393 54.2698V54.1698C45.9393 54.1298 47.9993 50.5298 48.1993 50.1698C48.2893 49.9998 47.9793 50.2798 50.7993 47.9698C55.5393 61.4098 55.3793 62.7498 57.7993 71.7498C44.4793 52.1598 45.9993 54.1698 45.9393 54.2698ZM56.7093 47.9298C56.9049 48.6438 57.1695 49.337 57.4993 49.9998C57.6993 50.2198 57.1193 52.3498 56.1693 61.9198C54.4543 55.7218 52.4284 49.6141 50.0993 43.6198C50.8993 44.4898 54.4593 48.3998 55.5493 48.8198C55.6171 48.8634 55.6968 48.8849 55.7774 48.8814C55.858 48.8778 55.9355 48.8493 55.9993 48.7998C56.1093 48.6798 56.3693 48.3298 56.6893 47.8798L56.7093 47.9298ZM59.2393 73.7898C60.5693 67.7898 63.4293 53.4298 63.7393 47.3398L66.1393 48.9198C68.9993 52.9198 68.7393 52.4598 68.7193 52.6398C68.3493 54.7698 61.7793 70.3798 59.2193 73.7398L59.2393 73.7898ZM65.9993 48.2698L63.7893 46.9098C64.046 44.819 64.1929 42.7161 64.2293 40.6098C65.6193 41.0798 67.0593 41.6098 68.4093 42.1998C68.1693 42.7698 66.4493 47.1198 65.9993 48.2698ZM62.0793 53.9998C61.7801 52.5751 61.3859 51.1719 60.8993 49.7998C60.9493 49.5798 61.1593 48.6098 61.2893 47.9998C61.5201 48.2585 61.7637 48.5055 62.0193 48.7398C62.2693 48.9598 62.4693 49.0898 62.7393 48.9598C62.5293 50.6398 62.3193 52.2398 62.0793 53.9998ZM63.3793 40.3198C63.3688 42.6604 63.2152 44.9981 62.9193 47.3198C62.7393 47.6798 62.5893 47.9698 62.4793 48.1598C61.3089 47.0412 60.2006 45.8595 59.1593 44.6198C60.9293 44.1298 60.9493 41.3798 60.7693 39.5398C61.6793 39.7598 62.5493 39.9998 63.3793 40.2798V40.3198ZM51.1593 33.3198C51.2193 33.1498 51.1593 33.1998 51.3093 33.2298C51.9174 33.2941 52.5296 33.1553 53.0506 32.8351C53.5715 32.5149 53.9719 32.0314 54.1893 31.4598C54.4146 30.4756 54.3486 29.4471 53.9993 28.4998C53.8495 28.0523 53.7325 27.5944 53.6493 27.1298C53.1493 25.1298 51.9293 23.1798 52.4893 21.2198C52.6244 20.6866 52.9623 20.2272 53.4312 19.9396C53.9 19.6519 54.4627 19.5587 54.9993 19.6798C55.2719 19.7782 55.5361 19.8986 55.7893 20.0398C56.6393 20.4798 57.2493 20.7998 57.6493 20.3998C57.6493 20.3998 58.8593 19.2098 60.0093 19.5198C60.4693 19.6998 61.5493 21.9898 61.7893 23.2398C61.6089 22.9992 61.3449 22.835 61.0493 22.7798C60.2293 22.6798 59.6593 23.3498 59.7793 23.5498C60.4484 23.6997 61.1476 23.6368 61.7793 23.3698C62.1222 25.2532 62.2796 27.1657 62.2493 29.0798C61.7855 28.7786 61.2753 28.5557 60.7393 28.4198C60.3336 28.4061 59.9301 28.4848 59.5593 28.6498C59.1608 28.5495 58.7496 28.5091 58.3393 28.5298C57.1893 28.7498 56.2393 29.9998 55.6593 30.5298C55.3993 30.7698 55.2093 31.4298 55.6593 31.7098C56.1093 31.9898 56.7593 31.4798 56.9593 31.2498C57.784 30.4217 58.6809 29.6687 59.6393 28.9998C60.4664 29.5464 61.3208 30.0503 62.1993 30.5098C62.0854 30.9978 62.0483 31.5005 62.0893 31.9998C61.8553 32.5878 61.4989 33.1193 61.0437 33.559C60.5886 33.9987 60.045 34.3364 59.4493 34.5498C59.3708 34.5746 59.2981 34.615 59.2356 34.6685C59.1731 34.7221 59.1221 34.7878 59.0857 34.8616C59.0492 34.9354 59.0281 35.0158 59.0236 35.098C59.019 35.1802 59.0312 35.2625 59.0593 35.3398C59.2593 36.5898 60.2193 39.1998 59.9293 41.8298C59.8393 42.6498 59.5793 43.6798 58.7593 43.7698C56.3593 44.0398 51.8993 39.9098 50.2093 38.1698V34.3798C50.6584 34.1381 50.9983 33.7339 51.1593 33.2498V33.3198ZM49.9993 24.7998C50.1672 25.8597 50.2773 26.928 50.3293 27.9998C49.7593 28.1998 48.9993 27.4498 48.8593 26.9198C48.5393 25.8198 48.8193 25.1198 49.9993 24.7998ZM28.9993 105C28.8793 102.61 31.8393 90.8698 32.4093 88.4298C32.6873 88.7287 33.0291 88.9611 33.4093 89.1098C33.4958 89.1195 33.5832 89.1027 33.66 89.0617C33.7368 89.0206 33.7993 88.9572 33.8393 88.8798C33.9093 88.7798 34.1493 88.3998 34.4993 87.8798C34.7895 88.4931 35.1972 89.0435 35.6993 89.4998C34.2093 90.7198 33.8893 90.6298 34.0193 90.8698C34.0385 90.9063 34.0711 90.934 34.1102 90.947C34.1493 90.96 34.192 90.9575 34.2293 90.9398C38.4893 89.0598 40.6693 85.6498 40.9193 80.8798C40.9224 80.8404 40.9109 80.8013 40.8869 80.7699C40.8629 80.7385 40.8281 80.7171 40.7893 80.7098C40.4493 80.7098 40.6893 81.5298 39.5793 84.3098C39.0792 83.812 38.4645 83.4446 37.7893 83.2398C37.9227 83.0651 38.0698 82.9012 38.2293 82.7498C38.4593 82.6898 38.5893 82.4598 38.4593 82.1298C38.1293 81.2598 36.0793 77.7098 35.5593 76.8198C35.5649 76.7633 35.5649 76.7064 35.5593 76.6498C35.6193 75.2598 35.9493 72.7998 36.2593 70.1498C36.8574 64.9451 37.1345 59.7086 37.0893 54.4698C37.0161 52.9483 36.7334 51.4441 36.2493 49.9998C36.24 49.9574 36.2142 49.9204 36.1776 49.8969C36.1411 49.8735 36.0967 49.8655 36.0543 49.8748C36.0118 49.8841 35.9748 49.9099 35.9514 49.9464C35.9279 49.983 35.92 50.0274 35.9293 50.0698C36.2393 52.2698 36.3993 60.9898 36.3993 61.1898C35.4693 62.5998 31.0593 68.5798 31.0793 69.5098C31.1841 70.0695 31.3588 70.6137 31.5993 71.1298C31.5993 71.3898 30.9893 69.7698 35.0393 77.2898C35.5693 78.2898 37.1993 81.2898 37.6293 82.2298C36.0727 84.1409 34.6334 86.1446 33.3193 88.2298C31.0693 86.4298 24.3193 78.8298 22.3993 76.2298C21.0872 74.595 20.1547 72.6891 19.6693 70.6498C19.1385 68.9295 18.9817 67.1157 19.2093 65.3298C20.2093 58.8798 26.7293 50.5998 31.8093 46.3298C34.6091 43.9275 37.7847 42.0019 41.2093 40.6298C41.7793 41.6298 42.9693 43.3498 44.2093 45.1298C47.8593 50.2198 47.8793 49.4498 47.6593 49.8298C47.1193 50.8298 45.4793 53.4498 45.2193 54.0398C45.0793 54.3698 43.9193 52.8898 58.0193 73.9098C57.5693 76.3498 52.6293 103.72 51.5993 106.01C49.8593 106.7 30.7293 106.47 28.9993 105ZM35.9093 89.3198C35.5023 88.7393 35.1978 88.0933 35.0093 87.4098C35.546 86.3855 36.1789 85.4145 36.8993 84.5098C37.3293 83.9398 37.3093 83.8798 37.5993 83.8998C38.2498 83.9917 38.8698 84.2348 39.4093 84.6098C38.6492 86.4583 37.4351 88.0852 35.8793 89.3398L35.9093 89.3198ZM34.8093 75.5198C34.1993 74.5198 31.9593 70.2898 31.8993 69.5198C32.3193 68.3998 34.5493 65.0198 36.5093 61.7798C36.2793 65.2398 35.1993 71.1398 34.7793 75.5398L34.8093 75.5198ZM45.5693 191.78C45.5691 191.929 45.5489 192.077 45.5093 192.22C45.4915 192.257 45.4638 192.288 45.4293 192.31C44.4009 193.098 43.239 193.694 41.9993 194.07C41.3193 194.28 41.3093 194.3 39.8193 193.61C39.0082 193.255 38.223 192.844 37.4693 192.38C37.2293 192.16 37.1993 191.44 37.1993 191.12C37.8899 191.75 38.6517 192.297 39.4693 192.75C40.8893 193.52 41.8593 193.66 44.0293 192.65C44.5684 192.408 45.0839 192.117 45.5693 191.78ZM44.6893 179.93C44.5993 181.04 44.4993 182.18 44.3993 183.2C43.5562 182.681 42.6773 182.224 41.7693 181.83C40.9093 181.61 39.3693 182.67 38.6493 183.2C38.5693 182.42 38.4893 181.44 38.3393 179.74C39.4693 179.8 40.8093 179.83 41.9393 179.84C44.9993 179.87 44.7093 179.78 44.6893 179.93ZM46.4993 178.93C46.3993 178.93 37.5893 179.08 37.2293 179.05C36.9418 178.347 36.8687 177.574 37.0193 176.83C37.1566 176.793 37.2973 176.769 37.4393 176.76C40.4839 176.778 43.5239 176.998 46.5393 177.42C46.5645 177.947 46.5511 178.475 46.4993 179V178.93ZM62.9993 176.75C63.0693 177.51 63.1293 178.3 63.1993 179.07C62.858 179.127 62.5231 179.218 62.1993 179.34C61.4293 179.75 62.0893 181.17 61.8393 181.49C60.8993 181.38 57.7093 180.49 56.0193 180.38C56.0793 179.03 56.1593 177.38 56.2293 176.11C58.2093 176.39 61.0993 176.62 62.9993 176.75ZM74.9993 187.2C74.9993 187.6 75.0793 188.03 74.7793 188.2C71.2893 189.75 56.4393 187.35 54.9893 186.76C54.8509 186.443 54.7697 186.105 54.7493 185.76C60.2693 186.69 70.5493 189.31 74.9993 187.2ZM63.8193 176C63.7193 176 55.6793 175.49 55.3993 175.44C55.2887 174.928 55.2417 174.404 55.2593 173.88C55.2483 173.649 55.2929 173.42 55.3893 173.21C56.5993 173 62.7593 174.21 63.9793 174.5C63.9541 175.002 63.9006 175.503 63.8193 176ZM68.7593 133C68.1293 136 61.8993 166.65 60.8793 171.32C60.8657 171.359 60.8383 171.392 60.8022 171.412C60.7662 171.432 60.7239 171.439 60.6834 171.43C60.6429 171.422 60.6069 171.399 60.5822 171.365C60.5575 171.332 60.5458 171.291 60.5493 171.25C61.3693 167.02 67.2593 136.05 67.9393 132.82C68.2593 131.31 65.5693 107.77 65.2493 105.25H65.7793C67.2393 114.69 69.0693 131.47 68.7593 133ZM171.439 180.83C167.209 181.16 69.5293 177.06 68.6493 176.95C68.4393 174.32 69.9993 156.52 70.2293 153.89C71.8293 148.22 74.8793 137.09 75.7793 131.24C76.5593 126.13 75.1893 114.69 74.5093 109.53C74.7093 107.67 74.8993 105.82 75.0993 103.98C76.2524 103.808 77.3873 103.53 78.4893 103.15C78.7893 103.01 79.0893 102.82 79.1193 102.5C79.3093 100.72 77.1193 90.3798 76.7893 88.5898C77.8893 78.8498 78.9993 70.2598 79.8493 63.9998C85.4193 64.9998 91.2293 64.6498 96.0493 61.5898C100.689 58.6498 101.439 54.5898 100.329 50.5298C102.179 50.3498 104.129 50.1798 106.149 50.0198C105.929 51.6298 105.969 55.5198 106.819 56.1898C108.429 57.4698 146.409 55.9598 149.549 54.7098C149.704 54.6562 149.835 54.55 149.919 54.4098C150.399 53.4898 150.359 49.6398 150.219 48.1998C153.329 48.1998 179.219 47.9998 181.069 50.4898C183.159 53.3098 174.709 180.51 171.439 180.78V180.83Z" fill="black"/>
<path d="M101.809 107.36C101.699 106.67 101.469 106.54 101.089 106.43C99.0893 105.85 87.4793 105.19 86.4993 105.85C85.5193 106.51 83.5893 114.18 84.2693 116.56C84.3337 116.697 84.4268 116.819 84.5424 116.918C84.658 117.016 84.7933 117.088 84.9393 117.13C87.3093 118.13 98.7593 119.06 99.9993 118.36C101.239 117.66 102.099 109.25 101.809 107.36ZM99.9993 116.91C99.9161 117.185 99.7949 117.448 99.6393 117.69C98.8393 118.14 86.3793 117.47 84.8993 116.36C84.2293 114.13 85.8993 106.66 86.6893 106.11C87.4793 105.56 99.7693 106.61 101.049 107.18C101.459 108.85 100.609 115 99.9993 116.91ZM97.5493 125.56C96.5493 124.79 83.5493 124.17 82.5493 124.81C81.5493 125.45 79.6393 133.08 80.3193 135.52C80.3853 135.656 80.4789 135.777 80.5943 135.876C80.7096 135.974 80.8442 136.047 80.9893 136.09C83.3793 137.09 93.2593 137.84 95.5693 137.46C95.7203 137.454 95.868 137.414 96.0014 137.343C96.1347 137.272 96.2503 137.172 96.3393 137.05C97.3293 135.68 98.5993 126.41 97.5493 125.56ZM95.6893 136.64C94.8693 137.1 82.4793 136.43 80.9493 135.31C80.2793 133.08 81.9493 125.61 82.7393 125.06C83.5293 124.51 95.9293 125.6 97.0893 126.13C97.5893 128 96.3493 136.27 95.6893 136.64ZM95.2293 144.06C94.2293 143.3 81.2293 142.67 80.2293 143.31C79.2293 143.95 77.3193 151.57 77.9993 154C78.0637 154.137 78.1568 154.259 78.2724 154.358C78.388 154.456 78.5233 154.528 78.6693 154.57C81.0593 155.57 90.9393 156.32 93.2493 155.94C93.4011 155.933 93.5494 155.892 93.6828 155.819C93.8162 155.746 93.9313 155.644 94.0193 155.52C94.9993 154.2 96.2893 144.92 95.2293 144.06ZM93.7193 154.37C93.7193 154.49 93.4693 155.09 93.3593 155.14C92.5393 155.6 80.1493 154.92 78.6193 153.81C77.9593 151.59 79.6193 144.12 80.4093 143.56C81.1993 143 93.4793 144.06 94.7693 144.63C95.1693 146.25 94.3993 152.26 93.7193 154.37Z" fill="black"/>
<path d="M96.7998 109.18C95.0098 110.88 93.4198 112.85 92.2598 113.59C91.8498 113.86 91.6398 113.95 91.2598 113.75C90.6406 113.359 90.1149 112.837 89.7198 112.22C89.6969 112.191 89.6649 112.171 89.6291 112.163C89.5933 112.156 89.5558 112.16 89.523 112.177C89.4902 112.193 89.4641 112.22 89.4489 112.254C89.4337 112.287 89.4305 112.325 89.4398 112.36C89.7754 113.16 90.3256 113.853 91.0298 114.36C91.2853 114.492 91.5741 114.547 91.8603 114.517C92.1465 114.486 92.4175 114.373 92.6398 114.19C93.4558 113.624 94.1923 112.951 94.8298 112.19C95.6079 111.297 96.3325 110.359 96.9998 109.38C97.0214 109.37 97.0403 109.354 97.0547 109.335C97.0692 109.316 97.0789 109.294 97.083 109.27C97.087 109.246 97.0853 109.222 97.0781 109.199C97.0708 109.176 97.0581 109.156 97.0412 109.139C97.0242 109.122 97.0034 109.109 96.9805 109.102C96.9577 109.094 96.9334 109.093 96.9097 109.097C96.8861 109.101 96.8638 109.111 96.8446 109.125C96.8255 109.139 96.8101 109.158 96.7998 109.18ZM92.8698 128.13C90.7098 130.18 88.6598 132.78 87.7098 132.82C87.4142 132.763 87.1405 132.625 86.9198 132.42C85.8598 131.55 85.8598 130.96 85.5998 131.11C85.5807 131.118 85.5637 131.131 85.5497 131.146C85.5357 131.162 85.5251 131.18 85.5185 131.2C85.5119 131.219 85.5095 131.24 85.5115 131.261C85.5134 131.282 85.5196 131.302 85.5298 131.32C85.8998 132.18 86.7798 133.51 87.7198 133.53C88.9198 133.53 90.8798 131.31 91.5898 130.42C92.2998 129.53 92.8198 128.71 93.0998 128.33C93.1263 128.299 93.1396 128.26 93.1368 128.219C93.134 128.179 93.1153 128.142 93.0848 128.115C93.0543 128.088 93.0145 128.075 92.9742 128.078C92.9338 128.081 92.8963 128.1 92.8698 128.13ZM90.5398 146.63C88.4198 148.63 86.3198 151.28 85.3898 151.31C85.0884 151.262 84.8092 151.122 84.5898 150.91C83.5198 150.04 83.5898 149.46 83.2698 149.6C83.2512 149.61 83.235 149.624 83.2219 149.641C83.2089 149.658 83.1993 149.677 83.1937 149.697C83.1881 149.718 83.1867 149.739 83.1894 149.76C83.1922 149.781 83.1991 149.802 83.2098 149.82C83.5698 150.68 84.4498 152.01 85.3998 152.03C86.5998 152.03 88.5598 149.81 89.2598 148.92C89.9598 148.03 90.4998 147.21 90.7698 146.83C90.9098 146.68 90.6798 146.48 90.5398 146.63ZM167.45 112.67C164.22 112.48 111.67 110.27 108.34 110.13C108.305 110.139 108.275 110.159 108.253 110.187C108.231 110.215 108.219 110.249 108.219 110.285C108.219 110.321 108.231 110.355 108.253 110.383C108.275 110.411 108.305 110.431 108.34 110.44C111.73 110.66 165.25 112.92 167.46 112.98C167.494 112.97 167.524 112.949 167.545 112.92C167.566 112.892 167.576 112.857 167.575 112.821C167.574 112.786 167.561 112.751 167.538 112.724C167.516 112.697 167.485 112.678 167.45 112.67ZM163.52 131.63C160.29 131.44 107.74 129.23 104.41 129.08C104.386 129.074 104.361 129.073 104.338 129.078C104.314 129.083 104.291 129.094 104.272 129.109C104.253 129.124 104.237 129.143 104.226 129.165C104.216 129.187 104.21 129.211 104.21 129.235C104.21 129.259 104.216 129.283 104.226 129.305C104.237 129.327 104.253 129.346 104.272 129.361C104.291 129.376 104.314 129.387 104.338 129.392C104.361 129.397 104.386 129.396 104.41 129.39C107.8 129.61 161.31 131.87 163.52 131.94C163.554 131.931 163.585 131.911 163.606 131.883C163.628 131.855 163.64 131.821 163.64 131.785C163.64 131.749 163.628 131.715 163.606 131.687C163.585 131.659 163.554 131.639 163.52 131.63ZM161.19 150.13C157.96 149.94 105.41 147.73 102.08 147.58C102.045 147.589 102.015 147.609 101.993 147.637C101.971 147.665 101.959 147.699 101.959 147.735C101.959 147.771 101.971 147.805 101.993 147.833C102.015 147.861 102.045 147.881 102.08 147.89C105.46 148.11 158.98 150.37 161.19 150.43C161.23 150.43 161.268 150.414 161.296 150.386C161.324 150.358 161.34 150.32 161.34 150.28C161.34 150.24 161.324 150.202 161.296 150.174C161.268 150.146 161.23 150.13 161.19 150.13ZM167 119.75C163.77 119.57 111.22 117.35 107.9 117.21C107.876 117.204 107.851 117.203 107.828 117.208C107.804 117.213 107.781 117.224 107.762 117.239C107.743 117.254 107.727 117.273 107.716 117.295C107.706 117.317 107.7 117.341 107.7 117.365C107.7 117.389 107.706 117.413 107.716 117.435C107.727 117.457 107.743 117.476 107.762 117.491C107.781 117.506 107.804 117.517 107.828 117.522C107.851 117.527 107.876 117.526 107.9 117.52C111.28 117.74 164.8 120 167.01 120.06C167.044 120.05 167.074 120.029 167.095 120C167.116 119.972 167.126 119.937 167.125 119.901C167.124 119.866 167.111 119.831 167.088 119.804C167.066 119.777 167.035 119.758 167 119.75ZM163.09 138.71C159.86 138.52 107.31 136.31 103.98 136.17C103.78 136.17 103.76 136.46 103.98 136.48C107.37 136.7 160.89 138.95 163.1 139.02C163.134 139.01 163.164 138.989 163.185 138.96C163.206 138.932 163.216 138.897 163.215 138.861C163.214 138.826 163.201 138.791 163.178 138.764C163.156 138.737 163.125 138.718 163.09 138.71ZM160.76 157.21C157.54 157.02 104.99 154.81 101.66 154.66C101.617 154.66 101.577 154.677 101.547 154.707C101.517 154.737 101.5 154.778 101.5 154.82C101.5 154.862 101.517 154.903 101.547 154.933C101.577 154.963 101.617 154.98 101.66 154.98C105.05 155.19 158.56 157.45 160.77 157.52C160.804 157.51 160.834 157.489 160.855 157.46C160.876 157.432 160.886 157.397 160.885 157.361C160.884 157.326 160.871 157.291 160.848 157.264C160.826 157.237 160.795 157.218 160.76 157.21ZM110.6 97.94C110.91 97.76 111.05 97.19 111.14 96.81C112.46 91.46 113.98 66.96 113.66 65.58C113.632 65.4879 113.581 65.4049 113.51 65.34C112.94 64.82 109.79 64.76 108.7 64.73C102.99 64.59 89.6998 65.02 89.5498 65.16C89.1798 65.61 83.6698 94.96 84.3498 96.95C85.0298 98.94 108.24 99.27 110.6 97.94ZM84.9998 96.68C84.9924 96.5735 84.9924 96.4665 84.9998 96.36C85.0082 96.392 85.027 96.4203 85.0533 96.4405C85.0795 96.4606 85.1117 96.4716 85.1448 96.4716C85.1778 96.4716 85.21 96.4606 85.2362 96.4405C85.2625 96.4203 85.2813 96.392 85.2898 96.36C85.7158 94.7186 86.5559 93.2139 87.7298 91.99C89.0729 90.4889 90.8025 89.3855 92.7298 88.8C93.6017 89.9307 94.5506 90.9999 95.5698 92C95.7998 92.17 96.0698 92 96.3498 91.87C97.3498 94.4 96.8698 91.13 96.3498 97.87C94.8598 97.82 86.2898 97.49 84.9998 96.68ZM96.2898 85C95.7318 84.7785 95.2309 84.4343 94.8241 83.9929C94.4173 83.5515 94.115 83.0241 93.9398 82.45C93.8334 82.0135 93.7665 81.5684 93.7398 81.12C94.0867 81.5787 94.5706 81.9151 95.1214 82.0806C95.6722 82.246 96.2613 82.232 96.8036 82.0405C97.3459 81.8489 97.8132 81.4899 98.1379 81.0152C98.4626 80.5405 98.6278 79.9748 98.6098 79.4H98.7898C98.5195 80.3111 98.4013 81.2605 98.4398 82.21C98.444 82.3502 98.4817 82.4873 98.5498 82.61C98.8498 82.99 99.1498 82.98 99.6598 82.9C99.6998 82.8979 99.7379 82.8817 99.7672 82.8542C99.7965 82.8268 99.8151 82.7899 99.8198 82.75C99.8198 82.52 99.4198 82.62 99.1398 82.34C99.1398 82 99.2498 80.85 99.2598 80.56C99.2598 79.3 99.0098 79.44 99.3698 79.44C99.3006 79.9286 99.3687 80.4268 99.5665 80.8789C99.7643 81.331 100.084 81.7192 100.49 82C100.976 82.3158 101.546 82.4755 102.125 82.4577C102.705 82.4398 103.264 82.2452 103.73 81.9C103.73 82.03 103.63 82.18 103.55 82.38C103.277 83.28 102.736 84.0755 102 84.66C100.83 85.48 100.08 85.19 100.16 85.74C100.28 86.53 100.55 87.09 100.72 88.26C99.8421 88.7884 98.9972 89.3695 98.1898 90C97.4177 89.2846 96.6028 88.6167 95.7498 88C96.1498 85.91 96.8498 85.25 96.2898 85ZM99.5198 78.79C99.4885 78.8752 99.4618 78.962 99.4398 79.05C99.3111 78.9636 99.1597 78.9174 99.0048 78.9174C98.8498 78.9174 98.6984 78.9636 98.5698 79.05C98.5495 78.7584 98.4657 78.4747 98.324 78.219C98.1823 77.9633 97.9863 77.7418 97.7498 77.57C97.1227 77.1695 96.3938 76.9578 95.6498 76.96C95.1204 76.9359 94.6017 77.1147 94.1998 77.46C94.482 76.1661 95.2428 75.0266 96.3298 74.27C98.2098 73.1 101.13 73.33 102.33 75.19C102.6 75.5655 102.803 75.9851 102.93 76.43C102.996 76.7704 103.089 77.1048 103.21 77.43C102.993 77.3394 102.764 77.2854 102.53 77.27C101.23 77.18 99.8398 77.49 99.5198 78.81V78.79ZM96.9998 81.28C96.7554 81.4044 96.4887 81.4788 96.2152 81.4989C95.9417 81.5189 95.667 81.4841 95.4071 81.3965C95.1473 81.309 94.9075 81.1704 94.7019 80.989C94.4963 80.8076 94.329 80.5869 94.2098 80.34C93.8698 79.06 94.3998 77.62 95.6598 77.61C99.4698 77.48 98.3298 80.79 96.9998 81.28ZM102.54 77.91C103.8 78.05 104.16 79.55 103.7 80.79C103.553 81.0206 103.363 81.22 103.139 81.3766C102.915 81.5332 102.663 81.644 102.396 81.7025C102.129 81.7611 101.853 81.7663 101.585 81.7178C101.316 81.6693 101.059 81.5681 100.83 81.42C99.5398 80.8 98.6798 77.37 102.52 77.91H102.54ZM104.54 78.91L104.79 78.77C105.36 79.2 105.46 79.93 104.49 80.77C104.655 80.1936 104.672 79.5848 104.54 79V78.91ZM92.7098 78.43C92.79 78.3518 92.8977 78.3081 93.0098 78.3081C93.1218 78.3081 93.2295 78.3518 93.3098 78.43C93.3575 78.4726 93.4165 78.5004 93.4798 78.51C93.3094 79.0568 93.2751 79.6369 93.3798 80.2C92.6698 79.77 92.0998 79.08 92.7098 78.47V78.43ZM100.21 91.43C99.7317 91.1052 99.2742 90.7512 98.8398 90.37L101.76 88C101.99 88.17 102.62 88.64 102.96 88.93C101.3 90.42 100.6 91.13 100.21 91.46V91.43ZM97.4898 90.29C96.9692 90.6302 96.4319 90.9439 95.8798 91.23C95.5998 90.94 93.2298 88.33 93.2298 88.33C93.6198 88.07 94.3598 87.65 94.6198 87.51L97.4898 90.29ZM99.9998 98C99.9958 96.3986 99.7977 94.8037 99.4098 93.25C100.07 91.96 99.7098 92.25 100.09 92.34C100.14 92.3626 100.195 92.3743 100.25 92.3743C100.305 92.3743 100.359 92.3626 100.41 92.34C101.404 91.4978 102.333 90.5819 103.19 89.6C106.6 91.11 109.29 93.6 110.19 97.28C109.92 98 100.89 98 99.9998 98ZM89.7798 65.41C92.2898 65.34 110.69 64.86 113.03 65.8C113.26 67.8 111.49 92.55 110.4 96.59C109.47 93.09 106.91 90.59 103.61 89.04C103.76 88.71 103.4 88.51 101.84 87.65C101.816 87.6349 101.788 87.6269 101.76 87.6269C101.731 87.6269 101.704 87.6349 101.68 87.65L101.29 87.89C101.14 86.89 100.99 86.6 100.86 85.89C101.465 85.74 102.032 85.4662 102.526 85.0858C103.02 84.7054 103.43 84.2267 103.73 83.68C104.097 83.0301 104.377 82.3339 104.56 81.61C105.81 80.75 106.5 79.55 105.56 78.39C105.83 77.97 106.02 77.63 105.82 77.18C105.905 77.0517 105.959 76.9055 105.978 76.7529C105.997 76.6002 105.98 76.4453 105.93 76.3C105.882 76.1011 105.808 75.9095 105.71 75.73C105.811 75.5643 105.878 75.3794 105.905 75.1868C105.933 74.9943 105.92 74.7982 105.869 74.6107C105.817 74.4231 105.728 74.2482 105.606 74.0967C105.484 73.9452 105.332 73.8204 105.16 73.73C105.2 73.4863 105.179 73.2363 105.099 73.0026C105.019 72.7689 104.882 72.5588 104.701 72.3912C104.519 72.2236 104.299 72.1037 104.06 72.0424C103.82 71.9811 103.569 71.9803 103.33 72.04C103.244 71.8128 103.095 71.615 102.9 71.47C102.739 71.3344 102.552 71.2319 102.352 71.1684C102.151 71.1049 101.94 71.0816 101.73 71.1C100.97 71.16 101.29 71.4 101.13 71.01C101.047 70.8224 100.903 70.6686 100.721 70.5741C100.539 70.4795 100.331 70.4499 100.13 70.49C99.8091 70.5129 99.5026 70.6313 99.2498 70.83C98.9502 70.582 98.5736 70.4463 98.1848 70.4463C97.7959 70.4463 97.4193 70.582 97.1198 70.83C96.9698 70.99 97.0498 70.95 96.9198 70.9C96.5918 70.8153 96.2477 70.8153 95.9198 70.9C95.7232 70.9431 95.5394 71.0315 95.3832 71.1582C95.2269 71.285 95.1024 71.4466 95.0198 71.63C94.8578 71.6003 94.6917 71.6003 94.5298 71.63C94.2042 71.7474 93.9117 71.9413 93.6768 72.1954C93.4418 72.4495 93.2714 72.7563 93.1798 73.09C93.1746 73.1666 93.1746 73.2434 93.1798 73.32C92.9923 73.4283 92.8119 73.5486 92.6398 73.68C92.4516 73.906 92.3281 74.1787 92.2823 74.4692C92.2366 74.7596 92.2702 75.0571 92.3798 75.33C92.1481 75.4943 91.9761 75.7295 91.8898 76C91.8376 76.3419 91.8936 76.6915 92.0498 77C92.1087 77.0834 92.1721 77.1635 92.2398 77.24L92.1398 77.36C92.0746 77.5341 92.0746 77.7259 92.1398 77.9C91.9725 78.0954 91.8559 78.329 91.8001 78.5801C91.7443 78.8312 91.7511 79.0921 91.8198 79.34C92.0473 79.956 92.4593 80.4869 92.9998 80.86C92.9998 81.09 92.9998 81.48 93.0898 81.86C93.1859 82.6484 93.4828 83.399 93.952 84.0398C94.4212 84.6807 95.0471 85.1903 95.7698 85.52C95.5368 86.1745 95.3432 86.8424 95.1898 87.52C94.7598 87.2 94.6998 87.12 94.5898 87.18C92.9998 87.81 92.5898 88 92.5898 88.18C88.4598 89.51 85.5898 93.27 85.0298 96.18C85.0598 91.77 89.3198 66.92 89.7798 65.41ZM172.26 82.14C172.12 81.99 122.46 81.68 122.36 81.69C122.317 81.69 122.277 81.7069 122.247 81.7369C122.217 81.7669 122.2 81.8076 122.2 81.85C122.2 81.75 121.82 86.36 122.33 86.66C123.68 87.42 167.62 88.15 171.61 87.76C171.783 87.7623 171.952 87.7059 172.09 87.6C172.82 86.85 172.8 82.6 172.26 82.14ZM122.39 82H122.45C122.45 82 122.4 82.05 122.39 82ZM171.59 87C169.31 87.29 124.96 86.9 122.59 86.35C122.45 84.9034 122.45 83.4466 122.59 82L171.84 82.83C172.027 84.2231 171.942 85.6393 171.59 87ZM172.38 73.75C172.24 73.6 122.58 73.29 122.48 73.3C122.438 73.3024 122.399 73.32 122.369 73.3495C122.34 73.379 122.322 73.4183 122.32 73.46C122.32 73.36 121.93 77.97 122.45 78.27C123.88 79.09 167.95 79.74 171.73 79.37C171.903 79.3723 172.072 79.3159 172.21 79.21C172.94 78.46 172.91 74.21 172.38 73.75ZM122.51 73.61H122.57C122.63 73.61 122.52 73.67 122.51 73.61ZM171.71 78.61C169.56 78.9 125.1 78.51 122.71 77.95C122.575 76.5065 122.575 75.0535 122.71 73.61L171.96 74.44C172.142 75.8299 172.057 77.2419 171.71 78.6V78.61ZM172.49 65.69C172.411 65.6264 172.311 65.5943 172.21 65.6C172.21 65.6 123.07 65.22 122.77 65.23C122.62 65.23 122.41 65.23 122.42 65.4C122.42 65.3 122.04 69.91 122.55 70.21C123.79 70.91 171.55 71.92 172.31 71.15C173.07 70.38 173 66.15 172.49 65.69ZM122.61 65.55H122.67C122.73 65.55 122.62 65.6 122.61 65.55ZM171.81 70.55C169.52 70.84 124.96 70.43 122.81 69.89C122.655 68.4484 122.634 66.9954 122.75 65.55L172 66.38C172.205 67.7659 172.141 69.1786 171.81 70.54V70.55ZM130.93 96.31C131.52 95.98 131.58 95.46 131.3 95.13C130.507 94.6216 129.619 94.2812 128.69 94.13C128.602 93.238 128.285 92.3838 127.77 91.65C126.77 90.75 126.12 92.81 125.77 94.1C124.93 94.17 123.08 94.41 122.94 95.24C122.94 95.53 123.14 95.71 123.4 95.84C123.989 96.0766 124.594 96.2738 125.21 96.43C124.41 97.27 122.61 99.22 123.73 99.43C124.37 99.57 126.07 98.55 126.88 98.37C127.63 98.79 129.25 100.1 129.88 99.66C130.51 99.22 129.61 97.8 129.1 96.83C129.723 96.7078 130.335 96.5339 130.93 96.31ZM140.48 96.76C141.08 96.44 141.14 95.92 140.85 95.59C140.065 95.0735 139.178 94.7324 138.25 94.59C138.161 93.6949 137.845 92.8375 137.33 92.1C136.33 91.21 135.68 93.27 135.33 94.56C134.49 94.63 132.64 94.86 132.5 95.7C132.45 95.98 132.7 96.17 132.96 96.3C133.548 96.5311 134.149 96.7281 134.76 96.89C133.97 97.72 132.16 99.68 133.28 99.89C133.92 100.03 135.67 99 136.43 98.89C137.22 99.33 138.81 100.61 139.43 100.17C140.05 99.73 139.16 98.31 138.66 97.34C139.284 97.2076 139.894 97.0133 140.48 96.76ZM150.43 97.13C151.02 96.8 151.08 96.28 150.8 95.96C150.01 95.4461 149.121 95.1053 148.19 94.96C148.106 94.0669 147.789 93.2116 147.27 92.48C146.27 91.58 145.62 93.64 145.27 94.93C144.43 95.01 142.58 95.24 142.45 96.07C142.45 96.36 142.65 96.55 142.91 96.67C143.496 96.9105 144.097 97.1109 144.71 97.27C143.92 98.1 142.11 100.06 143.23 100.27C143.87 100.41 145.57 99.39 146.38 99.21C147.13 99.64 148.75 100.94 149.38 100.5C150.01 100.06 149.1 98.64 148.6 97.67C149.224 97.5439 149.837 97.3632 150.43 97.13ZM160.81 97.52C161.41 97.2 161.46 96.67 161.18 96.35C160.39 95.8361 159.501 95.4953 158.57 95.35C158.483 94.4592 158.17 93.6054 157.66 92.87C156.66 91.97 156 94.04 155.66 95.32C154.82 95.4 152.97 95.63 152.84 96.47C152.79 96.75 153.04 96.94 153.3 97.07C153.888 97.3011 154.489 97.4981 155.1 97.66C154.31 98.49 152.5 100.45 153.62 100.66C154.25 100.8 156 99.77 156.77 99.6C157.53 100.03 159.13 101.33 159.77 100.89C160.41 100.45 159.5 99.03 159 98.06C159.619 97.9366 160.225 97.7558 160.81 97.52ZM158.09 97.87C158.09 98.24 158.99 99.46 159.21 100.25C159.03 100.17 158.78 100.01 158.58 99.9C156.98 99.05 157.04 98.77 156.38 99C155.87 99.18 154.18 100.09 153.73 100.17C153.83 99.8426 153.986 99.5349 154.19 99.26C155.29 97.63 155.83 97.61 155.14 97.26C154.481 97.0661 153.85 96.7907 153.26 96.44C153.44 95.98 155.26 95.85 155.88 95.84C156.23 95.84 156.11 95.57 156.67 94.25C156.795 93.9228 156.964 93.6134 157.17 93.33C157.359 93.6055 157.495 93.9142 157.57 94.24C157.94 95.51 157.74 95.86 158.16 95.95C158.978 96.1121 159.772 96.3811 160.52 96.75C160.363 96.8642 160.187 96.9489 160 97C158.76 97.37 158.06 97.33 158.09 97.87ZM171.08 96.22C170.387 95.9161 169.667 95.6784 168.93 95.51C168.831 94.8802 168.663 94.2632 168.43 93.67C168.01 92.67 167.33 92.48 166.79 93.38C166.446 94.0494 166.175 94.7533 165.98 95.48C165.3 95.5277 164.628 95.6586 163.98 95.87C163.41 96.09 162.92 96.55 163.23 96.95C163.885 97.3848 164.624 97.6778 165.4 97.81C164.804 98.4265 164.265 99.0959 163.79 99.81C163.33 100.61 163.61 101.1 164.62 100.81C165.39 100.57 166.49 99.98 167.07 99.81C167.57 100.09 169.07 101.22 169.78 101.19C169.852 101.193 169.924 101.181 169.991 101.155C170.058 101.129 170.12 101.089 170.171 101.039C170.223 100.988 170.263 100.927 170.291 100.861C170.318 100.794 170.331 100.722 170.33 100.65C170.143 99.8028 169.804 98.9964 169.33 98.27C169.954 98.1477 170.567 97.9704 171.16 97.74C171.8 97.38 172 96.69 171.08 96.22ZM168.68 97.68C167.94 98.03 169.21 99.19 169.56 100.46C169.1 100.25 167.44 99.22 167.32 99.17C166.78 98.94 165.52 99.88 164.39 100.27L164.09 100.38C164.5 99.4634 165.065 98.6245 165.76 97.9C166.15 97.47 164.02 97.16 163.61 96.69C163.69 96.48 164.23 96.33 164.44 96.28C165.9 95.94 166.39 96.28 166.52 95.86C166.755 95.0605 167.091 94.2943 167.52 93.58C167.906 94.291 168.14 95.074 168.21 95.88C168.27 96.3 168.62 96.13 170.04 96.63C170.334 96.7184 170.616 96.8426 170.88 97C170.53 97.26 169.18 97.44 168.68 97.68ZM127.05 44.52C128.131 44.6072 129.204 44.2781 130.05 43.6C132.56 41.36 129.05 37.1 125.57 39.39C122.85 41.18 124.51 44.42 127.05 44.52ZM125.94 40C126.619 39.5027 127.465 39.2877 128.3 39.4C128.717 39.4607 129.114 39.6168 129.461 39.8562C129.808 40.0955 130.095 40.4117 130.3 40.78C130.98 42.73 129.17 43.9 127.07 43.78C125.24 43.68 123.94 41.37 125.94 40ZM41.1398 88.53C40.9398 88.45 41.1398 88.53 39.6998 89.99C38.2598 91.45 36.9198 92.25 37.0498 92.49C37.1798 92.73 38.3898 92.13 38.5898 92.02C39.2324 91.6174 39.8119 91.122 40.3098 90.55C40.6598 90.14 41.5098 88.69 41.1398 88.53ZM56.5798 24.29C56.6298 24.05 55.9598 23.84 55.4698 23.9C54.3898 24.04 53.9398 24.9 54.1698 25.05C55.0123 24.9439 55.8288 24.6864 56.5798 24.29ZM58.9998 28C59.2833 28.108 59.5903 28.139 59.8898 28.09C60.0232 28.0645 60.1516 28.0172 60.2698 27.95C60.3901 27.8947 60.4902 27.8035 60.5565 27.6888C60.6228 27.5742 60.6519 27.4419 60.6398 27.31C60.6398 26.39 59.3598 24.36 59.0198 24.58C58.8998 24.65 58.9298 24.7 59.1198 25.33C59.2415 25.7609 59.3953 26.182 59.5798 26.59C59.6855 26.8285 59.7692 27.0762 59.8298 27.33C59.6222 27.5218 59.3601 27.6441 59.0798 27.68C59.0588 27.6748 59.0369 27.6737 59.0155 27.6769C58.9941 27.6801 58.9735 27.6874 58.9549 27.6986C58.9363 27.7097 58.9201 27.7244 58.9072 27.7418C58.8944 27.7592 58.885 27.779 58.8798 27.8C58.8745 27.821 58.8734 27.8429 58.8766 27.8643C58.8798 27.8857 58.8872 27.9063 58.8983 27.9249C58.9095 27.9434 58.9242 27.9596 58.9416 27.9725C58.959 27.9854 58.9788 27.9948 58.9998 28ZM58.6598 31.86C58.7266 32.013 58.8262 32.1494 58.9516 32.2596C59.0769 32.3698 59.2249 32.4512 59.3852 32.4979C59.5454 32.5446 59.714 32.5556 59.8789 32.5301C60.0439 32.5045 60.2012 32.443 60.3398 32.35C60.3778 32.3344 60.4089 32.3055 60.4273 32.2688C60.4457 32.232 60.4501 32.1898 60.4398 32.15C60.3598 31.92 60.1598 32.21 59.6498 31.92C59.5441 31.8559 59.456 31.7666 59.3932 31.6602C59.3304 31.5538 59.2949 31.4335 59.2898 31.31C59.2955 31.1806 59.3288 31.0538 59.3874 30.9383C59.446 30.8227 59.5287 30.721 59.6298 30.64C59.7206 30.5918 59.8219 30.5667 59.9248 30.5667C60.0276 30.5667 60.1289 30.5918 60.2198 30.64C60.3798 30.77 60.5598 30.52 60.3998 30.4C59.4398 29.29 58.0898 30.7 58.6598 31.86ZM60.9998 74.66C60.7651 74.6643 60.5351 74.7267 60.3305 74.8416C60.1259 74.9566 59.9529 75.1204 59.8271 75.3186C59.7012 75.5167 59.6265 75.7429 59.6095 75.977C59.5925 76.2111 59.6339 76.4458 59.7298 76.66C60.3898 77.99 62.6598 77.5 62.6198 76.06C62.6113 75.8596 62.5619 75.6631 62.4746 75.4825C62.3873 75.3019 62.264 75.1411 62.1123 75.01C61.9605 74.8788 61.7835 74.7801 61.5922 74.7199C61.4009 74.6598 61.1993 74.6394 60.9998 74.66ZM61.8698 76.37C61.8579 76.4678 61.827 76.5624 61.7786 76.6482C61.7303 76.7341 61.6655 76.8096 61.5879 76.8704C61.5104 76.9313 61.4216 76.9762 61.3267 77.0027C61.2318 77.0293 61.1326 77.0368 61.0348 77.025C60.9369 77.0132 60.8424 76.9822 60.7565 76.9338C60.6706 76.8855 60.5951 76.8207 60.5343 76.7432C60.4735 76.6656 60.4285 76.5769 60.402 76.4819C60.3755 76.387 60.3679 76.2878 60.3798 76.19C60.3798 76.0985 60.3979 76.008 60.4332 75.9236C60.4685 75.8392 60.5202 75.7627 60.5854 75.6985C60.6505 75.6343 60.7278 75.5837 60.8126 75.5496C60.8975 75.5155 60.9883 75.4987 61.0798 75.5C61.1949 75.4876 61.3113 75.502 61.42 75.5421C61.5286 75.5823 61.6265 75.647 61.7059 75.7313C61.7853 75.8155 61.8442 75.9171 61.8778 76.0279C61.9114 76.1387 61.919 76.2558 61.8998 76.37H61.8698ZM60.7298 81.44C60.4941 81.4418 60.2627 81.5026 60.0566 81.6168C59.8505 81.7311 59.6764 81.8952 59.5501 82.0941C59.4238 82.293 59.3493 82.5204 59.3335 82.7556C59.3178 82.9907 59.3612 83.226 59.4598 83.44C60.1098 84.75 62.3898 84.29 62.3498 82.84C62.3399 82.6401 62.2895 82.4443 62.2018 82.2644C62.114 82.0845 61.9907 81.9243 61.8393 81.7934C61.6879 81.6625 61.5114 81.5637 61.3207 81.503C61.13 81.4423 60.929 81.4208 60.7298 81.44ZM61.5998 83.15C61.6029 83.258 61.5829 83.3654 61.5412 83.465C61.4996 83.5647 61.4371 83.6543 61.3581 83.728C61.279 83.8016 61.1852 83.8575 61.0828 83.892C60.9805 83.9265 60.8719 83.9388 60.7645 83.9281C60.657 83.9173 60.553 83.8838 60.4595 83.8297C60.366 83.7756 60.2851 83.7022 60.2222 83.6144C60.1593 83.5266 60.1158 83.4263 60.0947 83.3204C60.0736 83.2144 60.0753 83.1052 60.0998 83C60.1024 82.8161 60.1773 82.6406 60.3083 82.5115C60.4393 82.3824 60.6158 82.31 60.7998 82.31C60.91 82.3036 61.0203 82.3212 61.123 82.3617C61.2257 82.4022 61.3183 82.4646 61.3945 82.5446C61.4706 82.6245 61.5284 82.7201 61.5639 82.8246C61.5993 82.9292 61.6116 83.0402 61.5998 83.15ZM56.5298 25.64C56.5298 25.8 56.5898 25.96 56.6498 26.3C56.6606 26.3651 56.6843 26.4275 56.7194 26.4834C56.7545 26.5393 56.8004 26.5878 56.8543 26.6259C56.9082 26.664 56.9692 26.6911 57.0336 26.7055C57.0981 26.7199 57.1647 26.7215 57.2298 26.71C57.3593 26.6879 57.4749 26.6157 57.5516 26.5091C57.6284 26.4024 57.66 26.2698 57.6398 26.14C57.6398 25.96 57.5498 25.71 57.5298 25.53C57.5152 25.3974 57.4485 25.276 57.3444 25.1926C57.2403 25.1091 57.1074 25.0704 56.9748 25.085C56.8422 25.0996 56.7208 25.1663 56.6373 25.2703C56.5539 25.3744 56.5152 25.5074 56.5298 25.64ZM60.8498 25.51C60.8667 25.6275 60.9257 25.7348 61.0159 25.8121C61.106 25.8893 61.2211 25.9312 61.3398 25.93C61.4122 25.9293 61.4837 25.9131 61.5494 25.8826C61.6151 25.8521 61.6736 25.8079 61.7209 25.753C61.7682 25.6982 61.8033 25.6338 61.8238 25.5643C61.8443 25.4948 61.8497 25.4218 61.8398 25.35C61.7598 24.91 61.7398 24.86 61.7198 24.74C61.7038 24.6074 61.6359 24.4865 61.5309 24.404C61.4259 24.3215 61.2924 24.2841 61.1598 24.3C61.0272 24.3159 60.9063 24.3839 60.8238 24.4889C60.7413 24.5939 60.7038 24.7274 60.7198 24.86C60.7498 25 60.7898 25.16 60.8498 25.51ZM75.7598 89.82C75.8798 89.94 76.0698 89.76 75.9498 89.64C73.5298 86.73 72.9498 83.79 73.3798 80.11C73.3853 80.0907 73.3862 80.0703 73.3826 80.0505C73.3789 80.0307 73.3707 80.0121 73.3585 79.996C73.3464 79.9799 73.3307 79.9669 73.3127 79.9579C73.2947 79.949 73.2749 79.9443 73.2548 79.9443C73.2346 79.9443 73.2148 79.949 73.1968 79.9579C73.1788 79.9669 73.1631 79.9799 73.151 79.996C73.1389 80.0121 73.1306 80.0307 73.127 80.0505C73.1233 80.0703 73.1242 80.0907 73.1298 80.11C72.1098 83.82 72.8198 87.16 75.7598 89.82Z" fill="black"/>
<path d="M96.1995 79C96.0684 78.9859 95.9369 79.0243 95.8339 79.1067C95.7309 79.1891 95.6646 79.3089 95.6495 79.44V80.1C95.6495 80.2326 95.7022 80.3598 95.796 80.4535C95.8898 80.5473 96.0169 80.6 96.1495 80.6C96.2821 80.6 96.4093 80.5473 96.5031 80.4535C96.5969 80.3598 96.6495 80.2326 96.6495 80.1V79.57C96.6593 79.5027 96.6553 79.4342 96.6377 79.3685C96.6201 79.3029 96.5893 79.2415 96.5472 79.1882C96.5051 79.1348 96.4525 79.0906 96.3927 79.0582C96.333 79.0259 96.2672 79.0061 96.1995 79ZM101.67 80.67C101.734 80.6784 101.799 80.6738 101.862 80.6567C101.925 80.6395 101.983 80.6101 102.035 80.5701C102.086 80.5301 102.128 80.4803 102.16 80.4236C102.192 80.3669 102.212 80.3045 102.22 80.24V79.59C102.22 79.4574 102.167 79.3302 102.073 79.2364C101.979 79.1427 101.852 79.09 101.72 79.09C101.588 79.0925 101.462 79.146 101.369 79.2393C101.276 79.3325 101.222 79.4582 101.22 79.59V80.12C101.213 80.1857 101.219 80.2521 101.238 80.3154C101.257 80.3788 101.288 80.4377 101.33 80.4888C101.372 80.54 101.423 80.5823 101.482 80.6134C101.54 80.6445 101.604 80.6637 101.67 80.67ZM97.5095 84.09C98.3273 84.3495 99.1968 84.4011 100.04 84.24C100.14 84.24 100.13 84.08 100.04 84.09L99.4095 84C98.7873 83.9483 98.1618 83.9483 97.5395 84C97.4395 83.92 97.4095 84.08 97.5095 84.09Z" fill="black"/>
</svg>
