<svg width="90" height="90" viewBox="0 0 90 90" fill="none" xmlns="http://www.w3.org/2000/svg">
<path d="M74.0745 22.2165C74.2578 22.1777 74.4254 22.0852 74.556 21.951C74.5407 22.0255 74.5212 22.0991 74.4976 22.1715C74.4615 22.293 74.5965 22.329 74.6415 22.2525C74.8007 22.0162 74.8635 21.728 74.817 21.447C74.8147 21.4204 74.8048 21.3951 74.7885 21.374C74.7722 21.3529 74.7503 21.3369 74.7252 21.3279C74.7001 21.3189 74.6729 21.3173 74.6469 21.3232C74.621 21.3292 74.5972 21.3425 74.5785 21.3615C74.3895 21.591 74.3535 21.915 74.034 22.014C74.0088 22.0209 73.987 22.0371 73.9732 22.0594C73.9594 22.0817 73.9546 22.1084 73.9598 22.1341C73.9649 22.1598 73.9796 22.1826 74.0009 22.1979C74.0222 22.2132 74.0485 22.2198 74.0745 22.2165ZM73.188 20.7C73.2132 20.7161 73.2421 20.7252 73.272 20.7263C73.3018 20.7274 73.3314 20.7204 73.3576 20.7062C73.3838 20.6919 73.4057 20.6709 73.421 20.6452C73.4363 20.6196 73.4444 20.5903 73.4445 20.5605C73.4445 20.5245 73.4445 20.484 73.2285 20.16C73.1835 20.0925 73.1295 19.9665 73.0125 20.0295C72.8955 20.0925 72.9765 20.2095 73.0395 20.367C73.1655 20.7 73.1655 20.7 73.188 20.7ZM73.116 19.8765C73.3365 19.8765 73.4895 19.8765 73.5165 20.061C73.5201 20.0884 73.5345 20.1133 73.5564 20.1302C73.5783 20.1471 73.6061 20.1546 73.6335 20.151C73.661 20.1474 73.6859 20.1331 73.7028 20.1111C73.7197 20.0892 73.7271 20.0614 73.7235 20.034C73.6879 19.8882 73.6021 19.7596 73.4811 19.6707C73.3602 19.5819 73.2118 19.5384 73.062 19.548C73.0265 19.5628 72.9969 19.5892 72.9782 19.6229C72.9595 19.6565 72.9527 19.6956 72.959 19.7336C72.9652 19.7716 72.9841 19.8064 73.0126 19.8324C73.0412 19.8583 73.0776 19.8738 73.116 19.8765ZM18.0765 33.5925C16.8143 34.203 15.4252 34.5055 14.0234 34.475C12.6216 34.4445 11.247 34.0819 10.0125 33.417C9.98987 33.4033 9.96267 33.3991 9.93693 33.4054C9.91119 33.4118 9.88902 33.428 9.8753 33.4507C9.86157 33.4734 9.85742 33.5006 9.86375 33.5263C9.87008 33.5521 9.88637 33.5743 9.90905 33.588C12.375 35.1945 15.9975 35.2845 18.144 33.7095C18.1596 33.7005 18.1709 33.6858 18.1755 33.6685C18.1802 33.6512 18.1777 33.6327 18.1688 33.6172C18.1598 33.6017 18.1451 33.5904 18.1278 33.5857C18.1105 33.5811 18.0921 33.5835 18.0765 33.5925ZM17.7435 20.25C18 20.3535 18.423 20.25 18.3105 20.0115C18.2354 19.8295 18.1826 19.6391 18.153 19.4445C18.153 19.417 18.1421 19.3907 18.1227 19.3713C18.1033 19.3519 18.077 19.341 18.0495 19.341C18.0221 19.341 17.9958 19.3519 17.9764 19.3713C17.957 19.3907 17.946 19.417 17.946 19.4445C17.9433 19.6349 17.9615 19.825 18 20.0115C17.9387 20.0464 17.8676 20.0606 17.7975 20.052C17.7845 20.0484 17.771 20.0475 17.7576 20.0492C17.7442 20.0509 17.7313 20.0552 17.7196 20.0619C17.7079 20.0686 17.6977 20.0775 17.6894 20.0881C17.6812 20.0988 17.6751 20.111 17.6715 20.124C17.668 20.137 17.6671 20.1505 17.6688 20.1639C17.6705 20.1773 17.6748 20.1902 17.6815 20.2019C17.6881 20.2136 17.6971 20.2239 17.7077 20.2321C17.7184 20.2404 17.7305 20.2464 17.7435 20.25ZM17.226 19.2645C17.2957 19.1026 17.3529 18.9356 17.397 18.765C17.4011 18.7493 17.4019 18.733 17.3996 18.717C17.3972 18.701 17.3916 18.6856 17.3833 18.6718C17.3749 18.658 17.3638 18.646 17.3507 18.6365C17.3376 18.627 17.3228 18.6202 17.307 18.6165C17.172 18.576 17.1495 18.72 17.082 18.8955C17.0433 18.9828 17.0117 19.0731 16.9875 19.1655C16.9874 19.1932 16.9955 19.2203 17.0108 19.2434C17.0261 19.2664 17.048 19.2844 17.0736 19.295C17.0991 19.3057 17.1273 19.3084 17.1545 19.303C17.1816 19.2975 17.2065 19.2841 17.226 19.2645ZM18.7245 19.6875C18.7502 19.6987 18.7787 19.7017 18.8061 19.6961C18.8335 19.6905 18.8585 19.6764 18.8775 19.656C18.9466 19.4938 19.0037 19.3269 19.0485 19.1565C19.0533 19.1411 19.0548 19.1249 19.053 19.109C19.0512 19.093 19.0462 19.0775 19.0381 19.0636C19.0301 19.0497 19.0193 19.0375 19.0064 19.028C18.9935 19.0184 18.9787 19.0116 18.963 19.008C18.8235 18.9675 18.7965 19.1295 18.738 19.2825C18.6795 19.4355 18.567 19.6245 18.7245 19.6875ZM16.5645 20.61C16.7261 20.6909 16.9111 20.7116 17.0865 20.6685C17.199 20.619 17.1225 20.448 17.0145 20.484C16.8957 20.4758 16.7816 20.4337 16.686 20.3625C16.6252 20.3225 16.5727 20.271 16.5318 20.2107C16.4909 20.1505 16.4623 20.0828 16.4475 20.0115C16.416 19.8225 16.119 19.8945 16.164 20.0835C16.1859 20.1961 16.2334 20.3022 16.3028 20.3935C16.3723 20.4848 16.4618 20.5589 16.5645 20.61ZM48.555 69.8715C48.555 69.7521 48.5076 69.6377 48.4232 69.5533C48.3389 69.4689 48.2244 69.4215 48.105 69.4215C47.9857 69.4215 47.8712 69.4689 47.7868 69.5533C47.7025 69.6377 47.655 69.7521 47.655 69.8715C47.655 69.9908 47.7025 70.1053 47.7868 70.1897C47.8712 70.2741 47.9857 70.3215 48.105 70.3215C48.2244 70.3215 48.3389 70.2741 48.4232 70.1897C48.5076 70.1053 48.555 69.9908 48.555 69.8715ZM48.546 74.304C48.6171 74.3107 48.6889 74.3024 48.7566 74.2798C48.8243 74.2572 48.8866 74.2206 48.9394 74.1726C48.9922 74.1245 49.0344 74.0659 49.0633 74.0006C49.0921 73.9353 49.107 73.8646 49.107 73.7932C49.107 73.7218 49.0921 73.6512 49.0633 73.5859C49.0344 73.5205 48.9922 73.462 48.9394 73.4139C48.8866 73.3658 48.8243 73.3293 48.7566 73.3067C48.6889 73.284 48.6171 73.2758 48.546 73.2825C48.4749 73.2758 48.4032 73.284 48.3355 73.3067C48.2678 73.3293 48.2055 73.3658 48.1527 73.4139C48.0999 73.462 48.0577 73.5205 48.0288 73.5859C48 73.6512 47.9851 73.7218 47.9851 73.7932C47.9851 73.8646 48 73.9353 48.0288 74.0006C48.0577 74.0659 48.0999 74.1245 48.1527 74.1726C48.2055 74.2206 48.2678 74.2572 48.3355 74.2798C48.4032 74.3024 48.4749 74.3107 48.546 74.304ZM48.6765 77.949C48.554 77.9607 48.4402 78.0177 48.3574 78.1088C48.2746 78.1999 48.2287 78.3186 48.2287 78.4417C48.2287 78.5648 48.2746 78.6835 48.3574 78.7747C48.4402 78.8658 48.554 78.9227 48.6765 78.9345C48.7991 78.9227 48.9129 78.8658 48.9957 78.7747C49.0785 78.6835 49.1244 78.5648 49.1244 78.4417C49.1244 78.3186 49.0785 78.1999 48.9957 78.1088C48.9129 78.0177 48.7991 77.9607 48.6765 77.949ZM45.945 58.4055C46.1668 59.5803 46.3171 60.7675 46.395 61.9605C46.395 62.0023 46.4116 62.0423 46.4412 62.0718C46.4707 62.1014 46.5108 62.118 46.5525 62.118C46.5943 62.118 46.6344 62.1014 46.6639 62.0718C46.6935 62.0423 46.71 62.0023 46.71 61.9605C46.6218 60.7476 46.4367 59.5438 46.1565 58.3605C46.1451 58.3389 46.1269 58.3217 46.1048 58.3114C46.0826 58.3011 46.0577 58.2983 46.0339 58.3034C46.01 58.3084 45.9884 58.3211 45.9724 58.3396C45.9564 58.358 45.9468 58.3811 45.945 58.4055ZM46.8 71.5815C46.8 71.5504 46.7877 71.5207 46.7658 71.4987C46.7438 71.4768 46.7141 71.4645 46.683 71.4645C46.652 71.4645 46.6223 71.4768 46.6003 71.4987C46.5784 71.5207 46.566 71.5504 46.566 71.5815C46.521 74.664 46.467 82.0305 46.494 82.8315C46.5002 82.867 46.5187 82.8992 46.5463 82.9224C46.5739 82.9456 46.6087 82.9583 46.6448 82.9583C46.6808 82.9583 46.7157 82.9456 46.7433 82.9224C46.7709 82.8992 46.7894 82.867 46.7955 82.8315C46.8585 81.378 46.8 72.3015 46.8 71.5815ZM58.878 40.6305C58.8828 40.6431 58.8915 40.6538 58.9029 40.6611C58.9142 40.6684 58.9276 40.6719 58.941 40.671C60.1291 40.0574 61.1987 39.2377 62.1 38.25C62.1127 38.2366 62.1198 38.2189 62.1198 38.2005C62.1198 38.1821 62.1127 38.1643 62.1 38.151C61.0695 37.422 58.158 36.2115 58.1535 36.5535C58.1307 37.9464 58.3767 39.3307 58.878 40.6305ZM25.749 47.16C26.1136 47.175 26.4738 47.0755 26.7789 46.8753C27.084 46.6751 27.3187 46.3844 27.45 46.044C27.5715 45.6615 27.5265 45.594 27.1575 43.3665C27.4266 43.5823 27.7092 43.7807 28.0035 43.9605C28.0962 43.9962 28.1987 43.9962 28.2914 43.9606C28.384 43.925 28.4601 43.8563 28.5049 43.7677C28.5498 43.6792 28.5601 43.5771 28.534 43.4814C28.5079 43.3856 28.4471 43.303 28.3635 43.2495C27.6108 42.8579 27.0326 42.1978 26.7435 41.4C26.703 41.2605 26.1765 41.2155 25.9785 41.553C25.9785 41.5935 26.667 45.4185 26.676 45.459C26.7054 45.5741 26.7054 45.6948 26.676 45.81C26.6092 45.9545 26.5069 46.0798 26.3786 46.1742C26.2504 46.2686 26.1004 46.3291 25.9425 46.35C25.8167 46.3748 25.6872 46.3744 25.5615 46.3488C25.4358 46.3231 25.3165 46.2727 25.2104 46.2005C25.1044 46.1283 25.0138 46.0358 24.9438 45.9282C24.8739 45.8207 24.8261 45.7003 24.8031 45.5741C24.7801 45.4479 24.7825 45.3184 24.81 45.1931C24.8376 45.0678 24.8897 44.9492 24.9635 44.8443C25.0373 44.7394 25.1312 44.6502 25.2398 44.5819C25.3484 44.5136 25.4695 44.4675 25.596 44.4465C25.7017 44.428 25.7956 44.3683 25.8572 44.2805C25.9188 44.1927 25.943 44.0841 25.9245 43.9785C25.906 43.8729 25.8463 43.7789 25.7586 43.7173C25.6708 43.6557 25.5622 43.6315 25.4565 43.65C25.1443 43.7021 24.8514 43.8356 24.6073 44.0371C24.3632 44.2386 24.1765 44.5008 24.066 44.7975C23.9647 45.0657 23.931 45.3547 23.9678 45.639C24.0046 45.9233 24.1109 46.1942 24.2773 46.4277C24.4436 46.6612 24.6649 46.8502 24.9216 46.9779C25.1783 47.1056 25.4625 47.1681 25.749 47.16Z" fill="black"/>
<path d="M30.7351 44.0415C30.6878 43.1322 30.3694 42.258 29.8208 41.5313C29.2722 40.8047 28.5186 40.259 27.6571 39.9645C23.7736 38.6505 20.2006 43.2 22.5001 46.6515C23.0425 47.4595 23.8324 48.07 24.7511 48.3911C25.6699 48.7123 26.668 48.727 27.5958 48.433C28.5236 48.1389 29.331 47.552 29.897 46.7602C30.463 45.9684 30.7571 45.0145 30.7351 44.0415ZM23.5351 41.1615C26.2936 38.6235 30.3435 40.7115 30.4515 44.046C30.4414 44.8954 30.1964 45.7254 29.7437 46.4441C29.291 47.1629 28.6482 47.7424 27.8866 48.1185C25.3756 49.212 22.3426 47.3265 22.1311 44.6715C22.0755 44.0187 22.1722 43.362 22.4135 42.7529C22.6548 42.1439 23.0341 41.5991 23.5216 41.1615H23.5351ZM55.8 40.545C56.1909 41.1433 56.7199 41.639 57.3423 41.9901C57.9648 42.3413 58.6625 42.5377 59.3768 42.5629C60.091 42.588 60.8009 42.4411 61.4465 42.1345C62.0921 41.8279 62.6545 41.3707 63.0865 40.8013C63.5184 40.2319 63.8072 39.567 63.9284 38.8627C64.0497 38.1583 63.9999 37.4352 63.7832 36.7541C63.5665 36.073 63.1893 35.454 62.6834 34.9492C62.1774 34.4444 61.5576 34.0686 60.876 33.8535C56.835 32.6025 53.5861 37.3095 55.8 40.545ZM56.8351 35.0595C59.6476 32.4675 63.6436 34.713 63.7471 37.944C63.738 38.7914 63.4955 39.6199 63.0462 40.3384C62.5968 41.0568 61.958 41.6375 61.2001 42.0165C58.6936 43.11 55.656 41.229 55.44 38.5695C55.3857 37.9152 55.4847 37.2572 55.7292 36.6479C55.9737 36.0386 56.357 35.4947 56.8486 35.0595H56.8351ZM28.0486 19.242C24.7231 12.222 16.2001 9.22948 9.32405 13.9095C0.41405 19.998 2.52005 32.85 12.5371 36.306C22.3201 39.78 32.9986 29.7 28.0486 19.242ZM21.7801 35.397C20.9634 35.7969 20.1025 36.0989 19.2151 36.297C19.2736 35.739 19.3456 34.299 19.3726 33.624C19.7956 34.299 20.5606 34.974 21.51 34.839C22.3381 34.7085 23.0716 33.939 23.76 32.589C24.4341 31.1137 24.8132 29.5208 24.8761 27.9C24.9494 27.7124 24.9963 27.5155 25.0156 27.315C25.2442 26.7881 25.5104 26.2783 25.8121 25.7895C25.974 25.6483 26.115 25.4846 26.2306 25.3035C26.3563 24.9547 26.3843 24.5781 26.3116 24.2145C26.2974 23.8498 26.1629 23.5001 25.9291 23.22C26.1136 22.8465 26.6266 21.141 26.7121 20.808C26.7194 20.7723 26.7134 20.7352 26.6951 20.7036C26.6769 20.6721 26.6477 20.6484 26.6131 20.637C25.7109 20.4994 24.7983 20.4422 23.8861 20.466C23.8546 20.4075 22.2346 25.0335 22.0861 25.416C22.0792 25.4369 22.0767 25.4591 22.0787 25.4811C22.0807 25.503 22.0871 25.5244 22.0977 25.5437C22.1082 25.5631 22.1226 25.5801 22.1399 25.5938C22.1573 25.6074 22.1772 25.6173 22.1986 25.623C22.6458 25.6924 23.0964 25.7374 23.5486 25.758C23.5486 25.9515 23.4631 26.487 23.4316 26.658C23.3032 26.8209 23.1987 27.0012 23.1211 27.1935C22.5623 27.6794 22.1691 28.3275 21.9961 29.0475C21.1996 25.551 20.6461 24.048 17.4961 22.2975C17.3386 22.212 17.1496 22.149 16.9786 22.0365C19.1566 22.5585 19.3996 22.806 19.4806 22.698C21.9466 19.224 20.799 15.2505 18.2701 13.653C15.903 11.943 13.5676 13.5585 12.7171 16.263C12.0871 18.3915 13.1671 20.2545 13.7251 21.0285C13.2121 21.078 13.0366 21.1365 12.6271 21.1815C9.16205 21.555 6.35405 25.7085 5.06705 28.953C1.22855 20.1465 9.58955 10.1205 19.3096 12.4425C30.4201 15.489 32.4406 30.24 21.7801 35.397ZM8.01455 33.147C8.35655 32.616 9.21155 31.14 9.40955 30.7935C11.9116 32.7195 16.6096 32.9715 19.0756 31.329C19.0756 31.4055 18.9631 35.7435 18.9631 36.36C17.014 36.7167 15.0084 36.6119 13.1072 36.0539C11.2059 35.496 9.46176 34.5004 8.01455 33.147ZM22.1311 30.051C22.1229 29.9106 22.1064 29.7709 22.0816 29.6325C22.1221 29.5065 22.1491 29.394 22.1896 29.2455C22.4821 29.7315 23.4496 30.5955 23.8501 30.645C23.8702 30.6466 23.8903 30.6413 23.9071 30.6301C23.9239 30.6188 23.9365 30.6023 23.9427 30.583C23.9489 30.5638 23.9485 30.543 23.9415 30.524C23.9345 30.5051 23.9213 30.489 23.9041 30.4785C23.2378 30.0644 22.7026 29.4699 22.3605 28.764C22.4642 28.4817 22.6165 28.2197 22.8106 27.99C23.1633 28.5437 23.6593 28.9915 24.2461 29.286C24.2564 29.2886 24.2672 29.2892 24.2777 29.2877C24.2883 29.2862 24.2985 29.2827 24.3077 29.2772C24.3169 29.2718 24.3249 29.2646 24.3313 29.2561C24.3377 29.2475 24.3424 29.2378 24.3451 29.2275C24.3477 29.2171 24.3483 29.2064 24.3468 29.1958C24.3453 29.1852 24.3417 29.1751 24.3363 29.1659C24.3309 29.1567 24.3237 29.1486 24.3151 29.1422C24.3066 29.1358 24.2969 29.1311 24.2866 29.1285C23.7603 28.7667 23.327 28.2856 23.0221 27.7245C23.0806 27.6525 23.1436 27.5805 23.2066 27.513C23.568 27.8687 24.0497 28.0758 24.5566 28.0935C24.477 29.4422 24.1995 30.772 23.7331 32.04C23.3643 32.9315 22.7872 33.7216 22.0501 34.344C22.6702 33.1402 22.8117 31.7463 22.4461 30.4425C22.437 30.4116 22.418 30.3847 22.3919 30.3659C22.3658 30.3472 22.3342 30.3377 22.3021 30.339C21.9196 30.339 22.4551 31.905 19.7596 33.6375C19.6203 33.4382 19.4955 33.2291 19.3861 33.012C19.4131 31.482 19.3501 29.9565 19.2871 28.4805C19.2871 28.453 19.2761 28.4267 19.2567 28.4073C19.2373 28.3879 19.211 28.377 19.1836 28.377C19.1561 28.377 19.1298 28.3879 19.1104 28.4073C19.091 28.4267 19.0801 28.453 19.0801 28.4805C19.1071 29.2635 19.0801 30.0375 19.0801 30.9645C17.5681 31.914 15.8356 32.2425 13.6216 31.995C12.1488 31.9174 10.7298 31.4158 9.53555 30.5505C9.69305 30.2625 10.3501 29.0025 10.5346 28.665C10.5434 28.6496 10.548 28.6321 10.5479 28.6144C10.5477 28.5966 10.5427 28.5793 10.5335 28.5641C10.5243 28.5489 10.5112 28.5365 10.4956 28.5281C10.4799 28.5197 10.4623 28.5157 10.4446 28.5165C10.3366 28.5165 10.4446 28.4895 9.54455 30.033C8.12503 29.4769 6.97865 28.3887 6.34955 27C7.07792 25.6095 8.03301 24.3503 9.17555 23.274C9.76243 24.0888 10.5071 24.7773 11.3654 25.2987C12.2236 25.82 13.1779 26.1635 14.1715 26.3087C15.1651 26.454 16.1778 26.398 17.1493 26.1441C18.1209 25.8903 19.0315 25.4437 19.8271 24.831C19.8423 24.8147 19.8513 24.7936 19.8525 24.7713C19.8537 24.749 19.8469 24.7271 19.8334 24.7093C19.82 24.6915 19.8007 24.6791 19.7789 24.6742C19.7571 24.6692 19.7343 24.6722 19.7146 24.6825C19.0615 25.1312 18.3518 25.4914 17.6041 25.7535C16.129 26.2207 14.5443 26.2113 13.0749 25.7266C11.6055 25.2419 10.3261 24.3066 9.41855 23.0535C9.84953 22.7038 10.3173 22.402 10.8136 22.1535C12.5191 25.992 16.7266 26.2665 18.7606 23.5035C19.8136 24.3225 20.1376 24.426 20.979 26.46C19.0486 28.143 17.2891 28.98 15.6061 28.962C14.2075 28.9717 12.8251 28.6637 11.563 28.0611C10.3009 27.4585 9.19222 26.5772 8.32055 25.4835C8.24855 25.3845 8.08655 25.4835 8.15855 25.5915C9.50855 27.648 12.069 28.998 15.201 29.295C17.3205 29.502 19.5705 28.2915 21.0826 26.7525C21.3165 27.5265 21.6 28.665 21.6315 28.8C21.4921 29.25 19.9846 30.6495 19.7461 30.7035C19.6066 30.735 19.6785 30.951 19.8046 30.897C20.5298 30.4773 21.1831 29.944 21.7396 29.3175C21.7891 29.5515 21.8791 29.97 21.8926 30.0735C21.9061 30.177 22.1401 30.195 22.1311 30.051ZM24.8311 23.265C24.7753 23.2493 24.7165 23.2475 24.6599 23.2597C24.6032 23.2719 24.5505 23.2977 24.5061 23.335C24.4617 23.3722 24.4271 23.4198 24.4054 23.4735C24.3836 23.5271 24.3752 23.5853 24.3811 23.643C23.8996 23.7465 23.9311 24.093 24.2101 24.318C24.4862 24.4923 24.7717 24.6515 25.0651 24.795C24.9616 25.0425 24.8806 25.245 24.7726 25.4835C24.3225 25.4835 22.9231 25.398 22.4371 25.3575C22.6171 24.795 23.5666 22.1805 24.0886 20.7675C24.5386 20.79 25.9471 20.826 26.4016 20.898C26.2936 21.348 25.8346 22.6575 25.7041 23.067C25.6346 23.0211 25.5565 22.9899 25.4746 22.975C25.3927 22.9601 25.3087 22.962 25.2275 22.9805C25.1464 22.999 25.0698 23.0337 25.0024 23.0826C24.9351 23.1315 24.8783 23.1936 24.8356 23.265H24.8311ZM25.0291 25.6995C25.1056 25.4565 25.2001 25.2225 25.326 24.9165C25.3461 24.92 25.3667 24.917 25.3849 24.9078C25.4031 24.8986 25.4178 24.8839 25.4269 24.8657C25.436 24.8475 25.439 24.8268 25.4354 24.8068C25.4318 24.7867 25.4219 24.7684 25.4071 24.7545C25.2945 24.651 24.2506 24.0975 24.291 23.9895C24.3316 23.8815 24.5926 23.958 24.7411 24.0435C25.0339 24.1641 25.3346 24.2648 25.6411 24.345C25.6607 24.3471 25.6806 24.3427 25.6975 24.3324C25.7144 24.3221 25.7275 24.3066 25.7346 24.2881C25.7418 24.2697 25.7427 24.2494 25.7372 24.2304C25.7316 24.2114 25.72 24.1947 25.7041 24.183C25.3526 24.0554 25.0099 23.9051 24.6781 23.733C24.6106 23.67 24.5791 23.499 24.6781 23.5035C25.0087 23.5823 25.3167 23.7363 25.5781 23.9535C25.5884 23.9632 25.6006 23.9709 25.6138 23.9759C25.6271 23.981 25.6413 23.9833 25.6555 23.9829C25.6697 23.9825 25.6837 23.9793 25.6966 23.9735C25.7096 23.9676 25.7213 23.9593 25.7311 23.949C25.7408 23.9386 25.7484 23.9265 25.7535 23.9132C25.7585 23.8999 25.7609 23.8858 25.7605 23.8715C25.7601 23.8573 25.7569 23.8434 25.751 23.8304C25.7452 23.8174 25.7369 23.8057 25.7266 23.796C25.5575 23.6625 25.3785 23.5422 25.1911 23.436C24.9661 23.3055 25.1281 23.1435 25.3531 23.175C25.6546 23.22 26.0415 23.625 26.0011 24.4575C26.0385 24.6811 26.0095 24.9108 25.9175 25.118C25.8254 25.3252 25.6746 25.5008 25.4836 25.623C25.1936 26.0832 24.948 26.5698 24.7501 27.0765C24.5522 27.1277 24.3438 27.1214 24.1493 27.0585C23.9549 26.9955 23.7824 26.8785 23.6521 26.721C23.6836 26.5635 23.7781 26.0235 23.8051 25.821C24.8086 25.8525 24.9841 25.848 25.0336 25.6995H25.0291ZM22.2706 31.149C22.4255 32.2972 22.236 33.4656 21.726 34.506C21.3973 34.6002 21.0473 34.5897 20.7248 34.476C20.4022 34.3623 20.1231 34.151 19.9261 33.8715C21.0226 33.2917 21.8599 32.3194 22.2706 31.149ZM13.9906 21.4335C13.9986 21.443 14.009 21.4501 14.0208 21.454C14.0326 21.4579 14.0452 21.4585 14.0573 21.4557C14.0694 21.4529 14.0805 21.4468 14.0893 21.4382C14.0982 21.4295 14.1045 21.4185 14.1076 21.4065C14.7871 18.7335 14.7691 18.9 14.7061 18.864C13.9501 18.45 14.1885 17.6445 14.4945 17.55C14.6476 17.5005 14.8501 17.5995 15.0526 17.8245C15.1848 17.9488 15.2851 18.1032 15.345 18.2745C15.795 19.5345 18.2881 17.874 19.3681 17.0775C19.443 17.0152 19.5316 16.9715 19.6267 16.9501C19.7218 16.9287 19.8206 16.9301 19.915 16.9543C20.0094 16.9784 20.0967 17.0246 20.1698 17.0891C20.2429 17.1535 20.2997 17.2343 20.3356 17.325C20.4391 17.523 20.2501 17.6895 20.1376 17.4735C19.9036 17.0775 19.4941 17.298 19.5031 17.406C19.5931 18.522 19.3861 20.106 18.5176 20.88C17.6491 21.654 16.6411 21.2535 16.5511 21.33C16.4611 21.4065 16.5106 21.4785 16.5106 21.564C16.4703 21.6595 16.4524 21.7629 16.4583 21.8664C16.4642 21.9699 16.4937 22.0706 16.5445 22.161C16.5953 22.2513 16.6661 22.3288 16.7515 22.3876C16.8369 22.4463 16.9345 22.4848 17.0371 22.5C17.4048 22.6389 17.7551 22.8202 18.0811 23.04C16.4791 25.515 12.9781 25.1505 11.6371 21.816C12.3867 21.56 13.1681 21.4086 13.9591 21.366L13.9906 21.4335ZM6.20105 27.2835C6.49179 27.9783 6.92583 28.6039 7.47483 29.1196C8.02382 29.6352 8.67541 30.0293 9.38705 30.276C9.33305 30.3615 8.07755 32.4135 7.78055 32.9175C6.68792 31.8678 5.79985 30.6242 5.16155 29.25C5.60705 28.449 5.85005 27.963 6.20105 27.288V27.2835ZM84.8521 19.3095C82.3186 11.2095 73.1881 7.48798 66.0961 11.799C58.1041 16.65 57.6271 27.45 65.2501 32.904C75.2671 40.05 88.3351 30.186 84.8521 19.3095ZM71.1721 31.5855C72.6616 33.561 74.1556 33.714 75.1545 33.4845C77.0176 33.0615 78.6511 30.969 79.1281 28.3905C79.1346 28.36 79.1288 28.3283 79.1119 28.3021C79.0951 28.2759 79.0685 28.2575 79.0381 28.251C79.0076 28.2444 78.9758 28.2502 78.9497 28.2671C78.9235 28.284 78.9051 28.3105 78.8986 28.341C78.6867 29.442 78.2249 30.4797 77.5486 31.374C74.9026 34.821 72.1486 33.138 70.0381 29.322C69.3521 28.2279 68.9671 26.9721 68.9221 25.6815C69.9931 25.1775 69.9706 25.1505 70.0966 25.2585C71.3476 26.334 73.6201 28.899 73.9351 29.2455C73.9407 29.2754 73.9566 29.3024 73.98 29.3218C74.0034 29.3412 74.0329 29.3519 74.0633 29.3519C74.0937 29.3519 74.1232 29.3412 74.1466 29.3218C74.17 29.3024 74.1859 29.2754 74.1916 29.2455C74.6955 27.2115 75.0916 25.101 76.59 23.6475C77.1464 23.5194 77.7099 23.4247 78.2775 23.364C80.2711 25.884 79.9876 29.2455 79.9786 32.436C78.6421 33.4565 77.1069 34.1859 75.4716 34.5772C73.8363 34.9686 72.1372 35.0133 70.4836 34.7085C70.5808 33.6427 70.8121 32.5934 71.1721 31.5855ZM78.6601 23.3235C78.9031 23.3235 78.8806 22.9275 78.6601 22.959C77.7208 23.0373 76.7986 23.2558 75.9241 23.607C75.8026 23.6565 75.6631 23.6835 75.7081 23.805C75.7531 23.9265 75.8521 23.8365 76.1896 23.751C74.8666 25.1505 74.3671 27.1215 74.0206 28.8945C73.7731 28.593 73.1611 27.8955 73.0036 27.7155C74.3895 24.66 74.3131 24.5655 75.1276 23.949C75.4426 23.697 76.7251 22.77 77.7871 22.104C78.3541 21.744 78.7591 21.492 79.7041 22.8015C80.5816 24.021 80.604 24.039 80.0415 26.7165C79.8725 25.4835 79.3855 24.3158 78.6286 23.328L78.6601 23.3235ZM68.7601 20.673C68.8411 20.673 68.8816 20.736 68.9446 20.8305C70.4296 23.0805 70.3171 22.824 70.3171 22.869C70.3171 23.085 70.6096 23.409 70.9021 23.6835C70.6636 23.7735 70.2181 23.9535 69.9526 24.0615C69.9526 23.2335 69.3676 23.2335 69.2101 23.58C68.9311 23.1705 68.3101 22.3605 68.1841 22.203C68.1499 22.1545 68.1037 22.1158 68.0501 22.0905C67.9965 22.0653 67.9372 22.0544 67.8781 22.059C67.6666 21.789 67.1896 21.159 67.0051 20.8845C67.0501 20.8755 68.6161 20.7 68.7556 20.673H68.7601ZM71.8201 24.939C71.7526 25.488 70.8931 24.876 71.2261 24.57C71.2876 24.6742 71.3733 24.7621 71.4759 24.8263C71.5784 24.8905 71.6949 24.9291 71.8156 24.939H71.8201ZM71.7706 24.6555C71.5861 24.624 71.2126 24.2055 71.3206 24.111C71.4286 24.0165 71.8921 24.5835 71.8831 24.651C71.8453 24.6637 71.8047 24.6653 71.7661 24.6555H71.7706ZM72.8011 27.513C72.4096 27.099 70.6321 25.263 70.5871 25.227C70.5218 25.1295 70.4375 25.0462 70.3393 24.982C70.2411 24.9179 70.131 24.8742 70.0156 24.8535C69.9564 24.7003 69.9333 24.5355 69.9481 24.372L71.1091 23.877C71.2171 23.9715 71.1091 23.877 71.0551 24.084C71.0292 24.1805 71.0405 24.2833 71.0866 24.372C70.6366 24.705 71.0865 25.479 71.6805 25.4205C71.857 25.5414 72.0096 25.694 72.1306 25.8705C72.2636 26.3298 72.4525 26.7711 72.6931 27.1845C72.8416 27.45 72.8326 27.4185 72.7966 27.513H72.8011ZM72.4185 25.9065C72.4185 25.7625 72.9361 25.2225 73.0171 25.155C73.2582 25.2251 73.4931 25.3154 73.7191 25.425C73.5886 25.722 73.1701 26.6715 72.9631 27.153C72.7372 26.7577 72.5532 26.3399 72.4141 25.9065H72.4185ZM72.2341 25.6185C72.1471 25.5038 72.044 25.4023 71.9281 25.317C71.9835 25.2571 72.0252 25.1857 72.05 25.108C72.0749 25.0302 72.0824 24.948 72.0721 24.867C72.0979 24.8498 72.1197 24.8272 72.136 24.8008C72.1523 24.7744 72.1627 24.7448 72.1665 24.714C72.2026 24.5025 71.9641 24.327 71.8066 24.1785C71.3405 23.8127 70.9258 23.3859 70.5736 22.9095C70.9312 23.0886 71.2729 23.2979 71.5951 23.535C72.1351 23.9355 72.8281 24.3135 72.7741 24.9795C72.5754 25.1772 72.3933 25.391 72.2296 25.6185H72.2341ZM67.9501 22.329C68.4075 22.8456 68.827 23.3945 69.2056 23.9715C69.2186 23.9916 69.2374 24.0073 69.2594 24.0168C69.2814 24.0262 69.3057 24.029 69.3293 24.0246C69.3529 24.0203 69.3746 24.0091 69.3918 23.9924C69.409 23.9758 69.421 23.9544 69.4261 23.931C69.4261 23.805 69.4846 23.58 69.6016 23.6295C69.8491 23.967 69.6016 24.4935 69.7681 24.912C68.562 25.443 69.5476 25.308 68.8051 24.462C68.1166 23.7375 67.8466 22.5585 67.9501 22.329ZM72.5896 21.879C72.7539 21.2902 72.7539 20.6677 72.5896 20.079C72.5228 19.8166 72.4821 19.5483 72.468 19.278C72.7383 19.3068 73.0114 19.2947 73.2781 19.242C74.0656 19.1115 74.4706 18.6885 74.6641 18.819C74.7901 18.9045 74.8126 19.17 74.7316 19.593C74.7298 19.6067 74.7322 19.6206 74.7386 19.6329C74.7451 19.6452 74.7551 19.6552 74.7673 19.6616C74.7796 19.668 74.7936 19.6704 74.8073 19.6686C74.821 19.6668 74.8338 19.6608 74.8441 19.6515C75.0154 19.5112 75.2301 19.4348 75.4516 19.4355C76.0501 19.485 76.0276 20.3355 75.4516 20.7C75.4392 20.7098 75.4306 20.7237 75.4274 20.7392C75.4242 20.7548 75.4266 20.7709 75.4341 20.7848C75.4416 20.7988 75.4538 20.8096 75.4685 20.8155C75.4832 20.8214 75.4995 20.8219 75.5146 20.817C75.7306 20.7428 75.9623 20.7266 76.1866 20.77C76.4109 20.8134 76.6198 20.915 76.7925 21.0645C76.8868 21.4412 77.0148 21.8087 77.1751 22.1625C76.5496 22.59 75.7126 23.175 75.1141 23.6385C74.5741 22.5045 73.9036 23.31 73.4401 22.401C72.9721 21.6225 72.675 21.8925 72.5671 21.8655L72.5896 21.879ZM80.1316 27.279C80.4558 26.2908 80.6421 25.2626 80.6851 24.2235C80.6212 23.7233 80.4186 23.2509 80.1001 22.86C78.8221 21.015 78.3001 21.321 77.3146 21.987C77.2246 21.7125 77.0266 21.141 76.9906 20.988C77.049 20.9295 77.2021 20.781 77.2471 20.7495C77.4135 20.5159 77.5425 20.2578 77.6296 19.9845C77.7447 19.6027 77.7919 19.2036 77.7691 18.8055C77.7917 18.4281 77.7318 18.0503 77.5936 17.6985C77.3073 17.1981 76.8548 16.8139 76.3147 16.6125C75.7746 16.4111 75.181 16.4052 74.6371 16.596C73.7956 16.317 72.7111 16.029 72.3016 16.2045C71.9759 16.283 71.6841 16.4639 71.4688 16.7205C71.2536 16.9771 71.1263 17.296 71.1056 17.6303C71.085 17.9647 71.1721 18.2968 71.3541 18.5779C71.5362 18.8591 71.8036 19.0745 72.1171 19.1925C72.1034 19.5399 72.1429 19.8874 72.2341 20.223C72.3866 20.6953 72.3991 21.2017 72.2701 21.681C72.1891 22.041 72.3061 22.203 72.7201 22.131C73.2061 22.167 72.9406 23.031 74.0431 23.193C74.3085 23.238 74.5201 23.2785 74.7946 23.787C74.3355 24.1539 73.9905 24.644 73.8001 25.2C73.5553 25.0557 73.2958 24.938 73.0261 24.849C72.9963 24.6246 72.9181 24.4094 72.7968 24.2183C72.6756 24.0271 72.5143 23.8646 72.3241 23.742C71.9047 23.3918 71.4527 23.0829 70.9741 22.8195C70.8796 22.77 70.6816 22.617 70.5241 22.6485C68.9581 20.2635 69.12 20.367 68.6296 20.367C67.996 20.3913 67.3662 20.4757 66.7486 20.619C66.7264 20.6273 66.7064 20.6405 66.69 20.6577C66.6736 20.6748 66.6613 20.6954 66.6541 20.718C66.6271 20.826 66.6541 20.763 67.2841 21.663C67.8691 22.482 67.6576 22.0815 67.6936 22.5225C67.7733 23.3727 68.1199 24.176 68.6836 24.8175C68.7908 24.9824 68.8341 25.1809 68.8051 25.3755L68.7466 25.4025C68.5936 25.479 68.7871 27.0135 68.8951 27.3735C69.3894 28.7878 70.1015 30.1163 71.0056 31.311C70.5625 32.3745 70.2907 33.5015 70.2001 34.65C66.1816 33.75 62.7481 31.0185 61.2001 27.4725C59.6521 23.9265 60.0481 19.7685 62.3971 15.885C68.8996 6.34048 83.1601 10.1745 84.8521 21.3255C85.4731 25.56 83.6191 29.5785 80.2891 32.2155C80.3345 30.5706 80.2714 28.9245 80.1001 27.288L80.1316 27.279ZM78.3586 36.414C78.3978 37.1358 78.5232 37.8504 78.7321 38.5425C78.7464 38.5854 78.7772 38.6209 78.8177 38.6411C78.8582 38.6614 78.9051 38.6647 78.9481 38.6505C79.2901 38.5515 78.7861 38.079 78.6376 36.4005C78.6241 36.225 78.3451 36.234 78.3586 36.414ZM79.7356 41.7915C79.7266 41.7539 79.7031 41.7214 79.6702 41.7011C79.6373 41.6809 79.5976 41.6745 79.5601 41.6835C79.5225 41.6924 79.49 41.716 79.4697 41.7489C79.4495 41.7818 79.4431 41.8214 79.4521 41.859C80.0281 44.784 79.9516 45.0675 80.2441 45.009C80.5366 44.9505 80.3296 44.6715 79.7356 41.7915ZM80.7931 48.7485C80.5456 48.816 80.8741 48.852 81.0946 51.5835C81.0946 51.831 81.4996 51.8175 81.4726 51.5835C81.3592 50.6599 81.1802 49.7456 80.9371 48.8475C80.9357 48.8308 80.9307 48.8146 80.9223 48.8001C80.9139 48.7856 80.9024 48.7732 80.8886 48.7637C80.8748 48.7542 80.8591 48.7479 80.8426 48.7453C80.826 48.7426 80.8091 48.7437 80.7931 48.7485ZM69.3721 41.3055C69.8526 39.8798 70.2537 38.4286 70.5736 36.9585C70.5803 36.9246 70.5739 36.8895 70.5556 36.8603C70.5372 36.831 70.5084 36.8099 70.475 36.8013C70.4416 36.7926 70.4061 36.7971 70.3759 36.8138C70.3457 36.8305 70.323 36.8581 70.3126 36.891C69.9526 38.3355 69.4756 39.735 69.0301 41.202C69.0225 41.2453 69.0311 41.2898 69.0542 41.3272C69.0773 41.3646 69.1132 41.3923 69.1553 41.405C69.1973 41.4178 69.2426 41.4147 69.2825 41.3963C69.3224 41.378 69.3543 41.3457 69.3721 41.3055ZM67.5451 47.25C67.7971 47.25 67.7521 46.944 68.4676 44.2665C68.4771 44.2343 68.4735 44.1996 68.4574 44.17C68.4414 44.1405 68.4143 44.1185 68.3821 44.109C68.3498 44.0994 68.3151 44.1031 68.2856 44.1191C68.2561 44.1351 68.2341 44.1623 68.2246 44.1945C68.0851 44.6445 67.4731 46.539 67.3606 47.016C67.3537 47.0439 67.3533 47.073 67.3594 47.1011C67.3655 47.1291 67.3779 47.1554 67.3957 47.178C67.4135 47.2006 67.4362 47.2188 67.4621 47.2312C67.4879 47.2437 67.5163 47.2501 67.5451 47.25ZM65.5021 53.1C65.6596 53.1 65.6506 52.983 65.7811 52.461C65.9566 51.75 66.2311 50.661 66.3391 50.355C66.4066 50.175 66.1321 50.094 66.0646 50.265C65.7611 51.1465 65.522 52.0489 65.3491 52.965C65.3525 53.0028 65.3702 53.0378 65.3987 53.0629C65.4272 53.088 65.4641 53.1013 65.5021 53.1ZM64.0171 56.9295C63.6024 57.7328 63.2823 58.5815 63.0631 59.4585C63.0511 59.5038 63.0577 59.5521 63.0813 59.5926C63.1049 59.6331 63.1437 59.6625 63.1891 59.6745C63.2344 59.6864 63.2826 59.6798 63.3231 59.6562C63.3637 59.6326 63.3931 59.5938 63.4051 59.5485C64.1566 56.997 64.3996 56.9745 64.1791 56.8485C64.1632 56.8422 64.1461 56.8393 64.129 56.84C64.112 56.8408 64.0952 56.8451 64.0799 56.8528C64.0647 56.8604 64.0511 56.8712 64.0403 56.8844C64.0295 56.8976 64.0215 56.913 64.0171 56.9295ZM59.3145 43.848C59.3596 44.199 59.5215 45.648 59.5756 46.0485C59.5788 46.0733 59.5869 46.0972 59.5994 46.1189C59.6119 46.1406 59.6286 46.1596 59.6484 46.1749C59.6683 46.1901 59.6909 46.2013 59.7151 46.2078C59.7393 46.2143 59.7645 46.216 59.7893 46.2127C59.8141 46.2095 59.8381 46.2014 59.8597 46.1889C59.8814 46.1764 59.9004 46.1597 59.9157 46.1399C59.9309 46.12 59.9421 46.0974 59.9486 46.0732C59.9551 46.049 59.9568 46.0238 59.9535 45.999C59.8951 45.612 59.6431 44.1585 59.5891 43.812C59.562 43.65 59.292 43.6815 59.3145 43.848ZM60.0211 50.2875C60.0706 50.571 60.2551 51.795 60.3135 52.119C60.3586 52.362 60.7186 52.272 60.6735 52.0335C60.5656 51.435 60.4216 50.832 60.3091 50.2335C60.2731 50.031 59.9896 50.103 60.0211 50.2875ZM60.75 56.547C60.7701 57.3023 60.8514 58.0548 60.993 58.797C61.047 59.0445 61.4161 58.9455 61.3711 58.7025C61.2172 57.9874 61.1001 57.265 61.0201 56.538C60.9796 56.3715 60.7186 56.367 60.75 56.547ZM49.05 19.098C48.9646 18.936 48.726 19.071 48.8025 19.233C50.265 22.2345 50.1525 22.2615 50.364 22.2615C50.3989 22.2612 50.4332 22.252 50.4636 22.2349C50.494 22.2178 50.5196 22.1934 50.538 22.1637C50.5564 22.1341 50.567 22.1003 50.5689 22.0655C50.5707 22.0306 50.5637 21.9959 50.5485 21.9645C50.0536 20.997 49.5316 20.0565 49.05 19.098ZM51.84 24.966C51.7725 24.813 51.5431 24.9345 51.6105 25.0875C52.0606 26.091 52.4341 27.1215 52.8931 28.1295C52.9921 28.3545 53.3205 28.1745 53.2215 27.954C52.7761 26.919 52.2495 25.8795 51.84 24.966ZM55.8 34.1325C55.8273 34.134 55.8545 34.1287 55.8793 34.1172C55.904 34.1058 55.9256 34.0883 55.942 34.0666C55.9585 34.0448 55.9693 34.0193 55.9736 33.9923C55.9779 33.9654 55.9754 33.9378 55.9666 33.912C55.8091 33.462 55.0305 31.8105 54.8326 31.365C54.7515 31.1805 54.4815 31.3245 54.558 31.509C55.6291 33.966 55.611 34.1325 55.8 34.1325ZM63.9991 32.499C63.8326 32.7825 63.0676 33.822 62.8606 34.0875C62.8452 34.1073 62.8339 34.1299 62.8273 34.1541C62.8206 34.1782 62.8188 34.2035 62.822 34.2283C62.8251 34.2532 62.8331 34.2772 62.8455 34.299C62.8579 34.3208 62.8745 34.3399 62.8943 34.3552C62.9141 34.3706 62.9367 34.3819 62.9609 34.3885C62.9851 34.3952 63.0103 34.3969 63.0352 34.3938C63.06 34.3907 63.084 34.3827 63.1058 34.3703C63.1276 34.3579 63.1467 34.3413 63.1621 34.3215C63.5495 33.781 63.9013 33.2158 64.2151 32.6295C64.2324 32.6008 64.2376 32.5665 64.2296 32.534C64.2215 32.5015 64.2009 32.4735 64.1723 32.4562C64.1437 32.4389 64.1093 32.4337 64.0768 32.4417C64.0443 32.4497 64.0164 32.4703 63.9991 32.499ZM56.1376 15.525C56.3221 15.525 56.4211 15.246 56.2276 15.1605C55.8181 14.976 54.0946 14.4045 53.6671 14.2605C53.4916 14.193 53.4016 14.463 53.577 14.5305C54.0315 14.6925 55.9891 15.525 56.1376 15.525ZM57.6991 16.2C58.5068 16.6395 59.3553 16.9996 60.2326 17.2755C60.2829 17.2842 60.3347 17.2739 60.3779 17.2467C60.4212 17.2195 60.4529 17.1772 60.4668 17.1281C60.4808 17.0789 60.4761 17.0263 60.4536 16.9804C60.4311 16.9345 60.3925 16.8986 60.3451 16.8795C59.4839 16.6457 58.6462 16.3323 57.843 15.9435C57.672 15.867 57.528 16.128 57.6991 16.2ZM36.2206 15.93C38.0205 14.7195 38.5606 14.994 38.4706 14.6745C38.4654 14.6561 38.4566 14.6389 38.4447 14.6239C38.4328 14.6089 38.4181 14.5965 38.4013 14.5872C38.3846 14.578 38.3661 14.5722 38.3471 14.5702C38.3281 14.5682 38.3089 14.57 38.2905 14.5755C37.4781 14.7892 36.7049 15.1309 36 15.588C35.793 15.75 36 16.074 36.2206 15.93ZM32.1301 17.4465C31.9906 17.559 32.1031 17.7435 32.2606 17.7435C32.3146 17.7435 32.3235 17.7435 32.8186 17.496C33.3135 17.2485 33.8806 16.983 34.0921 16.92C34.1276 16.906 34.1566 16.8792 34.1734 16.8449C34.1902 16.8107 34.1936 16.7713 34.1828 16.7347C34.1721 16.6981 34.1481 16.6667 34.1155 16.6469C34.0829 16.6271 34.044 16.6201 34.0065 16.6275C33.3553 16.8373 32.7267 17.1117 32.1301 17.4465Z" fill="black"/>
<path d="M30.3932 18.297C30.1592 18.4275 28.8677 19.107 28.7282 19.197C28.6995 19.2169 28.6776 19.2453 28.6655 19.2781C28.6534 19.3109 28.6516 19.3466 28.6604 19.3804C28.6692 19.4143 28.6882 19.4446 28.7148 19.4673C28.7414 19.49 28.7743 19.504 28.8092 19.5075C29.407 19.2251 29.9871 18.9065 30.5462 18.5535C30.5714 18.5296 30.5878 18.4978 30.5926 18.4633C30.5974 18.4288 30.5903 18.3938 30.5725 18.3639C30.5546 18.334 30.5272 18.3111 30.4946 18.2989C30.462 18.2868 30.4262 18.2861 30.3932 18.297ZM26.5502 11.106C27.1541 11.11 27.7526 10.9917 28.3096 10.7582C28.8666 10.5247 29.3706 10.1808 29.791 9.74731C30.2115 9.31378 30.5399 8.79958 30.7563 8.23571C30.9727 7.67185 31.0726 7.07 31.0502 6.46646C30.9152 2.44796 25.7087 0.530959 23.0762 3.95096C20.7002 6.92546 22.9862 11.106 26.5502 11.106ZM23.8502 3.59996C26.6087 1.05746 30.6587 3.14996 30.7622 6.48446C30.7539 7.33078 30.5099 8.15805 30.0576 8.87343C29.6053 9.58882 28.9626 10.164 28.2017 10.5345C25.6862 11.6325 22.6577 9.74696 22.4417 7.09196C22.3898 6.44056 22.49 5.78602 22.7345 5.18C22.9789 4.57398 23.3608 4.03307 23.8502 3.59996ZM36.5582 7.29446C37.3547 7.37996 38.1557 7.38896 38.9522 7.42496C38.988 7.42496 39.0223 7.41074 39.0476 7.38542C39.0729 7.3601 39.0872 7.32576 39.0872 7.28996C39.0872 7.25416 39.0729 7.21982 39.0476 7.1945C39.0223 7.16918 38.988 7.15496 38.9522 7.15496C38.1152 7.07846 37.6022 6.97496 36.5582 6.90746C36.3197 6.89396 36.3152 7.26746 36.5582 7.29446ZM31.8422 6.81746C32.2067 6.85796 33.7052 6.96146 34.0922 7.01096C34.2947 7.04246 34.3757 6.73646 34.1642 6.70046C33.4025 6.58089 32.6348 6.50277 31.8647 6.46646C31.8416 6.46498 31.8185 6.46806 31.7966 6.47551C31.7748 6.48297 31.7546 6.49466 31.7373 6.50991C31.7199 6.52516 31.7058 6.54368 31.6956 6.5644C31.6854 6.58513 31.6794 6.60766 31.6779 6.63071C31.6764 6.65376 31.6795 6.67687 31.687 6.69873C31.6944 6.72058 31.7061 6.74076 31.7214 6.7581C31.7366 6.77544 31.7551 6.78961 31.7759 6.7998C31.7966 6.80998 31.8191 6.81598 31.8422 6.81746ZM13.9502 40.113C14.0807 39.285 14.1122 38.4615 14.2112 37.638C14.2337 37.485 13.9817 37.449 13.9592 37.6065C13.8332 38.4165 13.6397 39.231 13.5452 40.0545C13.5456 40.1039 13.5637 40.1516 13.5963 40.1888C13.6288 40.2261 13.6736 40.2504 13.7226 40.2575C13.7715 40.2646 13.8214 40.2539 13.8631 40.2274C13.9049 40.2009 13.9357 40.1603 13.9502 40.113ZM13.4642 42.3405C13.0142 44.811 12.9107 45.1125 13.2347 45.1125C13.4777 45.1125 13.4327 44.9505 13.7387 42.3765C13.7612 42.21 13.5002 42.174 13.4642 42.3405ZM21.7397 46.4535C21.0557 46.8135 20.2052 47.232 19.9397 47.3895C19.9028 47.4113 19.8742 47.4447 19.8583 47.4845C19.8425 47.5244 19.8403 47.5683 19.8522 47.6095C19.864 47.6507 19.8892 47.6868 19.9238 47.7121C19.9583 47.7374 20.0003 47.7506 20.0432 47.7495C20.6707 47.4382 21.2806 47.0927 21.8702 46.7145C21.8977 46.6935 21.917 46.6636 21.9248 46.6299C21.9326 46.5962 21.9285 46.5609 21.913 46.5299C21.8975 46.499 21.8717 46.4744 21.8401 46.4605C21.8085 46.4465 21.7729 46.444 21.7397 46.4535ZM19.1072 47.8395C18.6159 48.0697 18.1367 48.325 17.6717 48.6045C17.5277 48.735 17.6987 48.951 17.8697 48.87C18.0407 48.789 18.9992 48.195 19.2197 48.0915C19.4402 47.988 19.2737 47.7675 19.1072 47.8395ZM37.2287 51.588C37.3907 51.6915 37.5437 51.444 37.3862 51.336C37.0442 51.111 35.7437 50.148 35.3837 49.959C35.3371 49.9365 35.2839 49.9319 35.2341 49.946C35.1844 49.9601 35.1415 49.9919 35.1137 50.0355C34.9292 50.3235 35.5502 50.4855 37.2287 51.588ZM30.9962 47.43C31.2212 47.5875 31.4462 47.736 31.6757 47.88C33.2102 48.897 33.1382 48.9285 33.2327 48.9285C33.2638 48.928 33.294 48.9184 33.3197 48.9008C33.3453 48.8832 33.3651 48.8584 33.3767 48.8295C33.3882 48.8006 33.391 48.769 33.3846 48.7385C33.3781 48.7081 33.3629 48.6802 33.3407 48.6585C32.6575 48.0962 31.9439 47.5719 31.2032 47.088C30.9872 46.9575 30.7892 47.2905 30.9962 47.43ZM75.3077 62.343C74.5697 62.4465 73.8092 62.523 73.0577 62.694C73.0114 62.7082 72.9718 62.7386 72.946 62.7795C72.9202 62.8204 72.9099 62.8692 72.917 62.9171C72.9241 62.9649 72.948 63.0087 72.9846 63.0404C73.0211 63.0721 73.0678 63.0897 73.1161 63.09C73.2917 63.09 74.4122 62.7885 75.3661 62.64C75.6002 62.622 75.5102 62.307 75.3077 62.343ZM71.3297 63.072C70.5737 63.1845 69.7412 63.252 68.9222 63.3915C68.6927 63.432 68.7556 63.765 68.9807 63.765C69.2057 63.765 70.8167 63.441 71.3882 63.351C71.5727 63.3195 71.5097 63.045 71.3297 63.072ZM44.1002 46.9395C44.0775 46.9013 44.0406 46.8737 43.9975 46.8627C43.9545 46.8517 43.9088 46.8583 43.8707 46.881C43.8325 46.9036 43.8048 46.9406 43.7939 46.9836C43.7829 47.0266 43.7895 47.0723 43.8122 47.1105C44.0342 47.4724 44.3842 47.7376 44.7926 47.8534C45.2011 47.9693 45.6382 47.9274 46.0172 47.736C46.0425 47.7205 46.061 47.696 46.069 47.6674C46.0769 47.6388 46.0737 47.6083 46.06 47.582C46.0462 47.5556 46.023 47.5355 45.995 47.5257C45.967 47.5158 45.9363 47.517 45.9092 47.529C45.5864 47.6589 45.2282 47.6711 44.8974 47.5633C44.5666 47.4555 44.2844 47.2346 44.1002 46.9395ZM47.2502 45.2745C47.2187 45.5355 46.9847 45.3915 46.9667 45.549C46.9667 45.6345 47.0387 45.666 47.1287 45.666C47.2085 45.6632 47.2862 45.6392 47.3538 45.5964C47.4213 45.5536 47.4762 45.4937 47.5129 45.4226C47.5495 45.3516 47.5666 45.2721 47.5624 45.1923C47.5581 45.1124 47.5327 45.0352 47.4887 44.9685C47.2363 44.6979 47.006 44.4074 46.8002 44.1C46.7924 44.0719 46.7738 44.0481 46.7485 44.0338C46.7232 44.0194 46.6932 44.0157 46.6652 44.0235C46.6371 44.0312 46.6133 44.0498 46.5989 44.0751C46.5846 44.1004 46.5809 44.1304 46.5887 44.1585C46.6944 44.3965 46.8273 44.6214 46.9847 44.829C47.0875 44.9684 47.1765 45.1176 47.2502 45.2745ZM44.8607 41.9805C44.8487 41.9268 44.8159 41.88 44.7695 41.8505C44.7231 41.8209 44.6669 41.811 44.6132 41.823C44.5594 41.8349 44.5127 41.8677 44.4831 41.9141C44.4536 41.9605 44.4437 42.0168 44.4557 42.0705C44.5817 42.9255 44.5052 43.29 44.8427 43.29C44.9071 43.29 44.9689 43.2644 45.0145 43.2188C45.0601 43.1732 45.0857 43.1114 45.0857 43.047C45.0857 42.9345 44.8967 42.1695 44.8607 41.9805ZM48.3977 42.021C48.3881 41.9719 48.3611 41.9279 48.3217 41.8972C48.2823 41.8664 48.233 41.851 48.1831 41.8538C48.1332 41.8565 48.0859 41.8772 48.0501 41.9121C48.0143 41.947 47.9923 41.9936 47.9882 42.0435C47.9882 42.111 48.0512 42.9165 48.0737 42.9795C48.0802 43.0391 48.1102 43.0938 48.1571 43.1313C48.2039 43.1689 48.2637 43.1863 48.3234 43.1797C48.3831 43.1732 48.4377 43.1432 48.4753 43.0963C48.5128 43.0495 48.5302 42.9896 48.5237 42.93C48.5147 42.876 48.4427 42.435 48.3977 42.021ZM44.1542 41.751C44.2119 41.5596 44.3317 41.393 44.4947 41.2773C44.6577 41.1616 44.8545 41.1034 45.0542 41.112C45.0891 41.116 45.1244 41.1066 45.1528 41.0858C45.1811 41.0649 45.2006 41.0341 45.2072 40.9995C45.2522 40.6755 44.0417 40.806 43.7762 41.6475C43.7624 41.6976 43.7692 41.7511 43.7949 41.7963C43.8207 41.8414 43.8633 41.8745 43.9134 41.8882C43.9635 41.9019 44.0171 41.8952 44.0622 41.8694C44.1074 41.8437 44.1404 41.8011 44.1542 41.751ZM47.5202 40.95C47.6839 40.9405 47.8461 40.9851 47.982 41.077C48.1178 41.1689 48.2196 41.303 48.2717 41.4585C48.3527 41.634 48.6362 41.517 48.5822 41.328C48.494 41.1158 48.3351 40.9407 48.1325 40.8324C47.9299 40.7241 47.696 40.6894 47.4707 40.734C47.4463 40.7443 47.4263 40.7628 47.4143 40.7864C47.4022 40.8099 47.3988 40.837 47.4047 40.8627C47.4106 40.8885 47.4255 40.9114 47.4466 40.9274C47.4677 40.9433 47.4937 40.9513 47.5202 40.95ZM82.2467 56.0925C82.2467 56.0925 82.0082 55.0035 81.9452 54.6885C81.9374 54.6533 81.916 54.6226 81.8856 54.6032C81.8552 54.5838 81.8184 54.5772 81.7832 54.585C81.7479 54.5927 81.7173 54.6142 81.6979 54.6445C81.6784 54.6749 81.6719 54.7118 81.6796 54.747L81.8912 56.0295C81.1763 55.9389 80.4503 56.0013 79.7614 56.2126C79.0725 56.4238 78.4364 56.779 77.8951 57.2548C77.3539 57.7305 76.92 58.3158 76.6221 58.9719C76.3242 59.628 76.1691 60.3399 76.1672 61.0605C76.4371 67.842 86.1706 67.707 86.3056 61.0605C86.3148 59.889 85.9141 58.7511 85.1728 57.8439C84.4316 56.9366 83.3965 56.3171 82.2467 56.0925ZM83.4077 63.189C82.6967 65.2095 80.0146 64.8495 80.0146 62.4375V60.9795C79.936 60.9895 79.8562 60.9827 79.7804 60.9595C79.7047 60.9363 79.6347 60.8972 79.5752 60.8448C79.5157 60.7924 79.4681 60.728 79.4354 60.6558C79.4028 60.5836 79.3859 60.5052 79.3859 60.426C79.3859 60.3467 79.4028 60.2684 79.4354 60.1962C79.4681 60.1239 79.5157 60.0595 79.5752 60.0071C79.6347 59.9548 79.7047 59.9157 79.7804 59.8925C79.8562 59.8692 79.936 59.8624 80.0146 59.8725C80.0146 59.4225 80.0147 58.9725 80.0462 58.482C80.0479 58.4093 80.064 58.3376 80.0934 58.2712C80.1229 58.2047 80.1651 58.1446 80.2178 58.0945C80.2704 58.0443 80.3324 58.0051 80.4003 57.9789C80.4681 57.9527 80.5405 57.9402 80.6132 57.942C80.7604 57.9467 80.8997 58.0094 81.0009 58.1165C81.1021 58.2235 81.1568 58.3662 81.1532 58.5135C81.1532 58.986 81.1532 59.436 81.1262 59.8635H82.0757C82.1483 59.8617 82.2205 59.8744 82.2882 59.901C82.3558 59.9275 82.4174 59.9674 82.4694 60.0181C82.5214 60.0688 82.5628 60.1295 82.591 60.1964C82.6192 60.2634 82.6337 60.3353 82.6337 60.408C82.6348 60.481 82.6216 60.5536 82.5946 60.6215C82.5676 60.6894 82.5274 60.7513 82.4763 60.8036C82.4253 60.8559 82.3644 60.8976 82.2972 60.9262C82.2299 60.9548 82.1577 60.9699 82.0847 60.9705H81.1127C81.1127 62.613 81.0676 62.8875 81.2926 63.1665C81.6122 63.5715 82.0982 63.4365 82.3502 62.8155C82.3997 62.6752 82.5029 62.5604 82.6371 62.4963C82.7713 62.4322 82.9254 62.4239 83.0657 62.4735C83.2059 62.523 83.3207 62.6262 83.3848 62.7604C83.449 62.8946 83.4572 63.0487 83.4077 63.189ZM46.0847 4.69796C45.1636 4.69319 44.2507 4.87102 43.3988 5.22116C42.5469 5.5713 41.7728 6.08681 41.1213 6.7379C40.4698 7.38898 39.9538 8.16274 39.6031 9.01444C39.2524 9.86614 39.074 10.7789 39.0782 11.7C39.2627 20.97 52.9067 20.9745 53.0867 11.7C53.0914 10.7791 52.9136 9.86645 52.5634 9.01478C52.2132 8.1631 51.6976 7.38931 51.0465 6.73816C50.3953 6.08701 49.6215 5.57143 48.7698 5.22124C47.9182 4.87104 47.0055 4.69319 46.0847 4.69796ZM48.1052 8.23496C48.0363 8.36418 47.9193 8.46114 47.7796 8.50492C47.6398 8.5487 47.4885 8.53578 47.3582 8.46896C47.126 8.34134 46.8564 8.29936 46.5965 8.35036C46.3366 8.40136 46.1028 8.54209 45.9362 8.74796C45.4187 9.28796 45.4412 11.124 45.4412 11.223L46.7912 11.016C46.9368 10.9939 47.0852 11.0305 47.2037 11.1179C47.3223 11.2052 47.4013 11.3361 47.4234 11.4817C47.4455 11.6273 47.4088 11.7757 47.3215 11.8943C47.2341 12.0129 47.1033 12.0919 46.9577 12.114L45.4457 12.3435C45.4457 13.4145 45.4952 14.4495 45.5312 15.4935C45.5248 15.6334 45.466 15.7658 45.3665 15.8644C45.267 15.9629 45.134 16.0205 44.9941 16.0256C44.8541 16.0307 44.7173 15.983 44.6109 15.8919C44.5045 15.8008 44.4362 15.673 44.4197 15.534C44.3702 14.058 44.3342 12.5595 44.3162 10.9575C44.3162 10.0575 44.3162 8.88296 45.1172 7.99646C46.3727 6.62396 48.6002 7.31246 48.1052 8.23496Z" fill="black"/>
<path d="M67.401 65.25C69.2415 59.904 69.1515 60.219 69.12 60.174C69.0885 60.129 63.27 60.021 60.039 60.084C58.7505 58.1521 57.0665 56.5157 55.0985 55.283C53.1304 54.0504 50.9231 53.2495 48.6225 52.9335C48.2727 52.5498 47.7901 52.3133 47.2725 52.272L46.71 52.0785C46.6876 51.6393 46.6876 51.1992 46.71 50.76C47.9728 50.279 49.0045 49.3342 49.5945 48.1185C50.256 46.6335 49.9275 44.7345 49.5405 39.906C50.4675 40.194 50.49 39.24 49.9275 38.493C49.9529 38.3333 49.9449 38.1702 49.904 38.0138C49.8631 37.8574 49.7903 37.7112 49.6901 37.5843C49.5899 37.4575 49.4645 37.3528 49.3218 37.2768C49.1791 37.2009 49.0222 37.1553 48.861 37.143C48.9476 37.0102 48.9975 36.857 49.0059 36.6987C49.0142 36.5405 48.9806 36.3828 48.9084 36.2417C48.8363 36.1006 48.7282 35.9811 48.595 35.8952C48.4618 35.8093 48.3083 35.76 48.15 35.7525C48.0563 35.5465 47.9004 35.375 47.7044 35.2621C47.5083 35.1491 47.2817 35.1003 47.0565 35.1225C47.0247 34.9711 46.953 34.831 46.8489 34.7166C46.7447 34.6022 46.6119 34.5177 46.4642 34.4719C46.3165 34.426 46.1592 34.4204 46.0086 34.4557C45.858 34.4909 45.7195 34.5658 45.6075 34.6725C45.513 34.5285 45.279 34.173 45.1575 34.038C45.2537 33.9433 45.3198 33.8224 45.3478 33.6904C45.3758 33.5584 45.3644 33.4211 45.315 33.2955C45.5355 33.2265 45.7282 33.0889 45.865 32.9027C46.0018 32.7165 46.0756 32.4915 46.0756 32.2605C46.0756 32.0295 46.0018 31.8045 45.865 31.6183C45.7282 31.4321 45.5355 31.2945 45.315 31.2255C45.6705 29.9295 44.4555 29.133 43.353 29.6505C43.2934 29.5018 43.1911 29.3741 43.0589 29.2836C42.9267 29.1931 42.7707 29.1438 42.6105 29.142C43.5105 28.008 42.228 27.216 41.0085 27.603C40.9284 27.3973 40.7936 27.2173 40.6189 27.0824C40.4441 26.9475 40.2358 26.8628 40.0165 26.8373C39.7972 26.8119 39.5751 26.8467 39.3741 26.938C39.173 27.0292 39.0007 27.1736 38.8755 27.3555C38.5803 27.278 38.2663 27.3194 38.0013 27.4708C37.7362 27.6223 37.5411 27.8717 37.458 28.1655C37.2691 28.121 37.0726 28.1189 36.8828 28.1593C36.6929 28.1998 36.5144 28.2818 36.36 28.3995C36.257 28.2215 36.0927 28.0871 35.8978 28.0214C35.7029 27.9557 35.4908 27.9633 35.3011 28.0427C35.1113 28.1221 34.9571 28.268 34.8671 28.4529C34.777 28.6378 34.7575 28.8492 34.812 29.0475C34.6875 29.0822 34.5771 29.1552 34.4963 29.2562C34.4156 29.3571 34.3686 29.4809 34.362 29.61C34.3125 29.6017 34.2618 29.6039 34.2133 29.6166C34.1647 29.6293 34.1194 29.6521 34.0803 29.6836C34.0412 29.715 34.0092 29.7544 33.9864 29.7991C33.9636 29.8438 33.9505 29.8929 33.948 29.943C33.8308 29.9133 33.7075 29.9184 33.5932 29.9577C33.4789 29.9971 33.3785 30.069 33.3045 30.1645C33.2304 30.2601 33.1859 30.3752 33.1763 30.4957C33.1667 30.6162 33.1925 30.7369 33.2505 30.843C33.1039 30.8759 32.9703 30.9513 32.8663 31.0597C32.7622 31.1681 32.6924 31.3047 32.6656 31.4525C32.6387 31.6004 32.6559 31.7528 32.7151 31.8909C32.7744 32.029 32.8729 32.1466 32.9985 32.229C32.2875 32.436 31.8285 33.129 32.0985 33.759C31.2885 34.2495 30.9555 35.244 31.527 35.937C31.4242 36.223 31.4287 36.5367 31.5395 36.8197C31.6504 37.1028 31.8602 37.3359 32.13 37.476C32.0124 37.6207 31.9375 37.7954 31.914 37.9804C31.8905 38.1654 31.9192 38.3533 31.9969 38.5228C32.0747 38.6923 32.1983 38.8367 32.3538 38.9396C32.5094 39.0425 32.6906 39.0998 32.877 39.105C32.8908 39.268 32.9464 39.4247 33.0385 39.5599C33.1306 39.6951 33.2561 39.8042 33.4028 39.8766C33.5494 39.9491 33.7123 39.9824 33.8757 39.9733C34.039 39.9643 34.1973 39.9132 34.335 39.825C34.4084 39.9419 34.5143 40.0349 34.6399 40.0923C34.7654 40.1497 34.905 40.169 35.0414 40.148C35.1779 40.1269 35.3051 40.0663 35.4075 39.9737C35.5099 39.8812 35.5829 39.7606 35.6175 39.627C35.8378 39.7098 36.0742 39.7407 36.3083 39.7173C36.5425 39.6939 36.768 39.6168 36.9675 39.492C36.783 40.6125 35.9325 40.6935 36.198 41.868C36.0412 42.0743 35.9545 42.3252 35.9504 42.5843C35.9464 42.8434 36.0253 43.0969 36.1755 43.308C36.1245 43.4165 36.0957 43.5341 36.0907 43.6539C36.0858 43.7738 36.1048 43.8933 36.1467 44.0057C36.1886 44.118 36.2526 44.2209 36.3348 44.3082C36.417 44.3955 36.5159 44.4654 36.6255 44.514C36.5834 44.5966 36.5635 44.6888 36.5677 44.7815C36.5719 44.8741 36.6001 44.9641 36.6496 45.0426C36.699 45.1211 36.768 45.1854 36.8498 45.2292C36.9316 45.273 37.0233 45.2948 37.116 45.2925C37.2045 45.6233 37.3744 45.9268 37.6102 46.1752C37.846 46.4235 38.1402 46.609 38.466 46.7145C38.511 52.371 38.718 51.6915 38.178 52.3485C37.6807 52.6097 37.2731 53.0142 37.008 53.5095C29.115 56.25 25.929 62.5095 24.885 70.911C24.282 70.8165 24.255 70.794 24.2325 70.8705C23.9896 71.816 23.9045 72.7952 23.9805 73.7685C23.9805 73.827 23.9805 73.8225 24.7005 73.998C24.903 77.4675 26.7795 81.2295 30.5505 81.891C30.501 82.62 30.4425 86.796 30.5505 87.741C30.5553 87.7631 30.5675 87.7829 30.5851 87.7971C30.6027 87.8113 30.6247 87.819 30.6473 87.819C30.6699 87.819 30.6918 87.8113 30.7094 87.7971C30.727 87.7829 30.7392 87.7631 30.744 87.741C30.744 87.237 30.807 82.71 30.8475 81.9585C33.138 82.1835 34.479 81.225 36.2835 79.2585C39.1185 76.1085 40.725 72.711 42.399 69.147C42.6931 68.5716 42.9297 67.9687 43.1055 67.347C43.3696 67.4538 43.6607 67.4742 43.9371 67.4055C44.2135 67.3368 44.4612 67.1825 44.6445 66.9645C45.2891 67.1726 45.9738 67.225 46.6425 67.1175C46.7556 67.0965 46.8632 67.0524 46.9585 66.988C47.0538 66.9236 47.1348 66.8402 47.1965 66.7431C47.2581 66.646 47.2991 66.5372 47.3168 66.4235C47.3346 66.3099 47.3287 66.1938 47.2995 66.0825C47.8755 66.0555 48.2355 65.5335 47.6595 65.097C47.4762 64.9561 47.2821 64.8297 47.079 64.719C47.556 64.6875 48.816 64.548 49.2255 64.269C49.635 63.99 49.6215 63.2925 49.0545 63.216C48.816 63.1845 45.3105 63.3285 44.514 63.441C43.7259 63.5245 42.9796 63.8374 42.3675 64.341C41.4675 65.0835 35.1045 70.371 32.832 72.279C31.5135 72.0405 26.5725 71.1945 25.2585 70.9875C26.3475 61.911 30.0465 56.484 36.8865 53.928C36.468 55.638 38.493 57.393 39.1365 57.915C40.194 58.7835 41.922 59.715 43.4025 59.31C44.343 59.058 45.045 58.3335 45.495 57.15C47.493 58.8825 48.4335 58.689 48.7485 58.527C49.959 57.8925 49.9095 54.8055 48.9015 53.3205C51.0613 53.6549 53.1288 54.4314 54.9747 55.6014C56.8206 56.7713 58.4053 58.3096 59.6295 60.12C57.564 60.165 57.69 60.165 57.672 60.219C57.184 61.5354 56.71 62.857 56.25 64.1835C56.07 63.063 55.8 61.5375 55.683 61.0965C55.673 61.0724 55.6547 61.0528 55.6313 61.0412C55.608 61.0296 55.5813 61.0269 55.556 61.0334C55.5308 61.04 55.5088 61.0555 55.4941 61.077C55.4794 61.0985 55.473 61.1246 55.476 61.1505C55.6065 61.6995 55.8765 63.783 56.025 64.836C54.198 70.1235 52.767 74.889 52.803 74.9385C52.839 74.988 57.303 74.988 57.879 74.979C58.329 78.741 58.671 86.5845 58.6575 87.516C58.6575 87.5423 58.668 87.5674 58.6865 87.586C58.7051 87.6046 58.7303 87.615 58.7565 87.615C58.7828 87.615 58.808 87.6046 58.8265 87.586C58.8451 87.5674 58.8555 87.5423 58.8555 87.516C58.9365 85.86 58.8555 80.883 58.779 79.8075C59.8432 79.6309 60.8184 79.1053 61.551 78.3135C62.1 77.751 62.901 76.086 63.4545 74.745C64.3275 74.6865 64.3545 74.7 64.3545 74.6415C64.8675 73.449 65.376 72.045 65.8035 70.677C67.9275 70.3575 69.003 67.3785 68.1435 66.0285C67.9508 65.7218 67.6982 65.4571 67.401 65.25ZM30.7125 74.817C31.0005 74.7675 30.681 74.367 41.544 65.439C43.344 63.9675 43.4835 63.828 45.666 63.6795C46.476 63.6255 48.5775 63.549 48.816 63.5445C49.0005 63.5445 49.1625 63.5445 49.149 63.711C49.149 63.999 48.699 64.0845 48.3885 64.161C47.4571 64.3864 46.5028 64.5042 45.5445 64.512C45.5159 64.512 45.4884 64.5234 45.4682 64.5436C45.4479 64.5639 45.4365 64.5914 45.4365 64.62C45.4365 64.6486 45.4479 64.6761 45.4682 64.6964C45.4884 64.7166 45.5159 64.728 45.5445 64.728H46.4805C46.7675 64.867 47.0415 65.0311 47.2995 65.2185C47.4075 65.295 47.601 65.367 47.6145 65.4705C47.6865 66.069 46.1745 65.5155 45.6435 65.259C45.625 65.2494 45.6035 65.2476 45.5837 65.254C45.5638 65.2603 45.5473 65.2742 45.5378 65.2927C45.5282 65.3112 45.5264 65.3328 45.5328 65.3526C45.5391 65.3724 45.553 65.3889 45.5715 65.3985C45.954 65.637 47.277 66.1005 46.971 66.5505C46.5795 67.1175 45.5535 66.8745 44.874 66.7395C45.016 66.6247 45.1867 66.551 45.3675 66.5264C45.5484 66.5018 45.7326 66.5273 45.9 66.6C45.9229 66.6057 45.9471 66.6031 45.9682 66.5926C45.9893 66.5821 46.006 66.5644 46.0152 66.5427C46.0244 66.521 46.0256 66.4967 46.0185 66.4742C46.0114 66.4517 45.9965 66.4325 45.9765 66.42C45.7001 66.3037 45.3943 66.2762 45.1016 66.3416C44.8089 66.4069 44.5438 66.5617 44.343 66.7845C43.8075 67.2975 43.1415 67.176 42.624 66.654C42.6055 66.6376 42.5818 66.6284 42.5571 66.628C42.5324 66.6276 42.5084 66.636 42.4894 66.6518C42.4704 66.6675 42.4576 66.6896 42.4534 66.7139C42.4492 66.7383 42.4539 66.7633 42.4665 66.7845C42.57 66.9435 42.7048 67.0797 42.8625 67.185C42.0608 69.1569 41.1596 71.0868 40.1625 72.9675C38.3625 76.3425 36.5355 78.7275 34.4835 80.4645C32.2605 82.377 28.9935 81.675 27.117 79.488C25.992 78.1875 25.2855 76.365 25.0245 74.088C25.9605 74.25 29.7 74.7855 30.7125 74.817ZM38.5155 37.278C38.1273 37.5507 37.827 37.9307 37.6515 38.3715C37.4759 38.2164 37.3401 38.0215 37.2555 37.803C37.1709 37.5845 37.1401 37.3489 37.1655 37.116C37.566 35.316 39.4155 33.741 40.95 33.2775C41.895 32.895 44.298 33.3225 45.072 34.479C44.8195 34.4561 44.5676 34.5283 44.3655 34.6815C44.2445 34.524 44.0894 34.396 43.9119 34.3068C43.7344 34.2177 43.539 34.1699 43.3404 34.1668C43.1418 34.1638 42.9451 34.2057 42.7649 34.2893C42.5848 34.373 42.4258 34.4963 42.3 34.65C42.0538 34.7218 41.8315 34.8586 41.6565 35.046C41.4909 34.9573 41.303 34.919 41.1159 34.9358C40.9288 34.9526 40.7507 35.0238 40.6035 35.1405C40.4468 35.183 40.309 35.2773 40.2126 35.408C40.1162 35.5387 40.0669 35.6982 40.0725 35.8605C39.875 35.841 39.6756 35.8631 39.4872 35.9256C39.2987 35.988 39.1255 36.0893 38.9788 36.2229C38.832 36.3566 38.7149 36.5195 38.6351 36.7013C38.5553 36.883 38.5146 37.0795 38.5155 37.278ZM47.025 55.9755C44.9235 58.1535 38.61 55.6155 38.2005 53.5905C38.1681 53.3728 38.1875 53.1506 38.2571 52.9418C38.3267 52.7331 38.4445 52.5437 38.601 52.389C38.646 52.344 38.6775 52.2945 38.7225 52.2495C38.7278 52.2365 38.7278 52.222 38.7225 52.209L38.808 52.101C38.9205 51.8895 38.781 47.412 38.7585 46.7685C38.9279 46.7707 39.0936 46.7193 39.2319 46.6214C39.3701 46.5236 39.4738 46.3845 39.528 46.224C39.6239 46.2761 39.733 46.2988 39.8417 46.2891C39.9504 46.2794 40.0538 46.2378 40.1389 46.1695C40.224 46.1012 40.287 46.0093 40.3201 45.9053C40.3531 45.8013 40.3547 45.6899 40.3245 45.585L41.4315 44.397C41.43 44.5447 41.4708 44.6898 41.5491 44.8151C41.6273 44.9404 41.7399 45.0407 41.8733 45.1041C42.0067 45.1675 42.1555 45.1914 42.3021 45.173C42.4487 45.1545 42.587 45.0945 42.7005 45C42.8168 44.9155 42.9131 44.8063 42.9823 44.6803C43.0515 44.5542 43.0921 44.4145 43.101 44.271C43.1028 44.2555 43.0991 44.2399 43.0907 44.2268C43.0822 44.2137 43.0695 44.2039 43.0546 44.1992C43.0398 44.1944 43.0237 44.1949 43.0092 44.2006C42.9947 44.2063 42.9826 44.2169 42.975 44.2305C42.9002 44.3426 42.7896 44.4259 42.6612 44.4668C42.5328 44.5076 42.3944 44.5037 42.2685 44.4555C42.3126 44.2689 42.3039 44.0737 42.2435 43.8918C42.1831 43.7098 42.0734 43.5482 41.9265 43.425C41.2515 41.265 41.3145 40.41 42.525 39.6C43.425 38.9205 46.575 37.4085 48.6945 39.339C48.8402 39.5082 49.0137 39.6512 49.2075 39.762C49.7565 47.2365 50.1075 47.3355 48.0555 49.5045C47.427 50.1419 46.5899 50.5316 45.6975 50.6025C45.54 50.6025 45.522 50.832 45.6975 50.85C45.926 50.8814 46.1576 50.8814 46.386 50.85C46.386 52.3755 46.3185 52.2585 46.755 52.4115C48.2445 53.1 48.114 54.837 47.025 55.9755ZM60.2595 78.8445C59.7869 79.1067 59.2814 79.3049 58.7565 79.434C58.689 78.678 58.4145 76.284 58.2345 74.934C59.8725 74.898 61.5195 74.8305 63.09 74.7315C62.433 76.3695 61.4385 78.2685 60.2595 78.8445ZM63.234 63.9945C62.244 63.9675 62.244 62.7435 63.234 62.7165C64.224 62.6895 64.224 63.99 63.234 64.017V63.9945ZM59.2245 61.677C59.0145 61.8025 58.8444 61.9851 58.734 62.2035C58.599 62.46 54.7335 72.9765 54.549 73.575C54.5395 73.6072 54.5175 73.6343 54.488 73.6504C54.4585 73.6664 54.4238 73.67 54.3915 73.6605C54.3593 73.6509 54.3322 73.629 54.3162 73.5994C54.3001 73.5699 54.2965 73.5352 54.306 73.503C54.5355 72.6525 57.87 63.1035 57.906 63.045C58.7025 61.056 59.013 61.0875 60.534 61.038C61.2315 61.0155 66.3075 60.993 67.041 61.1145C67.203 61.1415 67.167 61.371 67.041 61.3845C66.6405 61.434 59.5395 61.542 59.2245 61.6995V61.677ZM65.9385 70.227C66.1095 69.651 66.267 69.0885 66.3885 68.553C66.5889 68.634 66.7969 68.6943 67.0095 68.733C67.0328 68.7384 67.0573 68.7343 67.0775 68.7216C67.0978 68.709 67.1122 68.6888 67.1175 68.6655C67.1229 68.6422 67.1188 68.6178 67.1061 68.5975C67.0935 68.5773 67.0733 68.5629 67.05 68.5575C66.5595 68.3656 66.1035 68.0951 65.7 67.7565C65.4255 67.446 65.2995 67.2165 65.619 66.9915C66.231 67.473 67.0275 67.8915 67.32 68.103C67.3387 68.1122 67.3599 68.1147 67.3801 68.11C67.4004 68.1053 67.4184 68.0938 67.4311 68.0774C67.4438 68.061 67.4504 68.0407 67.4499 68.0199C67.4493 67.9991 67.4416 67.9792 67.428 67.9635C67.0995 67.6665 65.988 66.9195 65.4075 66.339C65.3983 66.2472 65.4176 66.1548 65.4627 66.0743C65.5077 65.9938 65.5765 65.9291 65.6595 65.889C66.1817 66.3444 66.7521 66.7412 67.3605 67.0725C67.3804 67.0845 67.4041 67.0884 67.4267 67.0834C67.4493 67.0784 67.4692 67.0648 67.482 67.0455C67.5495 66.96 67.482 66.9285 67.032 66.555C66.6945 66.276 66.222 65.8845 65.8755 65.5425C65.385 65.0925 66.3255 65.1735 67.185 65.5425C67.4843 65.7135 67.7282 65.9668 67.8878 66.2723C68.0473 66.5778 68.1158 66.9227 68.085 67.266C68.0175 68.5665 67.2165 69.9165 65.9385 70.272V70.227ZM29.061 5.42249C28.8803 5.44886 28.696 5.41232 28.539 5.31899C28.4354 5.05539 28.2598 4.8262 28.0323 4.65753C27.8047 4.48886 27.5344 4.3875 27.252 4.36499C26.5635 4.40999 26.4285 5.38199 25.902 5.45399C25.587 5.49899 25.2 5.17499 24.75 4.49999C24.7445 4.48858 24.7359 4.47895 24.7251 4.47222C24.7144 4.46548 24.702 4.46191 24.6893 4.46191C24.6766 4.46191 24.6642 4.46548 24.6534 4.47222C24.6427 4.47895 24.6341 4.48858 24.6285 4.49999C24.5789 4.6689 24.5641 4.84614 24.585 5.02096C24.6058 5.19577 24.662 5.36452 24.75 5.51699C24.6771 5.51363 24.6081 5.48313 24.5565 5.43149C24.4035 5.28299 24.327 5.83199 24.696 6.20999C24.5828 6.20395 24.4722 6.17324 24.372 6.11999C24.147 5.94449 24.2415 6.87149 24.9795 7.29449C24.7708 7.28129 24.5668 7.22629 24.3798 7.13275C24.1927 7.03922 24.0263 6.90906 23.8905 6.74999C23.8817 6.73772 23.869 6.72877 23.8544 6.72459C23.8399 6.72042 23.8243 6.72125 23.8103 6.72696C23.7963 6.73267 23.7846 6.74293 23.7771 6.75608C23.7696 6.76923 23.7668 6.78452 23.769 6.79949C23.849 7.4671 24.1576 8.08646 24.6424 8.55238C25.1272 9.0183 25.7583 9.30207 26.4285 9.35549C27.918 9.35549 28.8585 7.75349 28.512 6.52499C28.5999 6.49735 28.6942 6.49735 28.782 6.52499C28.795 6.53474 28.8111 6.53947 28.8273 6.53832C28.8435 6.53717 28.8588 6.53021 28.8703 6.51872C28.8818 6.50723 28.8887 6.49198 28.8899 6.47578C28.891 6.45957 28.8863 6.44349 28.8765 6.43049C28.8305 6.3571 28.7998 6.27516 28.7862 6.18961C28.7726 6.10405 28.7764 6.01664 28.7975 5.9326C28.8185 5.84855 28.8562 5.76962 28.9085 5.70053C28.9607 5.63143 29.0264 5.5736 29.1015 5.53049C29.1087 5.52138 29.1134 5.51057 29.1152 5.49912C29.1169 5.48767 29.1157 5.47596 29.1116 5.4651C29.1076 5.45425 29.1008 5.44463 29.0919 5.43717C29.0831 5.42971 29.0724 5.42465 29.061 5.42249ZM27.675 5.76899C27.5859 5.75904 27.5036 5.71659 27.4438 5.64976C27.384 5.58293 27.351 5.49641 27.351 5.40674C27.351 5.31707 27.384 5.23055 27.4438 5.16372C27.5036 5.09689 27.5859 5.05444 27.675 5.04449C27.7642 5.05444 27.8465 5.09689 27.9063 5.16372C27.966 5.23055 27.9991 5.31707 27.9991 5.40674C27.9991 5.49641 27.966 5.58293 27.9063 5.64976C27.8465 5.71659 27.7642 5.75904 27.675 5.76899ZM15.5565 50.6385C14.0904 50.5567 12.6196 50.6306 11.169 50.859C11.1539 50.8612 11.1401 50.8688 11.1302 50.8803C11.1203 50.8919 11.1149 50.9067 11.115 50.922C11.1114 51.7054 11.2174 52.4855 11.43 53.2395C11.4344 53.2519 11.4422 53.2627 11.4526 53.2707C11.463 53.2787 11.4755 53.2835 11.4885 53.2845C12.7907 53.3879 14.1001 53.3517 15.3945 53.1765C15.651 53.1405 15.8355 50.6565 15.5565 50.6385ZM14.346 52.11C14.3163 52.2566 14.2439 52.3912 14.138 52.497C14.0321 52.6027 13.8974 52.6748 13.7507 52.7043C13.604 52.7338 13.4518 52.7194 13.3133 52.6628C13.1748 52.6063 13.056 52.5101 12.9719 52.3864C12.8877 52.2626 12.8419 52.1168 12.8403 51.9672C12.8386 51.8176 12.8811 51.6708 12.9625 51.5452C13.0439 51.4196 13.1605 51.3208 13.2977 51.2612C13.4349 51.2016 13.5867 51.1838 13.734 51.21C13.8339 51.2278 13.9292 51.2653 14.0143 51.3205C14.0994 51.3756 14.1726 51.4472 14.2296 51.5311C14.2866 51.6149 14.3263 51.7094 14.3463 51.8088C14.3663 51.9082 14.3662 52.0106 14.346 52.11ZM14.607 50.121C14.6856 50.1355 14.7663 50.1343 14.8445 50.1176C14.9226 50.1009 14.9967 50.069 15.0625 50.0237C15.1283 49.9783 15.1846 49.9205 15.228 49.8534C15.2715 49.7863 15.3013 49.7113 15.3158 49.6327C15.3303 49.5541 15.3291 49.4735 15.3124 49.3953C15.2957 49.3172 15.2638 49.2431 15.2184 49.1772C15.1731 49.1114 15.1153 49.0552 15.0482 49.0117C14.9811 48.9683 14.9061 48.9385 14.8275 48.924C14.6688 48.8948 14.505 48.9298 14.372 49.0213C14.2391 49.1129 14.148 49.2535 14.1188 49.4122C14.0895 49.571 14.1246 49.7348 14.2161 49.8677C14.3077 50.0007 14.4483 50.0918 14.607 50.121Z" fill="black"/>
<path d="M16.9831 48.636C14.7331 45.378 9.61214 46.53 8.99114 50.3595C8.86544 51.0009 8.88554 51.6624 9.04997 52.295C9.2144 52.9276 9.51893 53.5152 9.94106 54.0142C10.3632 54.5132 10.8921 54.911 11.4887 55.178C12.0853 55.4451 12.7343 55.5746 13.3876 55.557C17.1316 55.557 18.9001 51.426 16.9831 48.636ZM16.0381 53.586C16.0354 53.5989 16.0288 53.6105 16.0191 53.6194C16.0094 53.6283 15.9972 53.6339 15.9841 53.6355C14.3123 53.8597 12.6214 53.9065 10.9396 53.775C10.9262 53.7731 10.9136 53.7675 10.9033 53.7587C10.8929 53.7499 10.8852 53.7384 10.8811 53.7255C10.4342 52.0694 10.3513 50.3362 10.6381 48.645C10.6402 48.6307 10.6471 48.6174 10.6578 48.6076C10.6684 48.5978 10.6822 48.5919 10.6966 48.591C12.507 48.3832 14.3362 48.4028 16.1416 48.6495C16.155 48.652 16.1674 48.6585 16.177 48.6681C16.1866 48.6778 16.1931 48.6901 16.1956 48.7035C16.4775 50.3262 16.4239 51.9894 16.0381 53.5905V53.586Z" fill="black"/>
</svg>
